SplineFontDB: 3.2
FontName: Paribartan3f
FullName: Paribartan 3f
FamilyName: Paribartan
Weight: Regular
Copyright: Copyright 2024 The Paribartan Project Authors (github.com/mitradranirban/paribartan)
Version: 0.001
ItalicAngle: 0
UnderlinePosition: 0
UnderlineWidth: 0
Ascent: 800
Descent: 200
InvalidEm: 1
UFOAscent: 800
UFODescent: -250
LayerCount: 2
Layer: 0 0 "Back" 1
Layer: 1 0 "Fore" 0
StyleMap: 0x0000
FSType: 0
OS2Version: 0
OS2_WeightWidthSlopeOnly: 0
OS2_UseTypoMetrics: 0
CreationTime: 1733728903
ModificationTime: 1734506127
PfmFamily: 17
TTFWeight: 400
TTFWidth: 5
LineGap: 0
VLineGap: 0
OS2TypoAscent: 1200
OS2TypoAOffset: 0
OS2TypoDescent: -400
OS2TypoDOffset: 0
OS2TypoLinegap: 0
OS2WinAscent: 1160
OS2WinAOffset: 0
OS2WinDescent: 348
OS2WinDOffset: 0
HheadAscent: 1200
HheadAOffset: 0
HheadDescent: -400
HheadDOffset: 0
OS2CapHeight: 750
OS2XHeight: 500
OS2Vendor: 'anir'
MarkAttachClasses: 1
DEI: 91125
LangName: 1033 "" "" "" "" "" "" "" "" "Dr Anirban Mitra" "Dr Anirban Mitra" "Variable Color Bengali Font" "https://fonts.atipra.in" "https://github.com/mitradranirban" "This Font Software is licensed under the SIL Open Font License, Version 1.1. This license is available with a FAQ at: https://openfontlicense.org+ACIA" " https://openfontlicense.org"
PickledDataWithLists: "(dp0
Vxyz.fontra.lineMetricsHorizontalLayout.zones
p1
(dp2
Vascender
p3
I16
sVbaseline
p4
I-16
sVcapHeight
p5
I16
sVdescender
p6
I-16
sVxHeight
p7
I16
ss."
Encoding: UnicodeBmp
Compacted: 1
UnicodeInterp: none
NameList: AGL For New Fonts
DisplaySize: -128
AntiAlias: 1
FitToEm: 1
WidthSeparation: 150
WinInfo: 360 10 4
BeginPrivate: 0
EndPrivate
Grid
-1000 -402 m 0
 2000 -402 l 1024
-1000 510.5 m 0
 2000 510.5 l 1024
  Named: "XHGHT"
-982 752 m 0
 2018 752 l 1024
  Named: "CAPS"
-1000 1202 m 0
 2000 1202 l 1024
EndSplineSet
BeginChars: 65538 453

StartChar: exclam
Encoding: 33 33 0
Width: 252
VWidth: 0
Flags: HW
HStem: 8 142<100 252>
VStem: 100 152<8 150 268 782>
LayerCount: 2
Fore
SplineSet
100 8 m 1
 100 150 l 1
 252 150 l 1
 252 8 l 1
 100 8 l 1
100 268 m 1
 100 782 l 1
 252 782 l 1
 252 268 l 1
 100 268 l 1
EndSplineSet
EndChar

StartChar: quotedbl
Encoding: 34 34 1
Width: 452
VWidth: 0
Flags: HW
HStem: 542 257<100 252 300 452>
VStem: 100 152<542 799> 300 152<542 799>
LayerCount: 2
Fore
SplineSet
100 542 m 1
 100 799 l 1
 252 799 l 1
 252 542 l 1
 100 542 l 1
300 542 m 1
 300 799 l 1
 452 799 l 1
 452 542 l 1
 300 542 l 1
EndSplineSet
EndChar

StartChar: numbersign
Encoding: 35 35 2
Width: 644
VWidth: 0
Flags: HW
HStem: 226 152<105 114.845 293.718 414.845 593.718 649> 476 152<105 159.044 337.917 459.044 637.917 649>
LayerCount: 2
Fore
SplineSet
459.043945312 476 m 1
 311.043945312 476 l 1
 293.717773438 378 l 1
 441.717773438 378 l 1
 459.043945312 476 l 1
199 702 m 1
 351 702 l 1
 337.916992188 628 l 1
 485.916992188 628 l 1
 499 702 l 1
 651 702 l 1
 637.916992188 628 l 1
 649 628 l 1
 649 476 l 1
 611.043945312 476 l 1
 593.717773438 378 l 1
 649 378 l 1
 649 226 l 1
 566.845703125 226 l 1
 555 159 l 1
 403 159 l 1
 414.845703125 226 l 1
 266.845703125 226 l 1
 255 159 l 1
 103 159 l 1
 114.845703125 226 l 1
 105 226 l 1
 105 378 l 1
 141.717773438 378 l 1
 159.043945312 476 l 1
 105 476 l 1
 105 628 l 1
 185.916992188 628 l 1
 199 702 l 1
EndSplineSet
EndChar

StartChar: dollar
Encoding: 36 36 3
Width: 512
VWidth: 0
Flags: HW
VStem: 303 210.5<165.062 311.804> 303 79<-172 9.65447 452.672 595.787 784.489 1040>
LayerCount: 2
Fore
SplineSet
303 595.787109375 m 1
 296.98046875 589.745117188 291.647460938 582.815429688 287 575 c 0
 270.333007812 547.666992188 268.833007812 517.666992188 282.5 485 c 0
 287.901367188 472.088867188 294.734375 461.313476562 303 452.671875 c 1
 303 595.787109375 l 1
110 67 m 2
 185 192 l 1
 190.333007812 188 197.666992188 183 207 177 c 0
 232.333007812 162.333007812 259.333007812 158.333007812 288 165 c 0
 293.245117188 166.219726562 298.245117188 167.741210938 303 169.563476562 c 1
 303 319.608398438 l 1
 296.412109375 321.99609375 289.412109375 323.79296875 282 325 c 0
 249.333007812 343 221 363 197 385 c 0
 173 407 154 431.666992188 140 459 c 0
 126 486.333007812 120 516.333007812 122 549 c 0
 124 581.666992188 135.333007812 615 156 649 c 0
 190.186523438 705.163085938 239.186523438 744.8359375 303 768.017578125 c 1
 303 1040 l 1
 382 1040 l 1
 382 784.489257812 l 1
 429.180664062 785.873046875 471.180664062 770.04296875 508 737 c 0
 510 735 513.5 732.5 518.5 729.5 c 0
 523.5 726.5 527 724 529 722 c 2
 454 597 l 1
 446 603.666992188 438.666992188 608.666992188 432 612 c 0
 415.936523438 620.876953125 399.26953125 625.533203125 382 625.966796875 c 1
 382 410.544921875 l 1
 401.361328125 398.936523438 418.361328125 387.254882812 433 375.5 c 0
 455 357.833007812 474.166992188 337.333007812 490.5 314 c 0
 506.833007812 290.666992188 514.5 264.333007812 513.5 235 c 0
 512.5 205.666992188 502 174 482 140 c 0
 458.666992188 100.666992188 425.5 68.1669921875 382.5 42.5 c 0
 382.333007812 42.400390625 382.166992188 42.30078125 382 42.2021484375 c 2
 382 -172 l 1
 303 -172 l 1
 303 9.654296875 l 1
 285.934570312 5.681640625 268.767578125 3.6298828125 251.5 3.5 c 0
 207.166992188 3.1669921875 167 19.3330078125 131 52 c 0
 129 54 125.5 56.5 120.5 59.5 c 0
 115.5 62.5 112 65 110 67 c 2
EndSplineSet
EndChar

StartChar: percent
Encoding: 37 37 4
Width: 691
VWidth: 0
Flags: HW
HStem: 92 75<548.188 571.812> 274 75<548.188 571.812> 493 75<243.188 266.812> 675 75<243.188 266.812>
VStem: 125 76<578.334 664.111> 309 76<578.933 663.698> 430 76<177.334 263.111> 614 76<177.933 262.698>
LayerCount: 2
Fore
SplineSet
585 828 m 1
 691 767 l 1
 206 -73 l 1
 100 -12 l 1
 585 828 l 1
560 274 m 0
 556 274 552 273 548 272 c 1
 548 273 l 1
 523 268 506 246 506 220 c 0
 506 194 523 173 548 168 c 1
 548 169 l 1
 552 168 556 167 560 167 c 0
 564 167 568 168 572 169 c 1
 572 168 l 1
 597 173 614 194 614 220 c 0
 614 246 597 268 572 273 c 1
 572 272 l 1
 568 273 564 274 560 274 c 0
559 92 m 0
 558 92 558 92 557 92 c 0
 555 92 552 92 550 92 c 0
 483 97 430 152 430 220 c 0
 430 288 483 344 550 349 c 0
 552 349 555 349 557 349 c 0
 558 349 558 349 559 349 c 0
 560 349 560 349 561 349 c 0
 633 349 690 292 690 220 c 0
 690 149 633 92 561 92 c 0
 560 92 560 92 559 92 c 0
255 675 m 4
 251 675 247 674 243 673 c 5
 243 674 l 5
 218 669 201 647 201 621 c 4
 201 595 218 574 243 569 c 5
 243 570 l 5
 247 569 251 568 255 568 c 4
 259 568 263 569 267 570 c 5
 267 569 l 5
 292 574 309 595 309 621 c 4
 309 647 292 669 267 674 c 5
 267 673 l 5
 263 674 259 675 255 675 c 4
254 493 m 4
 253 493 253 493 252 493 c 4
 250 493 247 493 245 493 c 4
 178 498 125 553 125 621 c 4
 125 689 178 745 245 750 c 4
 247 750 250 750 252 750 c 4
 253 750 253 750 254 750 c 4
 255 750 255 750 256 750 c 4
 328 750 385 693 385 621 c 4
 385 550 328 493 256 493 c 4
 255 493 255 493 254 493 c 4
EndSplineSet
EndChar

StartChar: ampersand
Encoding: 38 38 5
Width: 649
VWidth: 0
Flags: HW
HStem: 13 151<300.364 371.357> 508 20G<347.268 369.279>
VStem: 106.893 151<206.066 281.468>
LayerCount: 2
Fore
SplineSet
371.578125 167.893554688 m 1
 258.534179688 282.051757812 l 1
 258.110351562 278.1015625 257.892578125 274.081054688 257.892578125 270 c 0
 257.892578125 211 304.892578125 164 364.892578125 164 c 0
 365.63671875 164 367.953125 165.373046875 371.578125 167.893554688 c 1
438.892578125 820 m 1
 435.892578125 701 l 1
 410.892578125 699 292.892578125 634 273.892578125 615 c 0
 250.892578125 592 240.892578125 561 242.892578125 531 c 1
 265.551757812 508.340820312 l 1
 296.095703125 521.012695312 329.643554688 528 364.892578125 528 c 0
 373.666015625 528 382.338867188 527.560546875 390.892578125 526.704101562 c 1
 390.892578125 383 l 1
 502.024414062 271.868164062 l 1
 559.897460938 319.09375 614.953125 364.163085938 618.892578125 365.131835938 c 1
 618.892578125 212.295898438 l 2
 617.041015625 212.110351562 604.50390625 202.668945312 585.904296875 187.98828125 c 1
 649.892578125 124 l 1
 531.892578125 6 l 1
 455.688476562 82.955078125 l 1
 408.41015625 44.77734375 368.403320312 13 364.892578125 13 c 0
 221.892578125 13 106.892578125 128 106.892578125 270 c 0
 106.892578125 317.479492188 119.5703125 361.873046875 141.741210938 399.995117188 c 1
 125.892578125 416 l 1
 70.81640625 515.021484375 112.696289062 618.463867188 166.892578125 722 c 0
 193.875 773.546875 406.1484375 839.728515625 438.892578125 820 c 1
EndSplineSet
EndChar

StartChar: quotesingle
Encoding: 39 39 6
Width: 252
VWidth: 0
Flags: HW
HStem: 542 257<100 252>
VStem: 100 152<542 799>
LayerCount: 2
Fore
SplineSet
100 542 m 1
 100 799 l 1
 252 799 l 1
 252 542 l 1
 100 542 l 1
EndSplineSet
EndChar

StartChar: parenleft
Encoding: 40 40 7
Width: 555
VWidth: 0
Flags: HW
HStem: -4 25<423.819 510.389> 754 29<414.924 505.227>
VStem: 100 104<262.783 514.708>
LayerCount: 2
Fore
SplineSet
482 754 m 1
 354 754 204 589 204 388 c 0
 204 186 354 21 482 21 c 1
 555 3 l 1
 531 -2 507 -4 482 -4 c 0
 271 -4 100 172 100 390 c 0
 100 607 271 783 482 783 c 0
 507 783 531 781 555 776 c 1
 482 754 l 1
EndSplineSet
EndChar

StartChar: parenright
Encoding: 41 41 8
Width: 555
VWidth: 0
Flags: HW
HStem: -4 25<144.611 231.181> 754 29<149.773 240.076>
VStem: 451 104<262.783 514.708>
LayerCount: 2
Fore
SplineSet
173 754 m 1
 100 776 l 1
 124 781 148 783 173 783 c 0
 384 783 555 607 555 390 c 0
 555 172 384 -4 173 -4 c 0
 148 -4 124 -2 100 3 c 1
 173 21 l 1
 301 21 451 186 451 388 c 0
 451 589 301 754 173 754 c 1
EndSplineSet
EndChar

StartChar: asterisk
Encoding: 42 42 9
Width: 644
VWidth: 0
Flags: HW
HStem: 354 152<100 189 555 644>
VStem: 296 152<159 247 613 702>
LayerCount: 2
Fore
SplineSet
644 506 m 1
 644 354 l 1
 555 354 l 1
 618 291 l 1
 511 184 l 1
 448 247 l 1
 448 159 l 1
 296 159 l 1
 296 247 l 1
 233 184 l 1
 126 291 l 1
 189 354 l 1
 100 354 l 1
 100 506 l 1
 189 506 l 1
 126 569 l 1
 233 676 l 1
 296 613 l 1
 296 702 l 1
 448 702 l 1
 448 613 l 1
 511 676 l 1
 618 569 l 1
 555 506 l 1
 644 506 l 1
EndSplineSet
EndChar

StartChar: plus
Encoding: 43 43 10
Width: 644
VWidth: 0
Flags: HW
HStem: 354 152<100 644>
VStem: 296 152<159 702>
LayerCount: 2
Fore
SplineSet
296 702 m 1
 448 702 l 1
 448 506 l 1
 644 506 l 1
 644 354 l 1
 448 354 l 1
 448 159 l 1
 296 159 l 1
 296 354 l 1
 100 354 l 1
 100 506 l 1
 296 506 l 1
 296 702 l 1
EndSplineSet
EndChar

StartChar: comma
Encoding: 44 44 11
Width: 252
VWidth: 0
Flags: HW
HStem: -124 274<142.767 195.182>
VStem: 100 152<8 150>
LayerCount: 2
Fore
SplineSet
100 8 m 1
 100 150 l 1
 252 150 l 1
 252 8 l 1
 192 -124 l 1
 134 -120 l 1
 142.767578125 8 l 1
 100 8 l 1
EndSplineSet
EndChar

StartChar: hyphen
Encoding: 45 45 12
Width: 644
VWidth: 0
Flags: HW
HStem: 354 152<100 644>
LayerCount: 2
Fore
SplineSet
644 506 m 1
 644 354 l 1
 100 354 l 1
 100 506 l 1
 644 506 l 1
EndSplineSet
EndChar

StartChar: period
Encoding: 46 46 13
Width: 252
VWidth: 0
Flags: HW
HStem: 8 142<100 252>
VStem: 100 152<8 150>
LayerCount: 2
Fore
SplineSet
100 8 m 1
 100 150 l 1
 252 150 l 1
 252 8 l 1
 100 8 l 1
EndSplineSet
EndChar

StartChar: slash
Encoding: 47 47 14
Width: 691
VWidth: 0
Flags: HW
LayerCount: 2
Fore
SplineSet
585 828 m 1
 691 767 l 1
 206 -73 l 1
 100 -12 l 1
 585 828 l 1
EndSplineSet
EndChar

StartChar: zero
Encoding: 48 48 15
Width: 864
VWidth: 0
Flags: HW
HStem: -4 157<406.32 558.56> 622 161<406.32 558.56>
VStem: 176.5 122<281.459 495.999> 665.5 122<278.943 498.503>
LayerCount: 2
Fore
SplineSet
665.5 388 m 0
 665.5 517 584.5 622 482.5 622 c 0
 380.5 622 298.5 517 298.5 388 c 0
 298.5 258 380.5 153 482.5 153 c 0
 584.5 153 665.5 258 665.5 388 c 0
787.5 390 m 0
 787.5 172 651.5 -4 482.5 -4 c 0
 313.5 -4 176.5 172 176.5 390 c 0
 176.5 607 313.5 783 482.5 783 c 0
 651.5 783 787.5 607 787.5 390 c 0
EndSplineSet
EndChar

StartChar: one
Encoding: 49 49 16
Width: 436
VWidth: 0
Flags: HW
HStem: 8 21G<284 436> 764 20G<284 436>
VStem: 284 152<8 784>
LayerCount: 2
Fore
SplineSet
208 497 m 1
 100 604 l 1
 282 786 l 1
 284.018554688 784 l 1
 436 784 l 1
 436 8 l 1
 284 8 l 1
 284 573 l 1
 208 497 l 1
EndSplineSet
EndChar

StartChar: two
Encoding: 50 50 17
Width: 555
VWidth: 0
Flags: HW
HStem: 10 226<108.075 294.22> 596 128.801<108.091 284.536>
VStem: 409 153<334.465 487.36>
LayerCount: 2
Fore
SplineSet
180 596 m 0
 154.4453125 596 129.903320312 592.599609375 107 586.325195312 c 1
 107 719.06640625 l 1
 130.62890625 722.829101562 155.034179688 724.80078125 180 724.80078125 c 0
 391 724.80078125 562 584 562 410.400390625 c 0
 562 280.616210938 467.301757812 177.858398438 331.891601562 133.775390625 c 1
 607 136.400390625 l 1
 607 14.80078125 l 1
 104 10 l 1
 107 245.682617188 l 1
 129.903320312 239.401367188 154.4453125 236 180 236 c 0
 307 236 409 304.80078125 409 408.80078125 c 0
 409 512 307 596 180 596 c 0
EndSplineSet
EndChar

StartChar: three
Encoding: 51 51 18
Width: 435
VWidth: 0
Flags: HW
HStem: 3.87988 122.31<100 227.642> 298.149 122.641<151.207 248.605> 592.75 122.311<106 230.704>
VStem: 284 151<169.615 264.202 454.41 549.831>
LayerCount: 2
Fore
SplineSet
100 4.9296875 m 1
 100 128.7265625 l 1
 108.326171875 127.068359375 117.036132812 126.189453125 126 126.189453125 c 0
 214.59765625 126.189453125 284 164.260742188 284 212.049804688 c 0
 284 257.192382812 243.44921875 293.25 189.595703125 298.15234375 c 0
 185.422851562 297.991210938 181.223632812 297.91015625 177 297.91015625 c 0
 172.829101562 297.91015625 168.681640625 297.990234375 164.55859375 298.149414062 c 0
 159.943359375 297.72265625 155.41796875 297.061523438 151 296.1796875 c 1
 151 298.959960938 l 1
 151 419.979492188 l 1
 151 422.756835938 l 1
 155.41796875 421.876953125 159.943359375 421.216796875 164.557617188 420.790039062 c 0
 168.681640625 420.94921875 172.829101562 421.030273438 177 421.030273438 c 0
 181.224609375 421.030273438 185.423828125 420.948242188 189.59765625 420.787109375 c 0
 243.450195312 425.686523438 284 461.690429688 284 506.080078125 c 0
 284 554.6796875 217.233398438 592.75 132 592.75 c 0
 123.036132812 592.75 114.326171875 591.87109375 106 590.209960938 c 1
 106 714.009765625 l 1
 114.553710938 714.704101562 123.2265625 715.060546875 132 715.060546875 c 0
 299.94140625 715.060546875 435 621.91015625 435 506.080078125 c 0
 435 448.852539062 406.532226562 397.0390625 360.310546875 359.418945312 c 1
 406.532226562 321.696289062 435 269.680664062 435 212.049804688 c 0
 435 97.0302734375 297.267578125 3.8798828125 126 3.8798828125 c 0
 117.2265625 3.8798828125 108.553710938 4.2353515625 100 4.9296875 c 1
EndSplineSet
EndChar

StartChar: four
Encoding: 52 52 19
Width: 752
VWidth: 0
Flags: HW
HStem: 201.015 150<337.765 435.765> 764 20G<418.718 572.766>
VStem: 435.765 137.001<351.015 531.015> 443.764 129.002<10 202.015>
LayerCount: 2
Fore
SplineSet
435.764648438 351.014648438 m 1
 435.764648438 531.014648438 l 1
 337.764648438 354.014648438 l 1
 435.764648438 351.014648438 l 1
443.763671875 10 m 1
 443.763671875 202.014648438 l 1
 442.764648438 201.014648438 l 1
 107.764648438 201.014648438 l 1
 429.764648438 784 l 1
 572.765625 784 l 1
 572.765625 10 l 1
 443.763671875 10 l 1
EndSplineSet
EndChar

StartChar: five
Encoding: 53 53 20
Width: 384
VWidth: 0
Flags: HW
HStem: 13 151<100 190.529> 632 152<252 417>
VStem: 100 152<481.593 632> 233 151<206.066 335.061>
LayerCount: 2
Fore
SplineSet
100 14 m 1
 100 167 l 1
 108 165 117 164 126 164 c 0
 186 164 233 211 233 270 c 0
 233 330 186 377 126 377 c 0
 117 377 108 376 100 374 c 1
 100 407 l 1
 100 527 l 1
 100 783 l 1
 101 783 l 1
 101 784 l 1
 418 784 l 1
 417 632 l 1
 252 632 l 1
 252 495 l 1
 331 451 384 367 384 270 c 0
 384 128 269 13 126 13 c 0
 117 13 109 13 100 14 c 1
EndSplineSet
EndChar

StartChar: six
Encoding: 54 54 21
Width: 729
VWidth: 0
Flags: HW
HStem: 622 161<387.002 599.858>
VStem: 100 224<261.187 334.857> 542 167<205.982 333.016>
LayerCount: 2
Fore
SplineSet
432.955078125 376.982421875 m 0
 424.642578125 377.12890625 416.393554688 375.848632812 409 374 c 1
 409 374.828125 l 1
 359.8984375 364.9453125 324 322.4375 324 270 c 0
 324 234.543945312 340.973632812 203.420898438 367.541992188 184.228515625 c 0
 377.942382812 178.08203125 388.862304688 172.750976562 400.22265625 168.317382812 c 0
 403.096679688 167.485351562 406.024414062 166.767578125 409 166.169921875 c 1
 409 167 l 1
 416.393554688 165.151367188 424.642578125 164.157226562 432.955078125 164.017578125 c 0
 441.23046875 164.163085938 449.280273438 165.234375 457 167.131835938 c 1
 457 166.169921875 l 1
 506.1015625 176.0390625 542 218.436523438 542 270 c 0
 542 322.4375 506.1015625 364.9453125 457 374.828125 c 1
 457 373.864257812 l 1
 449.280273438 375.765625 441.23046875 376.836914062 432.955078125 376.982421875 c 0
482 622 m 0
 367.669921875 622 273.6015625 536.90625 255.969726562 425.8125 c 1
 299.354492188 473.500976562 360.4609375 504.749023438 429.12890625 509.397460938 c 0
 434.006835938 509.727539062 438.66015625 509.930664062 443.451171875 509.9765625 c 0
 444.631835938 509.98828125 445.815429688 510 447 510 c 0
 447.301757812 510 447.603515625 509.999023438 447.905273438 509.998046875 c 0
 448.92578125 510 449.956054688 510 451 510 c 0
 574.041992188 510 676.35546875 424.859375 702.516601562 310 c 0
 706.759765625 291.370117188 709 271.958007812 709 252 c 0
 709 224.854492188 704.797851562 198.6953125 697 174.138671875 c 0
 677.598632812 113.034179688 635.939453125 61.8447265625 581.387695312 30.041015625 c 0
 549.198242188 7.6923828125 515.973632812 -4 482 -4 c 0
 479.5859375 -4 477.176757812 -3.9765625 474.772460938 -3.9306640625 c 0
 466.946289062 -4.638671875 459.017578125 -5 451 -5 c 0
 449.956054688 -5 448.92578125 -4.998046875 447.90625 -4.998046875 c 0
 447.604492188 -4.998046875 447.301757812 -5 447 -5 c 0
 445.815429688 -5 444.631835938 -4.9921875 443.451171875 -4.9765625 c 0
 438.662109375 -4.9130859375 434.004882812 -4.794921875 429.133789062 -4.3974609375 c 0
 375.603515625 -0.0244140625 326.633789062 19.9453125 287.079101562 50.984375 c 1
 175.05859375 119.575195312 100 245.5703125 100 390 c 0
 100 607 271 783 482 783 c 0
 506.965820312 783 577.37109375 780.536132812 601 775.83203125 c 1
 601 609.90625 l 1
 578.096679688 617.749023438 507.5546875 622 482 622 c 0
EndSplineSet
EndChar

StartChar: seven
Encoding: 55 55 22
Width: 610
VWidth: 0
Flags: HW
HStem: 620 152<100 439>
LayerCount: 2
Fore
SplineSet
263 10 m 1
 101 10 l 1
 439 620 l 1
 100 620 l 1
 100 772 l 1
 610 772 l 1
 610 620 l 1
 263 10 l 1
EndSplineSet
EndChar

StartChar: eight
Encoding: 56 56 23
Width: 616
VWidth: 0
Flags: HW
HStem: 376.983 92.0348<336.347 383.638>
VStem: 100 151<207.14 334.826 510.772 638.449> 469 151<205.844 334.826 510.772 639.753>
LayerCount: 2
Fore
SplineSet
359.037109375 13.201171875 m 0
 358.771484375 13.201171875 358.505859375 13.2001953125 358.240234375 13.2001953125 c 0
 357.197265625 13.2001953125 356.15625 13.2060546875 355.116210938 13.220703125 c 0
 350.90234375 13.2607421875 346.8046875 13.380859375 342.518554688 13.7294921875 c 0
 224.077148438 21.744140625 131.200195312 119.6484375 131.200195312 239.359375 c 0
 131.200195312 289.814453125 147.467773438 336.307617188 175.0703125 373.905273438 c 1
 147.467773438 411.375976562 131.200195312 457.659179688 131.200195312 507.759765625 c 0
 131.200195312 628.3125 224.075195312 726.250976562 342.513671875 734.26953125 c 0
 346.801757812 734.619140625 350.901367188 734.73828125 355.116210938 734.779296875 c 0
 356.15625 734.793945312 357.197265625 734.799804688 358.240234375 734.799804688 c 0
 358.505859375 734.799804688 358.771484375 734.798828125 359.036132812 734.797851562 c 0
 359.934570312 734.799804688 360.840820312 734.799804688 361.759765625 734.799804688 c 0
 487.599609375 734.799804688 588.799804688 633.599609375 588.799804688 507.759765625 c 0
 588.799804688 457.659179688 572.532226562 411.375976562 544.9296875 373.905273438 c 1
 572.532226562 336.307617188 588.799804688 289.814453125 588.799804688 239.359375 c 0
 588.799804688 114.400390625 487.599609375 13.2001953125 361.759765625 13.2001953125 c 0
 360.840820312 13.2001953125 359.934570312 13.201171875 359.037109375 13.201171875 c 0
359.959960938 601.904296875 m 0
 352.64453125 601.78125 345.38671875 600.907226562 338.879882812 599.279296875 c 1
 338.879882812 600.008789062 l 1
 295.669921875 591.3125 264.080078125 553.904296875 264.080078125 507.759765625 c 0
 264.080078125 462.384765625 295.669921875 425.075195312 338.879882812 416.389648438 c 1
 338.879882812 417.120117188 l 1
 345.38671875 415.493164062 352.64453125 414.618164062 359.959960938 414.49609375 c 0
 367.2421875 414.624023438 374.327148438 415.565429688 381.120117188 417.236328125 c 1
 381.120117188 416.389648438 l 1
 424.330078125 425.075195312 455.919921875 462.384765625 455.919921875 507.759765625 c 0
 455.919921875 553.904296875 424.330078125 591.3125 381.120117188 600.008789062 c 1
 381.120117188 599.16015625 l 1
 374.327148438 600.833984375 367.2421875 601.776367188 359.959960938 601.904296875 c 0
359.959960938 333.504882812 m 0
 352.64453125 333.381835938 345.38671875 332.505859375 338.879882812 330.879882812 c 1
 338.879882812 331.609375 l 1
 295.669921875 322.912109375 264.080078125 285.504882812 264.080078125 239.359375 c 0
 264.080078125 193.984375 295.669921875 156.673828125 338.879882812 147.990234375 c 1
 338.879882812 148.720703125 l 1
 345.38671875 147.09375 352.64453125 146.21875 359.959960938 146.094726562 c 0
 367.243164062 146.223632812 374.327148438 147.166015625 381.120117188 148.8359375 c 1
 381.120117188 147.990234375 l 1
 424.330078125 156.673828125 455.919921875 193.984375 455.919921875 239.359375 c 0
 455.919921875 285.504882812 424.330078125 322.912109375 381.120117188 331.609375 c 1
 381.120117188 330.760742188 l 1
 374.327148438 332.434570312 367.243164062 333.375976562 359.959960938 333.504882812 c 0
EndSplineSet
EndChar

StartChar: nine
Encoding: 57 57 24
Width: 729
VWidth: 0
Flags: HW
HStem: -5 161<209.125 422.237> 763 20G<353.991 358.522 361.849 362.592>
VStem: 100 167<444.984 572.018> 485 224<279.5 518.141>
LayerCount: 2
Fore
SplineSet
376.044921875 401.017578125 m 0
 384.357421875 400.87109375 392.606445312 402.151367188 400 404 c 1
 400 403.171875 l 1
 449.1015625 413.0546875 485 455.5625 485 508 c 0
 485 543.456054688 468.026367188 574.579101562 441.458007812 593.771484375 c 0
 431.057617188 599.91796875 420.137695312 605.249023438 408.77734375 609.682617188 c 0
 405.903320312 610.514648438 402.975585938 611.232421875 400 611.830078125 c 1
 400 611 l 1
 392.606445312 612.848632812 384.357421875 613.842773438 376.044921875 613.982421875 c 0
 367.76953125 613.836914062 359.719726562 612.765625 352 610.868164062 c 1
 352 611.830078125 l 1
 302.8984375 601.9609375 267 559.563476562 267 508 c 0
 267 455.5625 302.8984375 413.0546875 352 403.171875 c 1
 352 404.135742188 l 1
 359.719726562 402.234375 367.76953125 401.163085938 376.044921875 401.017578125 c 0
327 156 m 0
 441.330078125 156 535.3984375 241.09375 553.030273438 352.1875 c 1
 509.645507812 304.499023438 448.5390625 273.250976562 379.87109375 268.602539062 c 0
 374.993164062 268.272460938 370.33984375 268.069335938 365.548828125 268.0234375 c 0
 364.368164062 268.01171875 363.184570312 268 362 268 c 0
 361.698242188 268 361.396484375 268.000976562 361.094726562 268.001953125 c 0
 360.07421875 268 359.043945312 268 358 268 c 0
 234.958007812 268 132.64453125 353.140625 106.483398438 468 c 0
 102.240234375 486.629882812 100 506.041992188 100 526 c 0
 100 553.145507812 104.202148438 579.3046875 112 603.861328125 c 0
 131.401367188 664.965820312 173.060546875 716.155273438 227.612304688 747.958984375 c 0
 259.801757812 770.307617188 293.026367188 782 327 782 c 0
 329.4140625 782 331.823242188 781.9765625 334.227539062 781.930664062 c 0
 342.053710938 782.638671875 349.982421875 783 358 783 c 0
 359.043945312 783 360.07421875 782.998046875 361.09375 782.998046875 c 0
 361.395507812 782.998046875 361.698242188 783 362 783 c 0
 363.184570312 783 364.368164062 782.9921875 365.548828125 782.9765625 c 0
 370.337890625 782.913085938 374.995117188 782.794921875 379.866210938 782.397460938 c 0
 433.396484375 778.024414062 482.366210938 758.0546875 521.920898438 727.015625 c 1
 633.94140625 658.424804688 709 532.4296875 709 388 c 0
 709 171 538 -5 327 -5 c 0
 302.034179688 -5 231.62890625 -2.5361328125 208 2.16796875 c 1
 208 168.09375 l 1
 230.903320312 160.250976562 301.4453125 156 327 156 c 0
EndSplineSet
EndChar

StartChar: colon
Encoding: 58 58 25
Width: 252
VWidth: 0
Flags: HW
HStem: 8 142<100 252> 408 142<100 252>
VStem: 100 152<8 150 408 550>
LayerCount: 2
Fore
SplineSet
100 8 m 1
 100 150 l 1
 252 150 l 1
 252 8 l 1
 100 8 l 1
100 408 m 1
 100 550 l 1
 252 550 l 1
 252 408 l 1
 100 408 l 1
EndSplineSet
EndChar

StartChar: semicolon
Encoding: 59 59 26
Width: 252
VWidth: 0
Flags: HW
HStem: 408 142<100 252>
VStem: 100 152<8 150 408 550>
LayerCount: 2
Fore
SplineSet
100 408 m 1
 100 550 l 1
 252 550 l 1
 252 408 l 1
 100 408 l 1
100 8 m 1
 100 150 l 1
 252 150 l 1
 252 8 l 1
 192 -124 l 1
 134 -120 l 1
 142.767578125 8 l 1
 100 8 l 1
EndSplineSet
EndChar

StartChar: less
Encoding: 60 60 27
Width: 644
VWidth: 0
Flags: HW
LayerCount: 2
Fore
SplineSet
644 556 m 1
 644 404 l 1
 429.895507812 347.71875 l 1
 644 306 l 1
 644 154 l 1
 100 260 l 1
 100 261 l 1
 100 412 l 1
 100 413 l 1
 644 556 l 1
EndSplineSet
EndChar

StartChar: equal
Encoding: 61 61 28
Width: 644
VWidth: 0
Flags: HW
HStem: 154 152<100 644> 404 152<100 644>
LayerCount: 2
Fore
SplineSet
644 556 m 1
 644 404 l 1
 100 404 l 1
 100 556 l 1
 644 556 l 1
644 306 m 1
 644 154 l 1
 100 154 l 1
 100 306 l 1
 644 306 l 1
EndSplineSet
EndChar

StartChar: greater
Encoding: 62 62 29
Width: 644
VWidth: 0
Flags: HW
LayerCount: 2
Fore
SplineSet
100 556 m 1
 644 413 l 1
 644 412 l 1
 644 261 l 1
 644 260 l 1
 100 154 l 1
 100 306 l 1
 314 348 l 1
 100 404 l 1
 100 556 l 1
EndSplineSet
EndChar

StartChar: question
Encoding: 63 63 30
Width: 384
VWidth: 0
Flags: HW
HStem: 8 142<100 252> 240 238<100 194.438> 688 151<100 190.529>
VStem: 100 152<8 150 240 369.991> 233 151<518.983 645.934>
LayerCount: 2
Fore
SplineSet
100 838 m 1
 109 839 117 839 126 839 c 0
 269 839 384 724 384 582 c 0
 384 484.831054688 330.901367188 400.58984375 252 356.573242188 c 1
 252 240 l 1
 100 240 l 1
 100 325 l 1
 100 450 l 1
 100 478 l 1
 108 476 117 475 126 475 c 0
 186 475 233 522 233 582 c 0
 233 641 186 688 126 688 c 0
 117 688 108 687 100 685 c 1
 100 838 l 1
100 8 m 1
 100 150 l 1
 252 150 l 1
 252 8 l 1
 100 8 l 1
EndSplineSet
EndChar

StartChar: at
Encoding: 64 64 31
Width: 864
VWidth: 0
Flags: HW
HStem: 249 75<481.227 523> 431 71<481.227 535>
VStem: 393 76<335.505 419.715> 535 83.0107<325.318 431> 535 76<328.62 431>
LayerCount: 2
Fore
SplineSet
611 246 m 1025xe8
574 176 m 1025xe0
537 238 m 1
 523 249 l 1
 451 249 393 306 393 378 c 0
 393 449 451 502 523 502 c 0
 527 502 531 502 535 502 c 2
 611 502 l 1
 618.010742188 328.353515625 l 2
 622.831054688 297.021484375 703.69921875 229.975585938 712 336 c 0
 711.986328125 337.467773438 707.7578125 350.56640625 708 352 c 0
 720 423 699 497 645 551 c 0
 555 641 409 638 318 547 c 0
 226 455 224 309 314 219 c 0
 384 149 488 135 574 176 c 0
 598 187 687 64 687 64 c 1
 535 -36 333 -22 203 108 c 0
 54 257 57 503 211 657 c 0
 364 810 610 814 759 665 c 0
 873 551 900 372 837 230 c 1
 729.654296875 167.57421875 634.088867188 209.5390625 537 238 c 1
535 430 m 1
 531 431 527 431 523 431 c 0
 493 431 469 408 469 378 c 0
 469 348 493 324 523 324 c 0
 527 324 531 325 535 326 c 1
 535 430 l 1
EndSplineSet
EndChar

StartChar: A
Encoding: 65 65 32
Width: 752
VWidth: 0
Flags: HW
HStem: 237 140<347.449 456.827>
LayerCount: 2
Fore
SplineSet
456.827148438 377 m 1
 407.200195312 545.223632812 l 1
 347.448242188 377 l 1
 456.827148438 377 l 1
600 10 m 1
 511 238.13671875 l 1
 511 237 l 1
 311.038085938 237 l 1
 252 10 l 1
 100 10 l 1
 316 779 l 1
 468 779 l 1
 752 10 l 1
 600 10 l 1
EndSplineSet
EndChar

StartChar: B
Encoding: 66 66 33
Width: 512
VWidth: 0
Flags: HW
HStem: 14 129<252.375 340.409> 356 105<252.375 340.409> 674 116<252.375 340.409>
VStem: 100 152<143.026 355.974 461.026 673.974 789.664 790> 383 151<186.465 313.767 502.806 620.788>
LayerCount: 2
Fore
SplineSet
252 464 m 1
 260 462 268 461 276 461 c 0
 336 461 383 508 383 567 c 0
 383 627 336 674 276 674 c 0
 268 674 260 673 252 671 c 1
 252 464 l 1
252 146 m 1
 260 144 268 143 276 143 c 0
 336 143 383 190 383 249 c 0
 383 309 336 356 276 356 c 0
 268 356 260 355 252 353 c 1
 252 146 l 1
252 790 m 1
 252 789.6640625 l 1
 257.96484375 790 263.740234375 790 270 790 c 0
 413 790 528 675 528 532 c 0
 528 481.500976562 470 439 445 406 c 1
 474 371 534 324.768554688 534 270 c 0
 534 128 419 13 276 13 c 0
 268 13 260 13 252 14 c 2
 100 14 l 1
 100 790 l 1
 252 790 l 1
EndSplineSet
EndChar

StartChar: C
Encoding: 67 67 34
Width: 555
VWidth: 0
Flags: HW
HStem: -4 157<387.027 553.909> 622 161<387.027 553.909>
VStem: 100 153<291.299 486.2>
LayerCount: 2
Fore
SplineSet
482 622 m 0
 355 622 253 517 253 388 c 0
 253 258 355 153 482 153 c 0
 507.5546875 153 532.096679688 157.250976562 555 165.102539062 c 1
 555 3.169921875 l 1
 531.37109375 -1.5361328125 506.965820312 -4 482 -4 c 0
 271 -4 100 172 100 390 c 0
 100 607 271 783 482 783 c 0
 506.965820312 783 531.37109375 780.536132812 555 775.83203125 c 1
 555 609.90625 l 1
 532.096679688 617.749023438 507.5546875 622 482 622 c 0
EndSplineSet
EndChar

StartChar: D
Encoding: 68 68 35
Width: 630
VWidth: 0
Flags: HW
HStem: -3.9789 157.014<252 337.489> 621.965 161.035<252 343.477>
VStem: 100 152<-4 -3.9789 153.035 621.965> 477 153<292.064 485.736>
LayerCount: 2
Fore
SplineSet
252 153.03515625 m 1
 377.134765625 155.211914062 477 259.368164062 477 388 c 0
 477 515.642578125 377.134765625 619.788085938 252 621.96484375 c 1
 252 153.03515625 l 1
100 778 m 1
 149.62109375 770.911132812 198.3828125 783 248 783 c 0
 459 783 630 607 630 390 c 0
 630 173.37890625 461.157226562 -1.771484375 252 -3.978515625 c 2
 100 -4 l 1
 100 778 l 1
EndSplineSet
EndChar

StartChar: E
Encoding: 69 69 36
Width: 668
VWidth: 0
Flags: HW
HStem: 7 152<252 667> 343 152<252 559> 636 152<252 667>
VStem: 100 568<7 159 636 788> 100 152<159 343 495 636>
LayerCount: 2
Fore
SplineSet
559 495 m 1
 560 343 l 1
 252 343 l 1
 252 159 l 1
 667 159 l 1
 668 7 l 1
 101 7 l 1
 100.993164062 8 l 1
 100 8 l 1
 100 784 l 1
 100.026367188 784 l 1
 100 788 l 1
 667 788 l 1
 668 636 l 1
 252 636 l 1
 252 495 l 1
 559 495 l 1
EndSplineSet
EndChar

StartChar: F
Encoding: 70 70 37
Width: 668
VWidth: 0
Flags: HW
HStem: 8 21G<100 252> 343 152<252 559> 636 152<252 667>
VStem: 100 152<8 343 495 636>
LayerCount: 2
Fore
SplineSet
559 495 m 1
 560 343 l 1
 252 343 l 1
 252 8 l 1
 100 8 l 1
 100 784 l 1
 100.026367188 784 l 1
 100 788 l 1
 667 788 l 1
 668 636 l 1
 252 636 l 1
 252 495 l 1
 559 495 l 1
EndSplineSet
EndChar

StartChar: G
Encoding: 71 71 38
Width: 651
VWidth: 0
Flags: HW
HStem: -4 157<387.532 499> 622 161<387.027 553.909>
VStem: 100 153<291.299 486.2> 499 152<-4 -3.6178 153 323>
LayerCount: 2
Fore
SplineSet
482 622 m 0
 355 622 253 517 253 388 c 0
 253 258 355 153 482 153 c 0
 487.719726562 153 493.388671875 153.212890625 499 153.631835938 c 1
 499 323 l 1
 651 323 l 1
 651 -4 l 1
 499 -4 l 1
 499 -3.6181640625 l 1
 493.364257812 -3.8720703125 487.696289062 -4 482 -4 c 0
 271 -4 100 172 100 390 c 0
 100 607 271 783 482 783 c 0
 506.965820312 783 531.37109375 780.536132812 555 775.83203125 c 1
 555 609.90625 l 1
 532.096679688 617.749023438 507.5546875 622 482 622 c 0
EndSplineSet
EndChar

StartChar: H
Encoding: 72 72 39
Width: 652
VWidth: 0
Flags: HW
HStem: 8 21G<100 252 500 652> 343 152<252 500> 764 20G<100 252 500 652>
VStem: 100 152<8 343 495 784> 500 152<8 343 495 784>
LayerCount: 2
Fore
SplineSet
500 784 m 1
 652 784 l 1
 652 8 l 1
 500 8 l 1
 500 343 l 1
 252 343 l 1
 252 8 l 1
 100 8 l 1
 100 784 l 1
 252 784 l 1
 252 495 l 1
 500 495 l 1
 500 784 l 1
EndSplineSet
EndChar

StartChar: I
Encoding: 73 73 40
Width: 252
VWidth: 0
Flags: HW
HStem: 8 21G<100 252> 764 20G<100 252>
VStem: 100 152<8 784>
LayerCount: 2
Fore
SplineSet
100 784 m 1
 252 784 l 1
 252 8 l 1
 100 8 l 1
 100 784 l 1
EndSplineSet
EndChar

StartChar: J
Encoding: 74 74 41
Width: 419
VWidth: 0
Flags: HW
HStem: 7 151<105.445 235.159> 751 20G<252 419>
VStem: 252 164<178.881 771>
LayerCount: 2
Fore
SplineSet
100 16 m 1
 100 184 l 1
 119 168 144 158 171 158 c 0
 204 158 232 172 252 195 c 1
 252 771 l 1
 419 771 l 1
 416 194 l 1
 385 85 289 7 171 7 c 0
 146 7 123 10 100 16 c 1
EndSplineSet
EndChar

StartChar: K
Encoding: 75 75 42
Width: 703
VWidth: 0
Flags: HW
HStem: 8 20G<100 252 561 736.026> 764 20G<100 252>
VStem: 100 152<8 228.505 442.895 784>
LayerCount: 2
Fore
SplineSet
100 784 m 1
 252 784 l 1
 252 442.89453125 l 1
 497 780 l 1
 683 778 l 1
 422 397 l 1
 753 7 l 1
 561 8 l 1
 309.208007812 311.887695312 l 1
 252 228.504882812 l 1
 252 8 l 1
 100 8 l 1
 100 784 l 1
EndSplineSet
EndChar

StartChar: L
Encoding: 76 76 43
Width: 718
VWidth: 0
Flags: HW
HStem: 7 152<252 717> 764 20G<100 252>
VStem: 100 152<159 784>
LayerCount: 2
Fore
SplineSet
100 784 m 1
 252 784 l 1
 252 159 l 1
 717 159 l 1
 718 7 l 1
 101 7 l 1
 100.993164062 8 l 1
 100 8 l 1
 100 784 l 1
EndSplineSet
EndChar

StartChar: M
Encoding: 77 77 44
Width: 1052
VWidth: 0
Flags: HW
HStem: 8 21G<100 252 900 1052>
VStem: 100 152<8 486.16> 900 152<8 486.16>
LayerCount: 2
Fore
SplineSet
100 778 m 1
 252 778 l 1
 576 155.919921875 l 1
 900 778 l 1
 1052 778 l 1
 1052 8 l 1
 900 8 l 1
 900 486.16015625 l 1
 652 10 l 1
 500 10 l 1
 252 486.16015625 l 1
 252 8 l 1
 100 8 l 1
 100 778 l 1
EndSplineSet
EndChar

StartChar: N
Encoding: 78 78 45
Width: 852
VWidth: 0
Flags: HW
HStem: 8 21G<100 252 682.937 852> 764 20G<100 269.116 700 852>
VStem: 100 152<8 533.101> 700 152<260.522 784>
LayerCount: 2
Fore
SplineSet
100 784 m 1
 252 784 l 1
 700 260.521484375 l 1
 700 784 l 1
 852 784 l 1
 852 8 l 1
 700 8 l 1
 252 533.1015625 l 1
 252 8 l 1
 100 8 l 1
 100 784 l 1
EndSplineSet
EndChar

StartChar: O
Encoding: 79 79 46
Width: 864
VWidth: 0
Flags: HW
HStem: -4 157<387.027 576.973> 622 161<387.027 576.973>
VStem: 100 153<288.712 488.774> 711 153<288.712 488.774>
LayerCount: 2
Fore
SplineSet
711 388 m 0
 711 517 609 622 482 622 c 0
 355 622 253 517 253 388 c 0
 253 258 355 153 482 153 c 0
 609 153 711 258 711 388 c 0
864 390 m 0
 864 172 693 -4 482 -4 c 0
 271 -4 100 172 100 390 c 0
 100 607 271 783 482 783 c 0
 693 783 864 607 864 390 c 0
EndSplineSet
EndChar

StartChar: P
Encoding: 80 80 47
Width: 534
VWidth: 0
Flags: HW
HStem: 275 151<252 340.529> 639 150<252.375 340.409>
VStem: 100 152<13 276 426.026 638.974> 383 151<468.471 596.934>
LayerCount: 2
Fore
SplineSet
252 636 m 1
 252 429 l 1
 260 427 268 426 276 426 c 0
 336 426 383 473 383 533 c 0
 383 592 336 639 276 639 c 0
 268 639 260 638 252 636 c 1
252 13 m 1
 100 13 l 1
 100 789 l 1
 252 789 l 2
 260 790 268 790 276 790 c 0
 419 790 534 675 534 533 c 0
 534 390 419 275 276 275 c 0
 268 275 260 275 252 276 c 1
 252 13 l 1
EndSplineSet
EndChar

StartChar: Q
Encoding: 81 81 48
Width: 864
VWidth: 0
Flags: HW
HStem: -4 157<387.027 563.045> 622 161<387.027 576.973>
VStem: 100 153<291.299 486.2> 711 153<290.102 486.2>
LayerCount: 2
Fore
SplineSet
864 390 m 0
 864 272.352539062 814.198242188 166.9375 735.18359375 94.81640625 c 1
 872 -42 l 1
 734 -181 l 1
 550.666015625 2.333984375 l 1
 528.390625 -1.8271484375 505.442382812 -4 482 -4 c 0
 271 -4 100 172 100 390 c 0
 100 607 271 783 482 783 c 0
 693 783 864 607 864 390 c 0
711 388 m 0
 711 517 609 622 482 622 c 0
 355 622 253 517 253 388 c 0
 253 258 355 153 482 153 c 0
 609 153 711 258 711 388 c 0
EndSplineSet
EndChar

StartChar: R
Encoding: 82 82 49
Width: 512
VWidth: 0
Flags: HW
HStem: 7 21G<409.703 562> 639 150<252.375 340.409>
VStem: 100 152<13 276 426.026 638.974> 383 151<470.25 596.934>
LayerCount: 2
Fore
SplineSet
252 13 m 1
 100 13 l 1
 100 789 l 1
 252 789 l 2
 260 790 268 790 276 790 c 0
 419 790 534 675 534 533 c 0
 534 420.658203125 463.024414062 325.596679688 363.254882812 290 c 1
 562 7 l 1
 422 7 l 1
 256.913085938 275.502929688 l 2
 255.275390625 275.6328125 253.637695312 275.794921875 252 276 c 1
 252 13 l 1
252 636 m 1
 252 429 l 1
 260 427 268 426 276 426 c 0
 336 426 383 473 383 533 c 0
 383 592 336 639 276 639 c 0
 268 639 260 638 252 636 c 1
EndSplineSet
EndChar

StartChar: S
Encoding: 83 83 50
Width: 512
VWidth: 0
Flags: HW
LayerCount: 2
Fore
SplineSet
105 67 m 1
 180 192 l 1
 186 187 192 182 202 177 c 0
 253 147 317 164 347 212 c 0
 379 268 329 316 277 325 c 1
 151 393 67 508 151 649 c 0
 221 765 378 804 503 737 c 0
 509 731 517 728 524 722 c 1
 449 597 l 1
 443 602 437 607 427 612 c 0
 376 640 312 624 282 575 c 0
 249 520 282 439 346 428 c 1
 463 365 562 280 477 140 c 0
 408 23 251 -16 126 52 c 0
 120 58 112 61 105 67 c 1
EndSplineSet
EndChar

StartChar: T
Encoding: 84 84 51
Width: 676
VWidth: 0
Flags: HW
HStem: 8 21G<315 467> 624 152<103 315 467 679>
VStem: 315 152<8 624>
LayerCount: 2
Fore
SplineSet
103 624 m 1
 103 776 l 1
 679 776 l 1
 679 624 l 1
 467 624 l 1
 467 8 l 1
 315 8 l 1
 315 624 l 1
 103 624 l 1
EndSplineSet
EndChar

StartChar: U
Encoding: 85 85 52
Width: 669
VWidth: 0
Flags: HW
HStem: 751 20G<100 267 502 669>
VStem: 103 164<182.77 771> 502 164<182.95 771>
LayerCount: 2
Fore
SplineSet
666 194 m 1
 597.931640625 -45.4130859375 172.236328125 -49.4453125 103 194 c 1
 100 771 l 1
 267 771 l 1
 267 195 l 1
 305.237304688 151.02734375 464.430664062 149.916992188 502 195 c 1
 502 771 l 1
 669 771 l 1
 666 194 l 1
EndSplineSet
EndChar

StartChar: V
Encoding: 86 86 53
Width: 652
VWidth: 0
Flags: HW
LayerCount: 2
Fore
SplineSet
100 779 m 1
 252 779 l 1
 376 302.219726562 l 1
 500 779 l 1
 652 779 l 1
 452 10 l 1
 300 10 l 1
 100 779 l 1
EndSplineSet
EndChar

StartChar: W
Encoding: 87 87 54
Width: 1000
VWidth: 0
Flags: HW
LayerCount: 2
Fore
SplineSet
100 779 m 1
 252 779 l 1
 376 302.219726562 l 1
 500 779 l 1
 501 779 l 1
 652 779 l 1
 653 779 l 1
 777 302 l 1
 901 779 l 1
 1053 779 l 1
 853 10 l 1
 701 10 l 1
 576.5 488.702148438 l 1
 452 10 l 1
 300 10 l 1
 100 779 l 1
EndSplineSet
EndChar

StartChar: X
Encoding: 88 88 55
Width: 724
VWidth: 0
Flags: HW
HStem: 9 20G<112.61 279 537.368 724>
LayerCount: 2
Fore
SplineSet
100 780 m 1
 286 778 l 1
 415.55078125 550.842773438 l 1
 548 779 l 1
 723 778 l 1
 502.728515625 397.982421875 l 1
 724 10 l 1
 549 8 l 1
 412.609375 242.506835938 l 1
 279 12 l 1
 101 9 l 1
 324.5 394 l 1
 100 780 l 1
EndSplineSet
EndChar

StartChar: Y
Encoding: 89 89 56
Width: 512
VWidth: 0
Flags: HW
VStem: 243 152<11 460>
LayerCount: 2
Fore
SplineSet
243 461 m 1
 243.365234375 461 l 1
 44 775 l 1
 196 775 l 1
 320 604 l 1
 444 775 l 1
 596 775 l 1
 396 460 l 1
 395 460 l 1
 395 11 l 1
 243 11 l 1
 243 461 l 1
EndSplineSet
EndChar

StartChar: Z
Encoding: 90 90 57
Width: 783
VWidth: 0
Flags: HW
HStem: 20 152<351 783> 620 152<100 530>
LayerCount: 2
Fore
SplineSet
100 20 m 1
 100 172 l 1
 530 620 l 1
 100 620 l 1
 100 772 l 1
 783 772 l 1
 783 620 l 1
 351 172 l 1
 783 172 l 1
 783 20 l 1
 100 20 l 1
EndSplineSet
EndChar

StartChar: bracketleft
Encoding: 91 91 58
Width: 362
VWidth: 0
Flags: HW
HStem: -70 85<194 361> 699 85<194 361>
VStem: 100 262<-70 15 699 784> 100 94<15 699>
LayerCount: 2
Fore
SplineSet
101 -70 m 1
 100 -70 l 1
 100 -69 l 1
 100 783 l 1
 100 784 l 1
 101 784 l 1
 362 784 l 1
 361 699 l 1
 194 699 l 1
 194 15 l 1
 361 15 l 1
 362 -70 l 1
 101 -70 l 1
EndSplineSet
EndChar

StartChar: backslash
Encoding: 92 92 59
Width: 691
VWidth: 0
Flags: HW
LayerCount: 2
Fore
SplineSet
206 828 m 1
 691 -12 l 1
 585 -73 l 1
 100 767 l 1
 206 828 l 1
EndSplineSet
EndChar

StartChar: bracketright
Encoding: 93 93 60
Width: 362
VWidth: 0
Flags: HW
HStem: -71 85<101 268> 699 85<101 268>
VStem: 100 262<-71 14 699 784> 268 94<14 699>
LayerCount: 2
Fore
SplineSet
361 -71 m 1
 100 -71 l 1
 101 14 l 1
 268 14 l 1
 268 699 l 1
 101 699 l 1
 100 784 l 1
 361 784 l 1
 362 784 l 1
 362 783 l 1
 362 -70 l 1
 362 -71 l 1
 361 -71 l 1
EndSplineSet
EndChar

StartChar: asciicircum
Encoding: 94 94 61
Width: 644
VWidth: 0
Flags: HW
LayerCount: 2
Fore
SplineSet
171 293 m 1
 314 627 l 1
 315 627 l 1
 466 627 l 1
 467 627 l 1
 573 293 l 1
 421 293 l 1
 379 507 l 1
 323 293 l 1
 171 293 l 1
EndSplineSet
EndChar

StartChar: underscore
Encoding: 95 95 62
Width: 544
VWidth: 0
Flags: HW
HStem: 54 152<50 594>
LayerCount: 2
Fore
SplineSet
594 206 m 1
 594 54 l 1
 50 54 l 1
 50 206 l 1
 594 206 l 1
EndSplineSet
EndChar

StartChar: grave
Encoding: 96 96 63
Width: 252
VWidth: 0
Flags: HW
HStem: 526 289
VStem: 31 290
LayerCount: 2
Fore
SplineSet
213 526 m 1
 31 708 l 1
 139 815 l 1
 321 633 l 1
 213 526 l 1
EndSplineSet
EndChar

StartChar: a
Encoding: 97 97 64
Width: 512
VWidth: 0
Flags: HW
HStem: 18 151<293.471 382> 382 143<293.351 381.625>
VStem: 100 151<211.471 339.671> 382 152<11 19 169.012 381.988>
LayerCount: 2
Fore
SplineSet
382 379 m 1
 374 381 366 382 358 382 c 0
 298 382 251 335 251 276 c 0
 251 216 298 169 358 169 c 0
 366 169 374 170 382 172 c 1
 382 379 l 1
382 11 m 1
 382 19 l 1
 374 18 366 18 358 18 c 0
 215 18 100 133 100 276 c 0
 100 418 215 525 358 525 c 0
 366 525 374 525 382 524 c 2
 534 524 l 1
 534 11 l 1
 382 11 l 1
EndSplineSet
EndChar

StartChar: b
Encoding: 98 98 65
Width: 512
VWidth: 0
Flags: HW
HStem: 14 150<252.375 340.649> 377 151<252 340.529>
VStem: 100 152<164.012 376.988 527 790> 383 151<206.066 334.529>
LayerCount: 2
Fore
SplineSet
252 167 m 1
 260 165 268 164 276 164 c 0
 336 164 383 211 383 270 c 0
 383 330 336 377 276 377 c 0
 268 377 260 376 252 374 c 1
 252 167 l 1
252 790 m 1
 252 527 l 1
 260 528 268 528 276 528 c 0
 419 528 534 413 534 270 c 0
 534 128 419 13 276 13 c 0
 268 13 260 13 252 14 c 2
 100 14 l 1
 100 790 l 1
 252 790 l 1
EndSplineSet
EndChar

StartChar: c
Encoding: 99 99 66
Width: 384
VWidth: 0
Flags: HW
HStem: 13 151<293.471 384> 377 151<293.471 384>
VStem: 100 151<206.066 334.529>
LayerCount: 2
Fore
SplineSet
384 14.2958984375 m 1
 375.446289062 13.4384765625 366.7734375 13 358 13 c 0
 215 13 100 128 100 270 c 0
 100 413 215 528 358 528 c 0
 366.7734375 528 375.446289062 527.560546875 384 526.704101562 c 1
 384 373.864257812 l 1
 375.673828125 375.915039062 366.963867188 377 358 377 c 0
 298 377 251 330 251 270 c 0
 251 211 298 164 358 164 c 0
 366.963867188 164 375.673828125 165.084960938 384 167.131835938 c 1
 384 14.2958984375 l 1
EndSplineSet
EndChar

StartChar: d
Encoding: 100 100 67
Width: 512
VWidth: 0
Flags: HW
HStem: 13 151<292.454 382> 377 151<293.471 382>
VStem: 100 151<206.066 334.529> 382 152<14 14.1035 164.011 376.989 526.896 790>
LayerCount: 2
Fore
SplineSet
382 166.66015625 m 1
 382 374.336914062 l 1
 374.282226562 376.081054688 366.249023438 377 358 377 c 0
 298 377 251 330 251 270 c 0
 251 211 298 164 358 164 c 0
 366.249023438 164 374.282226562 164.918945312 382 166.66015625 c 1
382 790 m 1
 534 790 l 1
 534 14 l 1
 382 14 l 1
 382 14.103515625 l 1
 374.095703125 13.373046875 366.08984375 13 358 13 c 0
 215 13 100 128 100 270 c 0
 100 413 215 528 358 528 c 0
 366.08984375 528 374.095703125 527.626953125 382 526.896484375 c 1
 382 790 l 1
EndSplineSet
EndChar

StartChar: e
Encoding: 101 101 68
Width: 617
VWidth: 0
Flags: HW
HStem: 13 151<293.073 606.239> 215.32 128.941<280.301 437.264> 377 151<292.682 422.767>
VStem: 100 517<218.188 340.811>
LayerCount: 2
Fore
SplineSet
260.680664062 306.67578125 m 1
 456.883789062 304.1015625 l 1
 432.395507812 330.966796875 397.046875 385.099609375 357.8046875 385.099609375 c 0
 319.188476562 385.099609375 284.879882812 332.025390625 260.680664062 306.67578125 c 1
616 270 m 0
 616 251.328125 617 233 617 218 c 1
 265.985351562 215.3203125 l 1
 284.489257812 184.45703125 318.416015625 164 358 164 c 0
 372.516601562 164 594 167 607 172 c 1
 607 16 l 1
 594 14 371.946289062 13 358 13 c 0
 215 13 100 128 100 270 c 0
 100 413 215 528 358 528 c 0
 500 528 616 413 616 270 c 0
EndSplineSet
EndChar

StartChar: f
Encoding: 102 102 69
Width: 512
VWidth: 0
Flags: HW
HStem: 7 21G<195 362> 369 152<100 196.882 362 459> 620 151<378.841 508.555>
VStem: 195 167<7 369 521 599.119>
LayerCount: 2
Fore
SplineSet
514 762 m 1
 514 594 l 1
 495 610 470 620 443 620 c 0
 410 620 382 606 362 583 c 1
 362 521 l 1
 459 521 l 1
 459 369 l 1
 362 369 l 1
 362 7 l 1
 195 7 l 1
 196.881835938 369 l 1
 100 369 l 1
 100 521 l 1
 197.672851562 521 l 1
 198 584 l 1
 229 693 325 771 443 771 c 0
 468 771 491 768 514 762 c 1
EndSplineSet
EndChar

StartChar: g
Encoding: 103 103 70
Width: 620
VWidth: 0
Flags: HW
HStem: -195 151<179.297 449.488> 508 20G<357.408 358.151 361.478 433.333>
VStem: 100 151<207.15 333.449> 469 151<-23.1189 35.9655 205.937 334.857>
LayerCount: 2
Fore
SplineSet
358.90625 13.001953125 m 0
 358.603515625 13.001953125 358.301757812 13 358 13 c 0
 356.815429688 13 355.631835938 13.0078125 354.451171875 13.0234375 c 0
 353.723632812 13.0302734375 352.28515625 13.03515625 350.349609375 13.041015625 c 0
 339.5390625 13.0732421875 313.241210938 13.1513671875 309 14 c 0
 175 23 100 133.96484375 100 270 c 0
 100 406.991210938 205.5390625 518.286132812 340.12890625 527.397460938 c 0
 345.001953125 527.794921875 349.66015625 527.930664062 354.451171875 527.9765625 c 0
 355.631835938 527.9921875 356.815429688 528 358 528 c 0
 358.301757812 528 358.603515625 527.999023438 358.905273438 527.998046875 c 0
 359.92578125 528 360.956054688 528 362 528 c 0
 504.666015625 528 619.463867188 413.536132812 619.998046875 271 c 2
 619.999023438 270.868164062 l 2
 620 270.579101562 620 270.290039062 620 270 c 0
 620 267.823242188 619.97265625 265.65234375 619.918945312 263.48828125 c 2
 617 -8 l 1
 586 -117 493 -195 375 -195 c 0
 350 -195 193 -192 170 -186 c 1
 170 -18 l 1
 189 -34 348 -44 375 -44 c 0
 408 -44 449 -30 469 -7 c 1
 469 35.9658203125 l 1
 436.44140625 21.21484375 400.220703125 13 362 13 c 0
 360.956054688 13 359.92578125 13.001953125 358.90625 13.001953125 c 0
359.955078125 376.982421875 m 0
 351.641601562 376.842773438 343.393554688 375.848632812 336 374 c 1
 336 374.828125 l 1
 286.8984375 364.9453125 251 322.4375 251 270 c 0
 251 218.436523438 286.8984375 176.0390625 336 166.169921875 c 1
 336 167 l 1
 343.393554688 165.151367188 351.641601562 164.157226562 359.955078125 164.017578125 c 0
 368.23046875 164.163085938 376.280273438 165.234375 384 167.131835938 c 1
 384 166.169921875 l 1
 433.1015625 176.0390625 469 218.436523438 469 270 c 0
 469 322.4375 433.1015625 364.9453125 384 374.828125 c 1
 384 373.864257812 l 1
 376.280273438 375.765625 368.23046875 376.836914062 359.955078125 376.982421875 c 0
EndSplineSet
EndChar

StartChar: h
Encoding: 104 104 71
Width: 597
VWidth: 0
Flags: HW
HStem: 383 151<283.435 413.159>
VStem: 100 169<16 365.866 522 778> 430 167<16 362.119>
LayerCount: 2
Fore
SplineSet
100 778 m 1
 269 778 l 1
 269 522 l 1
 295 530 321 534 349 534 c 0
 467 534 563 456 594 347 c 1
 597 16 l 1
 430 16 l 1
 430 346 l 1
 410 369 382 383 349 383 c 0
 317 383 289 370 269 348 c 1
 269 16 l 1
 100 16 l 1
 100 778 l 1
EndSplineSet
EndChar

StartChar: i
Encoding: 105 105 72
Width: 252
VWidth: 0
Flags: HW
HStem: 8 21G<100 252> 502 20G<100 252> 640 142<100 252>
VStem: 100 152<8 522 640 782>
LayerCount: 2
Fore
SplineSet
100 782 m 1
 252 782 l 1
 252 640 l 1
 100 640 l 1
 100 782 l 1
100 522 m 1
 252 522 l 1
 252 8 l 1
 100 8 l 1
 100 522 l 1
EndSplineSet
EndChar

StartChar: j
Encoding: 106 106 73
Width: 419
VWidth: 0
Flags: HW
HStem: -194 151<105.445 235.159> 507 20G<252 419> 640 142<264 416>
VStem: 252 164<-22.1189 527> 264 152<640 782>
LayerCount: 2
Fore
SplineSet
264 782 m 1
 416 782 l 1
 416 640 l 1
 264 640 l 1
 264 782 l 1
100 -185 m 1
 100 -17 l 1
 119 -33 144 -43 171 -43 c 0
 204 -43 232 -29 252 -6 c 1
 252 527 l 1
 419 527 l 1
 416 -7 l 1
 385 -116 289 -194 171 -194 c 0
 146 -194 123 -191 100 -185 c 1
EndSplineSet
EndChar

StartChar: k
Encoding: 107 107 74
Width: 753
VWidth: 0
Flags: HW
HStem: 8 20G<111 252 513 680.185> 764 20G<111 252>
VStem: 111 141<8 164 327 784>
LayerCount: 2
Fore
SplineSet
111 762 m 1
 252 762 l 1
 252 327 l 1
 497 524 l 1
 690 522 l 1
 429 294 l 1
 699 7 l 1
 513 8 l 1
 309 236 l 1
 252 164 l 1
 252 8 l 1
 111 8 l 1
 111 762 l 1
EndSplineSet
EndChar

StartChar: l
Encoding: 108 108 75
Width: 419
VWidth: 0
Flags: HW
HStem: 7 151<283.008 413.885> 751 20G<100 267>
VStem: 103 164<176.215 771>
LayerCount: 2
Fore
SplineSet
419 16 m 1
 396.333007812 10 372.666992188 7 348 7 c 0
 290 7 238.666992188 24.3330078125 194 59 c 0
 149.333007812 93.6669921875 119 138.666992188 103 194 c 1
 100 771 l 1
 267 771 l 1
 267 195 l 1
 288.333007812 170.333007812 315.333007812 158 348 158 c 0
 374.666992188 158 398.333007812 166.666992188 419 184 c 1
 419 16 l 1
EndSplineSet
EndChar

StartChar: m
Encoding: 109 109 76
Width: 924
VWidth: 0
Flags: HW
HStem: 383 151<282.824 414.747 609.824 740.715>
VStem: 100 169<16 366.608 522 532> 430 166<16 365.109> 757 167<16 362.119>
LayerCount: 2
Fore
SplineSet
100 532 m 1
 269 532 l 1
 269 522 l 1
 295 530 321 534 349 534 c 0
 410.004882812 534 465.129882812 513.15234375 508.432617188 477.951171875 c 1
 596 522 l 1
 622 530 648 534 676 534 c 0
 794 534 890 456 921 347 c 1
 924 16 l 1
 757 16 l 1
 757 346 l 1
 737 369 709 383 676 383 c 0
 644 383 616 370 596 348 c 1
 596 126.333007812 l 1
 597 16 l 1
 596 16 l 1
 430 16 l 1
 427 16 l 1
 430 333.25 l 1
 430 346 l 1
 410 369 382 383 349 383 c 0
 317 383 289 370 269 348 c 1
 269 16 l 1
 100 16 l 1
 100 532 l 1
EndSplineSet
EndChar

StartChar: n
Encoding: 110 110 77
Width: 597
VWidth: 0
Flags: HW
HStem: 383 151<282.824 413.715>
VStem: 100 169<16 366.608 522 532> 430 167<16 362.119>
LayerCount: 2
Fore
SplineSet
100 532 m 1
 269 532 l 1
 269 522 l 1
 295 530 321 534 349 534 c 0
 467 534 563 456 594 347 c 1
 597 16 l 1
 430 16 l 1
 430 346 l 1
 410 369 382 383 349 383 c 0
 317 383 289 370 269 348 c 1
 269 16 l 1
 100 16 l 1
 100 532 l 1
EndSplineSet
EndChar

StartChar: o
Encoding: 111 111 78
Width: 616
VWidth: 0
Flags: HW
HStem: 13 21G<357.408 358.151 361.478 433.5> 508 20G<357.408 358.151 361.478 433.5>
VStem: 100 151<207.14 333.449> 469 151<205.844 334.753>
LayerCount: 2
Fore
SplineSet
359.955078125 376.982421875 m 0
 351.641601562 376.842773438 343.393554688 375.848632812 336 374 c 1
 336 374.828125 l 1
 286.8984375 364.9453125 251 322.4375 251 270 c 0
 251 218.436523438 286.8984375 176.0390625 336 166.169921875 c 1
 336 167 l 1
 343.393554688 165.151367188 351.641601562 164.157226562 359.955078125 164.017578125 c 0
 368.23046875 164.163085938 376.280273438 165.234375 384 167.131835938 c 1
 384 166.169921875 l 1
 433.1015625 176.0390625 469 218.436523438 469 270 c 0
 469 322.4375 433.1015625 364.9453125 384 374.828125 c 1
 384 373.864257812 l 1
 376.280273438 375.765625 368.23046875 376.836914062 359.955078125 376.982421875 c 0
358.90625 13.001953125 m 0
 358.603515625 13.001953125 358.301757812 13 358 13 c 0
 356.815429688 13 355.631835938 13.0078125 354.451171875 13.0234375 c 0
 349.662109375 13.0693359375 345.004882812 13.205078125 340.133789062 13.6025390625 c 0
 205.541992188 22.708984375 100 133.96484375 100 270 c 0
 100 406.991210938 205.5390625 518.286132812 340.12890625 527.397460938 c 0
 345.001953125 527.794921875 349.66015625 527.930664062 354.451171875 527.9765625 c 0
 355.631835938 527.9921875 356.815429688 528 358 528 c 0
 358.301757812 528 358.603515625 527.999023438 358.905273438 527.998046875 c 0
 359.92578125 528 360.956054688 528 362 528 c 0
 505 528 620 413 620 270 c 0
 620 128 505 13 362 13 c 0
 360.956054688 13 359.92578125 13.001953125 358.90625 13.001953125 c 0
EndSplineSet
EndChar

StartChar: p
Encoding: 112 112 79
Width: 512
VWidth: 0
Flags: HW
HStem: -192 21G<100 252> 5 151<252 340.529> 369 150<252.375 340.409>
VStem: 100 152<-192 6 156.026 368.974> 383 151<198.471 326.934>
LayerCount: 2
Fore
SplineSet
252 366 m 1
 252 159 l 1
 260 157 268 156 276 156 c 0
 336 156 383 203 383 263 c 0
 383 322 336 369 276 369 c 0
 268 369 260 368 252 366 c 1
252 -192 m 1
 100 -192 l 1
 100 519 l 1
 252 519 l 2
 260 520 268 520 276 520 c 0
 419 520 534 405 534 263 c 0
 534 120 419 5 276 5 c 0
 268 5 260 5 252 6 c 1
 252 -192 l 1
EndSplineSet
EndChar

StartChar: q
Encoding: 113 113 80
Width: 512
VWidth: 0
Flags: HW
HStem: -192 21G<382 534> 5 151<293.471 382> 369 151<293.591 381.625>
VStem: 100 151<198.471 326.934> 382 152<-192 6 156.026 368.974>
LayerCount: 2
Fore
SplineSet
382 366 m 1
 374 368 366 369 358 369 c 0
 298 369 251 322 251 263 c 0
 251 203 298 156 358 156 c 0
 366 156 374 157 382 159 c 1
 382 366 l 1
382 -192 m 1
 382 6 l 1
 374 5 366 5 358 5 c 0
 215 5 100 120 100 263 c 0
 100 405 215 520 358 520 c 0
 366 520 374 520 382 519 c 2
 534 519 l 1
 534 -192 l 1
 382 -192 l 1
EndSplineSet
EndChar

StartChar: r
Encoding: 114 114 81
Width: 587
VWidth: 0
Flags: HW
HStem: 383 151<282.824 414.013>
VStem: 100 169<16 366.608 522 532>
LayerCount: 2
Fore
SplineSet
100 532 m 1
 269 532 l 1
 269 522 l 1
 295 530 321 534 349 534 c 0
 459.2734375 534 550 453 587 355 c 1
 422 355 l 1
 422 354.31640625 l 1
 402.80859375 372.330078125 377.809570312 383 349 383 c 0
 317 383 289 370 269 348 c 1
 269 16 l 1
 100 16 l 1
 100 532 l 1
EndSplineSet
EndChar

StartChar: s
Encoding: 115 115 82
Width: 508
VWidth: 0
Flags: HW
LayerCount: 2
Fore
SplineSet
118.615234375 57 m 1
 185.615234375 169 l 1
 191.615234375 163 198.615234375 160 207.615234375 157 c 0
 260.615234375 133 304.615234375 141 330.615234375 172 c 0
 359.615234375 206 308.615234375 212 254.615234375 221 c 1
 126.615234375 272 55.615234375 355 130.615234375 444 c 0
 193.615234375 520 346.615234375 537 473.615234375 483 c 0
 480.615234375 480 488.615234375 478 495.615234375 472 c 1
 428.615234375 342 l 1
 422.615234375 346 415.615234375 351 406.615234375 354 c 0
 353.615234375 376 331.615234375 369 305.615234375 338 c 0
 275.615234375 303 272.615234375 296 336.615234375 285 c 1
 455.615234375 235 558.615234375 174 482.615234375 85 c 0
 420.615234375 9 267.615234375 -11 140.615234375 44 c 0
 133.615234375 46 126.615234375 51 118.615234375 57 c 1
EndSplineSet
EndChar

StartChar: t
Encoding: 116 116 83
Width: 514
VWidth: 0
Flags: HW
HStem: 7 151<378.285 509.024> 374 152<100 196.274 362 459> 751 20G<195 362>
VStem: 196.274 165.726<178.881 374 526 771>
LayerCount: 2
Fore
SplineSet
514 16 m 1
 491 10 468 7 443 7 c 0
 325 7 229 85 198 194 c 1
 197.064453125 374 l 1
 100 374 l 1
 100 526 l 1
 196.2734375 526 l 1
 195 771 l 1
 362 771 l 1
 362 526 l 1
 459 526 l 1
 459 374 l 1
 362 374 l 1
 362 195 l 1
 382 172 410 158 443 158 c 0
 470 158 495 168 514 184 c 1
 514 16 l 1
EndSplineSet
EndChar

StartChar: u
Encoding: 117 117 84
Width: 598
VWidth: 0
Flags: HW
HStem: 16 151<284.841 414.565> 514 20G<101 268 429 598>
VStem: 104 164<187.881 534> 429 169<18 28 184.134 534>
LayerCount: 2
Fore
SplineSet
598 12 m 1
 429 12 l 1
 429 22 l 1
 403 14 377 10 349 10 c 0
 231 10 135 88 104 197 c 1
 101 528 l 1
 268 528 l 1
 268 198 l 1
 288 175 316 161 349 161 c 0
 381 161 409 174 429 196 c 1
 429 528 l 1
 598 528 l 1
 598 12 l 1
EndSplineSet
EndChar

StartChar: v
Encoding: 118 118 85
Width: 652
VWidth: 0
Flags: HW
HStem: 501 20G<100 258.757 493.243 652>
LayerCount: 2
Fore
SplineSet
100 521 m 1
 252 521 l 1
 376 154 l 1
 500 521 l 1
 652 521 l 1
 452 10 l 1
 300 10 l 1
 100 521 l 1
EndSplineSet
EndChar

StartChar: w
Encoding: 119 119 86
Width: 1044
VWidth: 0
Flags: HW
HStem: 501 20G<100 254.757 489.243 654.54 885.243 1044>
LayerCount: 2
Fore
SplineSet
496 521 m 1
 648 521 l 1
 768 154 l 1
 892 521 l 1
 1044 521 l 1
 844 10 l 1
 696 10 l 1
 572 326.8203125 l 1
 448 10 l 1
 300 10 l 1
 100 521 l 1
 248 521 l 1
 372 154 l 1
 496 521 l 1
EndSplineSet
EndChar

StartChar: x
Encoding: 120 120 87
Width: 724
VWidth: 0
Flags: HW
HStem: 9 20G<118.427 279 531.563 724> 503 20G<117.437 286 530.573 723>
LayerCount: 2
Fore
SplineSet
100 523 m 1
 286 521 l 1
 415.491210938 369.926757812 l 1
 548 522 l 1
 723 521 l 1
 502.584960938 268.317382812 l 1
 724 10 l 1
 549 8 l 1
 412.291015625 164.8046875 l 1
 279 12 l 1
 101 9 l 1
 324.5 265.5 l 1
 100 523 l 1
EndSplineSet
EndChar

StartChar: y
Encoding: 121 121 88
Width: 652
VWidth: 0
Flags: HW
HStem: 501 20G<100 277.757 500 677.185>
LayerCount: 2
Fore
SplineSet
100 521 m 1
 271 521 l 1
 395 154 l 1
 500 521 l 1
 685 524 l 1
 406 -190 l 1
 258 -194 l 1
 327.328125 10 l 1
 327 10 l 1
 100 521 l 1
EndSplineSet
EndChar

StartChar: z
Encoding: 122 122 89
Width: 512
VWidth: 0
Flags: HW
HStem: 20 152<351 553> 376 152<100 343>
LayerCount: 2
Fore
SplineSet
100 20 m 1
 100 172 l 1
 343 376 l 1
 100 376 l 1
 100 528 l 1
 553 528 l 1
 553 376 l 1
 351 172 l 1
 553 172 l 1
 553 20 l 1
 100 20 l 1
EndSplineSet
EndChar

StartChar: braceleft
Encoding: 123 123 90
Width: 419
VWidth: 0
Flags: HW
HStem: -82 121<428.218 500.506> 694 121<428.745 500.506>
VStem: 339 84<44.1962 238 495 684.933>
LayerCount: 2
Fore
SplineSet
501 -75 m 1
 490 -80 477 -82 464 -82 c 0
 404 -82 355 -19 339 68 c 1
 338 238 l 1
 229 368 l 1
 338 495 l 1
 339 665 l 1
 355 752 404 815 464 815 c 0
 477 815 490 813 501 808 c 1
 501 673 l 1
 491 686 478 694 464 694 c 0
 447 694 433 682 423 664 c 1
 424 480 l 1
 342 379 l 1
 423 238 l 1
 423 68 l 1
 433 50 447 39 464 39 c 0
 478 39 491 47 501 60 c 1
 501 -75 l 1
EndSplineSet
EndChar

StartChar: bar
Encoding: 124 124 91
Width: 252
VWidth: 0
Flags: HW
VStem: 115 122<-89 881>
LayerCount: 2
Fore
SplineSet
115 881 m 1
 237 881 l 1
 237 -89 l 1
 115 -89 l 1
 115 881 l 1
EndSplineSet
EndChar

StartChar: braceright
Encoding: 125 125 92
Width: 419
VWidth: 0
Flags: HW
HStem: -82 121<229.494 301.782> 694 121<229.494 301.255>
VStem: 307 84<44.1962 238 495 684.933>
LayerCount: 2
Fore
SplineSet
229 -75 m 1
 229 60 l 1
 239 47 252 39 266 39 c 0
 283 39 297 50 307 68 c 1
 307 238 l 1
 388 379 l 1
 306 480 l 1
 307 664 l 1
 297 682 283 694 266 694 c 0
 252 694 239 686 229 673 c 1
 229 808 l 1
 240 813 253 815 266 815 c 0
 326 815 375 752 391 665 c 1
 392 495 l 1
 501 368 l 1
 392 238 l 1
 391 68 l 1
 375 -19 326 -82 266 -82 c 0
 253 -82 240 -80 229 -75 c 1
EndSplineSet
EndChar

StartChar: asciitilde
Encoding: 126 126 93
Width: 644
VWidth: 0
Flags: HW
HStem: 354 152.581<305.052 527.98> 410 152<151.251 283.491>
LayerCount: 2
Fore
SplineSet
599 587 m 1
 599 435 l 2
 598.596679688 433.500976562 542.831054688 354 471 354 c 0
 423 354 419 354 371 354 c 0
 307 354 282 410 218 410 c 0
 167 410 100 354 100 354 c 1
 100 506 l 1
 100 506 164 562 214 562 c 0
 280 562 308 507 374 507 c 0
 418 507 419 507 463 506.581054688 c 0
 532 507 599 587 599 587 c 1
EndSplineSet
EndChar

StartChar: .notdef
Encoding: 0 0 94
Width: 1000
Flags: HW
HStem: 10 66<343 735> 215.75 71<471 547> 331.75 117.5<471 527.005> 555.75 75.5<471 526.239> 742 62<343 735>
VStem: 293 50<76 742> 471 76<215.75 286.75 331.75 404.448> 537.5 75.5<459.629 544.632> 735 48<76 742>
LayerCount: 2
Fore
SplineSet
308 804 m 2
 768 804 l 2
 776 804 783 797 783 789 c 2
 783 25 l 2
 783 17 776 10 768 10 c 2
 308 10 l 2
 300 10 293 17 293 25 c 2
 293 789 l 2
 293 797 300 804 308 804 c 2
358 742 m 2
 350 742 343 735 343 727 c 2
 343 91 l 2
 343 83 350 76 358 76 c 2
 720 76 l 2
 728 76 735 83 735 91 c 2
 735 727 l 2
 735 735 728 742 720 742 c 2
 358 742 l 2
471 630.75 m 1
 475.5 631.25 479.5 631.25 484 631.25 c 0
 555.5 631.25 613 573.75 613 502.75 c 0
 613 454.165039062 586.450195312 412.044921875 547 390.037109375 c 1
 547 331.75 l 1
 471 331.75 l 1
 471 374.25 l 1
 471 436.75 l 1
 471 450.75 l 1
 475 449.75 479.5 449.25 484 449.25 c 0
 514 449.25 537.5 472.75 537.5 502.75 c 0
 537.5 532.25 514 555.75 484 555.75 c 0
 479.5 555.75 475 555.25 471 554.25 c 1
 471 630.75 l 1
471 215.75 m 1
 471 286.75 l 1
 547 286.75 l 1
 547 215.75 l 1
 471 215.75 l 1
EndSplineSet
EndChar

StartChar: u09a4
Encoding: 2468 2468 95
Width: 726
VWidth: 75
Flags: HW
HStem: 14.7002 133.6<355.264 518.805> 523.479 120.821<445.987 517.023> 681 132<50 776>
VStem: 142.4 111.399<250.829 338.876> 620.2 133.399<250.829 424.049>
LayerCount: 2
Fore
SplineSet
439.780273438 523.478515625 m 1
 439.780273438 523.478515625 445.987304688 644.29296875 445.987304688 644.29296875 c 2
 446.657226562 644.297851562 447.328125 644.299804688 448 644.299804688 c 0
 616.799804688 644.299804688 753.599609375 503.5 753.599609375 329.900390625 c 0
 753.599609375 155.5 616.799804688 14.7001953125 448 14.7001953125 c 0
 279.200195312 14.7001953125 142.400390625 155.5 142.400390625 329.900390625 c 0
 142.400390625 330.77734375 253.86328125 340.658203125 253.870117188 341.533203125 c 1
 253.823242188 339.794921875 253.799804688 338.049804688 253.799804688 336.299804688 c 0
 253.799804688 232.299804688 335.400390625 148.299804688 437 148.299804688 c 0
 538.599609375 148.299804688 620.200195312 232.299804688 620.200195312 336.299804688 c 0
 620.200195312 438.556640625 540.084960938 521.962890625 439.780273438 523.478515625 c 1
776 813 m 5
 776 681 l 5
 50 681 l 5
 50 813 l 5
 776 813 l 5
EndSplineSet
EndChar

StartChar: uni09AC
Encoding: 2476 2476 96
Width: 723
VWidth: 0
Flags: HW
HStem: 681 132<50 574 720 773> 681 106<574 720>
VStem: 574 146<11 83.5 235.5 483.5 635.5 787> 574 57.5<83.5 235.5 483.5 483.5>
LayerCount: 2
Fore
SplineSet
773 813 m 1
 773 681 l 1
 720 681 l 1
 720 11 l 1
 574 11 l 1
 574 12.798828125 l 1
 120.5 283.5 l 1
 120.5 435.5 l 1
 574 612.995117188 l 1
 574 681 l 1
 50 681 l 1
 50 813 l 1
 773 813 l 1
574 164.814453125 m 1
 574 464.072265625 l 1
 264.5 359.5 l 1
 574 164.814453125 l 1
EndSplineSet
EndChar

StartChar: exclamdown
Encoding: 161 161 99
Width: 252
VWidth: 0
Flags: HW
HStem: 8 21G<100 252> 502 20G<100 252> 640 142<100 252>
VStem: 100 152<8 522 640 782>
LayerCount: 2
Fore
SplineSet
252 782 m 1
 252 640 l 1
 100 640 l 1
 100 782 l 1
 252 782 l 1
252 522 m 1
 252 8 l 1
 100 8 l 1
 100 522 l 1
 252 522 l 1
EndSplineSet
EndChar

StartChar: sterling
Encoding: 163 163 103
Width: 772
VWidth: 0
Flags: HW
HStem: 7 169.5<52.5 647.285> 369 152<100 196.882 362 459> 620 151<378.841 508.555>
VStem: 195 167<7 369 521 599.119> 665.5 151<192.508 322.889>
LayerCount: 2
Fore
SplineSet
514 762 m 1
 514 594 l 1
 495 610 470 620 443 620 c 0
 410 620 382 606 362 583 c 1
 362 521 l 1
 459 521 l 1
 459 369 l 1
 362 369 l 1
 362 176.5 l 1
 628.5 176.5 l 1
 653.166992188 197.833007812 665.5 224.833007812 665.5 257.5 c 0
 665.5 284.166992188 656.833007812 307.833007812 639.5 328.5 c 1
 807.5 328.5 l 1
 813.5 305.833007812 816.5 282.166992188 816.5 257.5 c 0
 816.5 199.5 799.166992188 148.166992188 764.5 103.5 c 0
 729.833007812 58.8330078125 684.833007812 28.5 629.5 12.5 c 1
 362 11.109375 l 1
 362 7 l 1
 195 7 l 1
 195.016601562 10.2412109375 l 1
 52.5 9.5 l 1
 52.5 176.5 l 1
 195.880859375 176.5 l 1
 196.881835938 369 l 1
 100 369 l 1
 100 521 l 1
 197.672851562 521 l 1
 198 584 l 1
 229 693 325 771 443 771 c 0
 468 771 491 768 514 762 c 1
EndSplineSet
EndChar

StartChar: uni098F
Encoding: 2447 2447 104
Width: 697
VWidth: 0
Flags: HW
HStem: 620 151<360.445 490.159>
VStem: 52.5 151<192.508 322.889>
LayerCount: 2
Fore
SplineSet
61.5 328.5 m 1
 229.5 328.5 l 1
 212.166992188 307.833007812 203.5 284.166992188 203.5 257.5 c 0
 203.5 224.833007812 215.833007812 197.833007812 240.5 176.5 c 1
 507 176.5 l 1
 507 583 l 1
 487 606 459 620 426 620 c 0
 399 620 374 610 355 594 c 1
 355 762 l 1
 378 768 401 771 426 771 c 0
 544 771 640 693 671 584 c 1
 674 7 l 5
 526.245117188 5.912109375 387.399414062 13.732421875 239.5 12.5 c 5
 184.166992188 28.5 139.166992188 58.8330078125 104.5 103.5 c 0
 69.8330078125 148.166992188 52.5 199.5 52.5 257.5 c 0
 52.5 282.166992188 55.5 305.833007812 61.5 328.5 c 1
EndSplineSet
EndChar

StartChar: uni0985
Encoding: 2437 2437 105
Width: 946
VWidth: 0
Flags: HW
HStem: 8 21G<801 841.187> 14.7002 125.6<364.372 531.628> 515.479 128.821<450.78 531.669> 681 132<50 823 975 996> 681 105<823 975>
VStem: 142.4 122.399<243.067 332.113> 631.2 122.399<283.807 416.338> 823 152<115 786>
LayerCount: 2
Fore
SplineSet
450.780273438 515.478515625 m 1
 450.780273438 515.478515625 445.987304688 644.29296875 445.987304688 644.29296875 c 1
 446.657226562 644.297851562 447.328125 644.299804688 448 644.299804688 c 0
 616.799804688 644.299804688 753.599609375 503.5 753.599609375 329.900390625 c 0
 753.599609375 317.25 752.879882812 304.776367188 751.48046875 292.51953125 c 1
 823 221 l 1
 823 681 l 1
 50 681 l 1
 50 813 l 1
 996 813 l 1
 996 681 l 1
 975 681 l 1
 975 10 l 1
 823.018554688 10 l 1
 821 8 l 1
 690.749023438 138.250976562 l 1
 634.901367188 63.0810546875 546.948242188 14.7001953125 448 14.7001953125 c 0
 279.200195312 14.7001953125 142.400390625 155.5 142.400390625 329.900390625 c 0
 142.400390625 330.77734375 264.86328125 332.658203125 264.870117188 333.533203125 c 1
 264.823242188 331.794921875 264.799804688 330.049804688 264.799804688 328.299804688 c 0
 264.799804688 224.299804688 346.400390625 140.299804688 448 140.299804688 c 0
 549.599609375 140.299804688 631.200195312 224.299804688 631.200195312 328.299804688 c 0
 631.200195312 430.556640625 551.084960938 513.962890625 450.780273438 515.478515625 c 1
EndSplineSet
EndChar

StartChar: uni09BE
Encoding: 2494 2494 106
Width: 436
VWidth: 0
Flags: HW
HStem: 8 21G<284 436> 681 132<323 484>
VStem: 284 200<681 813> 284 152<8 497 813 857> 323 113<681 813>
LayerCount: 2
Fore
SplineSet
284 857 m 1
 436 857 l 1
 436 813 l 1
 484 813 l 1
 484 681 l 1
 436 681 l 1
 436 8 l 1
 284 8 l 1
 284 498.981445312 l 1
 282 497 l 1
 -23 795 l 1
 178 792 l 1
 284 698 l 1
 284 857 l 1
EndSplineSet
EndChar

StartChar: uni0986
Encoding: 2438 2438 107
Width: 1261
VWidth: 0
Flags: HW
HStem: 8 21G<801 841.187> 14.7002 125.6<364.372 531.628> 515.479 128.821<450.78 531.669> 681 129<50 804 823 996 1150 1311> 681 105<823 975>
VStem: 142.4 122.399<243.067 332.113> 631.2 122.399<283.807 416.338> 823 173<681 786> 1111 200<681 813> 1111 152<8 497 813 860> 1150 113<681 813>
LayerCount: 2
Fore
SplineSet
1111 860 m 1
 1263 860 l 1
 1263 813 l 1
 1311 813 l 1
 1311 681 l 1
 1263 681 l 1
 1263 8 l 1
 1111 8 l 1
 1111 498.981445312 l 1
 1109 497 l 1
 975 634.514648438 l 1
 975 10 l 1
 823.018554688 10 l 1
 821 8 l 1
 690.749023438 138.250976562 l 1
 634.901367188 63.0810546875 546.948242188 14.7001953125 448 14.7001953125 c 0
 279.200195312 14.7001953125 142.400390625 155.5 142.400390625 329.900390625 c 0
 142.400390625 330.77734375 264.86328125 332.658203125 264.870117188 333.533203125 c 1
 264.823242188 331.794921875 264.799804688 330.049804688 264.799804688 328.299804688 c 0
 264.799804688 224.299804688 346.400390625 140.299804688 448 140.299804688 c 0
 549.599609375 140.299804688 631.200195312 224.299804688 631.200195312 328.299804688 c 0
 631.200195312 430.556640625 551.084960938 513.962890625 450.780273438 515.478515625 c 1
 450.780273438 515.478515625 445.987304688 644.29296875 445.987304688 644.29296875 c 1
 446.657226562 644.297851562 447.328125 644.299804688 448 644.299804688 c 0
 616.799804688 644.299804688 753.599609375 503.5 753.599609375 329.900390625 c 0
 753.599609375 317.25 752.879882812 304.776367188 751.48046875 292.51953125 c 1
 823 221 l 1
 823 681 l 1
 50 681 l 1
 50 810 l 1
 804 810 l 1
 996 810 l 1
 1005 810 l 1
 1111 707 l 1
 1111 860 l 1
EndSplineSet
EndChar

StartChar: uni09B9
Encoding: 2489 2489 108
Width: 689
VWidth: 0
Flags: HW
HStem: 9 21G<457 643> 681 132<50 739>
LayerCount: 2
Fore
SplineSet
739 813 m 1
 739 681 l 1
 50 681 l 1
 50 813 l 1
 739 813 l 1
286.141601562 482.20703125 m 1
 286.141601562 482.20703125 178.799804688 588.45703125 178.026367188 587.68359375 c 1
 280.65625 690.313476562 442.620117188 692.33203125 545.080078125 589.872070312 c 0
 646.706054688 488.24609375 644.452148438 326.5078125 542.18359375 223.525390625 c 0
 516.661132812 197.825195312 489.724609375 179.067382812 462.2578125 166.3515625 c 1
 643 9 l 1
 484 9 l 1
 275.735351562 163.26953125 l 1
 240.404296875 177.595703125 207.993164062 199.703125 180.920898438 227.127929688 c 1
 283.453125 329.66015625 l 1
 283.686523438 329.422851562 283.921875 329.186523438 284.158203125 328.950195312 c 0
 326.666992188 286.440429688 390.711914062 287.127929688 436.141601562 331.051757812 c 0
 479.873046875 376.353515625 480.990234375 440.416015625 438.306640625 483.099609375 c 0
 395.163085938 526.244140625 331.517578125 525.487304688 286.141601562 482.20703125 c 1
EndSplineSet
EndChar

StartChar: uni0987
Encoding: 2439 2439 109
Width: 689
VWidth: 0
Flags: HW
HStem: 9 21G<457 643> 681 132<50 357.581 593.755 739>
LayerCount: 2
Fore
SplineSet
739 813 m 1
 739 681 l 1
 50 681 l 1
 50 813 l 1
 383.489257812 813 l 1
 377.990234375 838.393554688 367.922851562 864.420898438 349.7890625 882.776367188 c 0
 318.380859375 913.592773438 317.673828125 914.299804688 286.560546875 945.412109375 c 0
 239.891601562 992.081054688 181.202148438 972.989257812 134.532226562 1019.65820312 c 0
 99.177734375 1055.01367188 93.5205078125 1139.8671875 93.5205078125 1139.8671875 c 1
 181.909179688 1228.25488281 l 1
 181.909179688 1228.25488281 189.6875 1141.28125 225.749023438 1105.21875 c 0
 271.00390625 1059.96386719 328.280273438 1081.88378906 373.53515625 1036.62890625 c 0
 407.475585938 1002.68847656 410.3046875 999.859375 444.245117188 965.918945312 c 0
 494.2734375 915.890625 474.794921875 818.1796875 477.479492188 818.1328125 c 1
 472.346679688 813 l 1
 739 813 l 1
286.141601562 482.20703125 m 1
 286.141601562 482.20703125 178.799804688 588.45703125 178.026367188 587.68359375 c 1
 280.65625 690.313476562 442.620117188 692.33203125 545.080078125 589.872070312 c 0
 646.706054688 488.24609375 644.452148438 326.5078125 542.18359375 223.525390625 c 0
 516.661132812 197.825195312 489.724609375 179.067382812 462.2578125 166.3515625 c 1
 643 9 l 1
 484 9 l 1
 275.735351562 163.26953125 l 1
 240.404296875 177.595703125 207.993164062 199.703125 180.920898438 227.127929688 c 1
 283.453125 329.66015625 l 1
 283.686523438 329.422851562 283.921875 329.186523438 284.158203125 328.950195312 c 0
 326.666992188 286.440429688 390.711914062 287.127929688 436.141601562 331.051757812 c 0
 479.873046875 376.353515625 480.990234375 440.416015625 438.306640625 483.099609375 c 0
 395.163085938 526.244140625 331.517578125 525.487304688 286.141601562 482.20703125 c 1
EndSplineSet
EndChar

StartChar: uni09A1
Encoding: 2465 2465 110
Width: 616
VWidth: 0
Flags: HW
HStem: 13.0016 151.016<293.473 423.671> 376 151.998<359 491> 681 132<50 359 491 666> 681 80<359 491>
VStem: 359 132<527.998 761>
LayerCount: 2
Fore
SplineSet
666 813 m 1
 666 681 l 1
 491 681 l 1
 491 493.791992188 l 1
 569.610351562 449.66015625 622.310546875 366.931640625 620 270 c 0
 616.541015625 124.885742188 502.287109375 12.7998046875 358.90625 13.001953125 c 0
 189.0390625 13.240234375 105.165039062 141.7890625 106.000976562 271 c 1
 251.00390625 271 l 1
 251.000976562 270.666992188 251 270.333984375 251 270 c 0
 251 209.8828125 296.772460938 165.08203125 359.955078125 164.017578125 c 0
 422.911132812 165.126953125 469 209.63671875 469 270 c 0
 469 326.657226562 429.734375 369.046875 373.932617188 376 c 1
 359 376 l 1
 359 527.624023438 l 2
 358.96875 527.87109375 358.9375 527.998046875 358.905273438 527.998046875 c 1
 358.9375 527.998046875 358.96875 527.998046875 359 527.998046875 c 1
 359 681 l 1
 50 681 l 1
 50 813 l 1
 666 813 l 1
EndSplineSet
EndChar

StartChar: uni0989
Encoding: 2441 2441 111
Width: 612
VWidth: 0
Flags: HW
HStem: 13.002 151.016<288.473 418.671> 376 151.998<354 486> 681 132<45 486 593.755 661>
LayerCount: 2
Fore
SplineSet
661 813 m 1
 661 681 l 1
 486 681 l 1
 486 493.791992188 l 1
 564.611328125 449.66015625 617.310546875 366.931640625 615 270 c 0
 611.541015625 124.885742188 497.287109375 12.7998046875 353.90625 13.001953125 c 0
 184.0390625 13.240234375 100.165039062 141.7890625 101.000976562 271 c 1
 246.00390625 271 l 1
 246.000976562 270.666992188 246 270.333984375 246 270 c 0
 246 209.8828125 291.772460938 165.08203125 354.955078125 164.017578125 c 0
 417.911132812 165.126953125 464 209.63671875 464 270 c 0
 464 326.657226562 424.735351562 369.046875 368.932617188 376 c 1
 354 376 l 1
 354 527.622070312 l 2
 353.96875 527.870117188 353.9375 527.998046875 353.905273438 527.998046875 c 1
 353.936523438 527.998046875 353.96875 527.998046875 354 527.998046875 c 1
 354 681 l 1
 45 681 l 1
 45 813 l 1
 344.169921875 813 l 1
 338.783203125 839.090820312 328.6640625 866.108398438 310 885 c 0
 278.591796875 915.81640625 277.884765625 916.5234375 246.771484375 947.635742188 c 0
 200.102539062 994.3046875 141.413085938 975.212890625 94.7431640625 1021.88183594 c 0
 59.388671875 1057.23730469 53.7314453125 1142.09082031 53.7314453125 1142.09082031 c 1
 142.120117188 1230.47851562 l 1
 142.120117188 1230.47851562 149.8984375 1143.50488281 185.959960938 1107.44238281 c 0
 231.21484375 1062.1875 288.491210938 1084.10742188 333.74609375 1038.85253906 c 0
 367.686523438 1004.91210938 370.515625 1002.08300781 404.456054688 968.142578125 c 0
 454.484375 918.114257812 435.005859375 820.403320312 437.690429688 820.356445312 c 1
 430.333984375 813 l 1
 661 813 l 1
EndSplineSet
EndChar

StartChar: uni09A2
Encoding: 2466 2466 112
Width: 642
VWidth: 0
Flags: HW
HStem: 681 132<50 100 267 689> 681 90<100 267>
VStem: 103 164<182.77 771> 502 164<182.95 383>
LayerCount: 2
Fore
SplineSet
666 194 m 1
 597.931640625 -45.4130859375 172.236328125 -49.4453125 103 194 c 1
 100.467773438 681 l 1
 50 681 l 1
 50 813 l 1
 689 813 l 1
 689 681 l 1
 267 681 l 1
 267 195 l 1
 305.237304688 151.02734375 464.430664062 149.916992188 502 195 c 1
 502 383 l 1
 669 383 l 1
 666 194 l 1
EndSplineSet
EndChar

StartChar: uni099F
Encoding: 2463 2463 113
Width: 642
VWidth: 0
Flags: HW
HStem: 681 132<50 100 593.755 689> 681 90<100 267>
VStem: 103 164<182.77 771> 502 164<182.95 383>
LayerCount: 2
Fore
SplineSet
666 194 m 1
 597.931640625 -45.4130859375 172.236328125 -49.4453125 103 194 c 1
 100.467773438 681 l 1
 50 681 l 1
 50 813 l 1
 301.8359375 813 l 1
 286.87109375 827.96484375 l 2
 241.616210938 873.219726562 263.536132812 930.49609375 218.28125 975.750976562 c 0
 182.21875 1011.8125 95.2451171875 1019.59082031 95.2451171875 1019.59082031 c 1
 183.6328125 1107.97949219 l 1
 183.6328125 1107.97949219 268.486328125 1102.32226562 303.841796875 1066.96777344 c 0
 350.510742188 1020.29785156 331.418945312 961.608398438 378.087890625 914.939453125 c 0
 409.200195312 883.826171875 409.907226562 883.119140625 440.723632812 851.7109375 c 0
 467.475585938 825.282226562 510.520507812 815.987304688 544.153320312 813 c 2
 689 813 l 1
 689 681 l 1
 267 681 l 1
 267 195 l 1
 305.237304688 151.02734375 464.430664062 149.916992188 502 195 c 1
 502 383 l 1
 669 383 l 1
 666 194 l 1
EndSplineSet
EndChar

StartChar: uni0995
Encoding: 2453 2453 114
Width: 1095
VWidth: 0
Flags: HW
HStem: 361.5 151<766.566 895.029> 681 132<50 574 720 1138> 681 106<574 720>
VStem: 573.5 58<83.5 228.5 483.5 483.5> 574 146<11 83.5 228.5 254.5 635.5 787> 937.5 151<228.5 319.029>
LayerCount: 2
Fore
SplineSet
1148 813 m 1
 1148 681 l 1
 720 681 l 1
 720 487.599609375 l 1
 753.46875 503.573242188 790.936523438 512.5 830.5 512.5 c 0
 973.5 512.5 1088.5 397.5 1088.5 254.5 c 0
 1088.5 245.7265625 1088.06054688 237.053710938 1087.20410156 228.5 c 1
 934.364257812 228.5 l 1
 936.415039062 236.826171875 937.5 245.536132812 937.5 254.5 c 0
 937.5 314.5 890.5 361.5 830.5 361.5 c 0
 771.5 361.5 724.5 314.5 724.5 254.5 c 0
 724.5 245.536132812 725.584960938 236.826171875 727.631835938 228.5 c 1
 720 228.5 l 1
 720 11 l 1
 577 11 l 1
 120.5 283.5 l 1
 120.5 435.5 l 1
 574 612.995117188 l 1
 574 681 l 1
 50 681 l 1
 50 813 l 1
 1148 813 l 1
574.961914062 165.461914062 m 1
 574.961914062 165.461914062 574.0078125 462 574 464.072265625 c 1
 264.5 359.5 l 1
 574.961914062 165.461914062 l 1
EndSplineSet
EndChar

StartChar: uni0993
Encoding: 2451 2451 115
Width: 616
VWidth: 0
Flags: HW
HStem: 13 151.017<297.114 426.368> 686 6<275.316 277.624>
VStem: 100 151<208.344 374.102> 469 151<205.94 334.826 510.937 643.001>
LayerCount: 2
Fore
SplineSet
337 692 m 0
 330.208007812 691.634765625 281.076171875 687.51953125 275 686 c 1
 277.624023438 686.109375 254.358398438 770.163085938 257 770 c 0
 268.190429688 769.309570312 329.141601562 810.811523438 381 818 c 0
 524.5234375 837.895507812 622.978515625 727.309570312 620 575 c 0
 618.88671875 518.077148438 601.513671875 465.473632812 570.147460938 422.892578125 c 1
 601.513671875 380.16796875 620 327.333984375 620 270 c 0
 620 128 505 13 362 13 c 0
 360.956054688 13 359.92578125 13.001953125 358.90625 13.001953125 c 0
 358.603515625 13.001953125 358.301757812 13 358 13 c 0
 356.815429688 13 355.631835938 13.0078125 354.451171875 13.0234375 c 0
 349.662109375 13.0693359375 345.004882812 13.205078125 340.133789062 13.6025390625 c 0
 205.541992188 22.708984375 100 133.96484375 100 270 c 0
 100 325.204101562 117.138671875 376.235351562 146.41015625 418.088867188 c 1
 158 422 l 1
 336.961914062 372.549804688 251 414.8828125 251 270 c 0
 251 209.87890625 296.760742188 165.08203125 359.955078125 164.017578125 c 0
 422.901367188 165.126953125 469 209.640625 469 270 c 0
 469 322.4375 433.1015625 364.9453125 384 374.828125 c 1
 384 373.864257812 l 1
 359.955078125 469.017578125 l 1
 368.23046875 469.163085938 376.280273438 470.234375 384 472.131835938 c 1
 384 471.169921875 l 1
 433.1015625 481.0390625 469 523.436523438 469 575 c 0
 469 653.3203125 415.104492188 696.1953125 337 692 c 0
EndSplineSet
EndChar

StartChar: uni09B0
Encoding: 2480 2480 116
Width: 723
VWidth: 0
Flags: HW
HStem: 8 142<211 363> 681 132<50 574 720 773> 681 106<574 720>
VStem: 211 152<8 150> 574 146<11 83.5 235.5 483.5 635.5 787> 574 57.5<83.5 235.5 483.5 483.5>
LayerCount: 2
Fore
SplineSet
773 813 m 1
 773 681 l 1
 720 681 l 1
 720 11 l 1
 573 11 l 1
 573 12.798828125 l 1
 120.5 283.5 l 1
 120.5 435.5 l 1
 574 612.995117188 l 1
 574 681 l 1
 50 681 l 1
 50 813 l 1
 773 813 l 1
144 8 m 1
 144 150 l 1
 296 150 l 1
 296 8 l 1
 144 8 l 1
573 164.815429688 m 1
 573 464.072265625 l 1
 264.5 359.5 l 1
 573 164.815429688 l 1
EndSplineSet
EndChar

StartChar: mu
Encoding: 181 181 119
Width: 598
VWidth: 0
Flags: HW
HStem: 16 151<284.435 414.159> 514 20G<101 270 431 598>
VStem: 101 169<-179 28 184.134 534> 431 164<187.881 534>
LayerCount: 2
Fore
SplineSet
101 -179 m 1
 101 534 l 1
 270 534 l 1
 270 202 l 1
 290 180 318 167 350 167 c 0
 383 167 411 181 431 204 c 1
 431 534 l 1
 598 534 l 1
 595 203 l 1
 564 94 468 16 350 16 c 0
 322 16 296 20 270 28 c 1
 270 -179 l 1
 101 -179 l 1
EndSplineSet
EndChar

StartChar: guillemotleft
Encoding: 171 171 120
Width: 1282
VWidth: 0
Flags: HW
LayerCount: 2
Fore
SplineSet
644 673 m 1
 644 521 l 1
 237.895507812 347.71875 l 1
 644 168 l 1
 644 16 l 1
 100 260 l 1
 100 261 l 1
 100 412 l 1
 100 413 l 1
 644 673 l 1
1244 673 m 1
 1244 521 l 1
 837.895507812 347.71875 l 1
 1244 168 l 1
 1244 16 l 1
 700 260 l 1
 700 261 l 1
 700 412 l 1
 700 413 l 1
 1244 673 l 1
EndSplineSet
EndChar

StartChar: guillemotright
Encoding: 187 187 121
Width: 1282
VWidth: 0
Flags: HW
LayerCount: 2
Fore
SplineSet
700 673 m 1
 1244 413 l 1
 1244 412 l 1
 1244 261 l 1
 1244 260 l 1
 700 16 l 1
 700 168 l 1
 1106.10449219 347.71875 l 1
 700 521 l 1
 700 673 l 1
100 673 m 1
 644 413 l 1
 644 412 l 1
 644 261 l 1
 644 260 l 1
 100 16 l 1
 100 168 l 1
 506.104492188 347.71875 l 1
 100 521 l 1
 100 673 l 1
EndSplineSet
EndChar

StartChar: cent
Encoding: 162 162 122
Width: 384
VWidth: 0
Flags: HW
HStem: 13 151<337.13 384> 377 151<337.13 384>
VStem: 100 151<206.066 334.529> 288 47<-89 710>
LayerCount: 2
Fore
SplineSet
384 14.2958984375 m 1
 375.446289062 13.4384765625 366.7734375 13 358 13 c 0
 350.24609375 13 342.575195312 13.337890625 335 14 c 1
 335 -89 l 1
 288 -89 l 1
 288 22.517578125 l 1
 179.259765625 52.8349609375 100 152.11328125 100 270 c 0
 100 388.716796875 179.259765625 488.13671875 288 518.477539062 c 1
 288 710 l 1
 335 710 l 1
 335 527 l 1
 342.575195312 527.662109375 350.24609375 528 358 528 c 0
 366.7734375 528 375.446289062 527.560546875 384 526.704101562 c 1
 384 373.864257812 l 1
 375.673828125 375.915039062 366.963867188 377 358 377 c 0
 350.081054688 377 342.387695312 376.181640625 335 374.622070312 c 1
 335 166.375976562 l 1
 342.387695312 164.818359375 350.081054688 164 358 164 c 0
 366.963867188 164 375.673828125 165.084960938 384 167.131835938 c 1
 384 14.2958984375 l 1
288 351.549804688 m 1
 265.219726562 332.071289062 251 303.001953125 251 270 c 0
 251 237.547851562 265.219726562 208.7265625 288 189.359375 c 1
 288 351.549804688 l 1
EndSplineSet
EndChar

StartChar: yen
Encoding: 165 165 123
Width: 612
VWidth: 0
Flags: HW
HStem: 206 62<86 630> 344 62<86 630>
VStem: 279 152<11 460>
LayerCount: 2
Fore
SplineSet
279 461 m 1
 279.365234375 461 l 1
 80 775 l 1
 232 775 l 1
 356 604 l 1
 480 775 l 1
 632 775 l 1
 432 460 l 1
 431 460 l 1
 431 406 l 1
 630 406 l 1
 630 344 l 1
 431 344 l 1
 431 268 l 1
 630 268 l 1
 630 206 l 1
 431 206 l 1
 431 11 l 1
 279 11 l 1
 279 206 l 1
 86 206 l 1
 86 268 l 1
 279 268 l 1
 279 344 l 1
 86 344 l 1
 86 406 l 1
 279 406 l 1
 279 461 l 1
EndSplineSet
EndChar

StartChar: questiondown
Encoding: 191 191 124
Width: 384
VWidth: 0
Flags: HW
HStem: 8 151<293.471 384> 697 142<232 384>
VStem: 100 151<201.066 328.017> 232 152<477.009 607 697 839>
LayerCount: 2
Fore
SplineSet
384 9 m 1
 375 8 367 8 358 8 c 0
 215 8 100 123 100 265 c 0
 100 362.168945312 153.098632812 446.41015625 232 490.426757812 c 1
 232 607 l 1
 384 607 l 1
 384 522 l 1
 384 397 l 1
 384 369 l 1
 376 371 367 372 358 372 c 0
 298 372 251 325 251 265 c 0
 251 206 298 159 358 159 c 0
 367 159 376 160 384 162 c 1
 384 9 l 1
384 839 m 1
 384 697 l 1
 232 697 l 1
 232 839 l 1
 384 839 l 1
EndSplineSet
EndChar

StartChar: plusminus
Encoding: 177 177 125
Width: 644
VWidth: 0
Flags: HW
HStem: -20 152<100 644> 354 152<100 644>
VStem: 296 152<159 702>
LayerCount: 2
Fore
SplineSet
296 702 m 1
 448 702 l 1
 448 506 l 1
 644 506 l 1
 644 354 l 1
 448 354 l 1
 448 159 l 1
 296 159 l 1
 296 354 l 1
 100 354 l 1
 100 506 l 1
 296 506 l 1
 296 702 l 1
644 132 m 1
 644 -20 l 1
 100 -20 l 1
 100 132 l 1
 644 132 l 1
EndSplineSet
EndChar

StartChar: gravecomb
Encoding: 768 768 127
Width: 0
VWidth: 0
GlyphClass: 4
Flags: HW
HStem: 526 289
VStem: -95 290
LayerCount: 2
Fore
SplineSet
87 526 m 1
 -95 708 l 1
 13 815 l 1
 195 633 l 1
 87 526 l 1
EndSplineSet
EndChar

StartChar: acutecomb
Encoding: 769 769 128
Width: 0
VWidth: 0
GlyphClass: 4
Flags: HW
HStem: 526 289
VStem: -95 290
LayerCount: 2
Fore
SplineSet
13 526 m 1
 -95 633 l 1
 87 815 l 1
 195 708 l 1
 13 526 l 1
EndSplineSet
EndChar

StartChar: uni0302
Encoding: 770 770 129
Width: 0
VWidth: 0
GlyphClass: 4
Flags: HW
HStem: 776.5 167<21 25.5 74.5 97.5>
VStem: -50.5 201
LayerCount: 2
Fore
SplineSet
-50.5 776.5 m 1
 21 943.5 l 1
 21.5 943.5 l 1
 97 943.5 l 1
 97.5 943.5 l 1
 150.5 776.5 l 1
 74.5 776.5 l 1
 53.5 883.5 l 1
 25.5 776.5 l 1
 -50.5 776.5 l 1
EndSplineSet
EndChar

StartChar: tildecomb
Encoding: 771 771 130
Width: 0
VWidth: 0
GlyphClass: 4
Flags: HW
HStem: 812.25 76.291<9.7273 154.864> 840.25 76<-66.384 35.496>
VStem: -74.75 249.5<764.486 812.25>
LayerCount: 2
Fore
SplineSet
174.75 928.75 m 1
 174.75 852.75 l 2
 174.548828125 852 146.666015625 812.25 110.75 812.25 c 0
 86.75 812.25 84.75 812.25 60.75 812.25 c 0
 28.75 812.25 16.25 840.25 -15.75 840.25 c 0
 -41.25 840.25 -74.75 812.25 -74.75 812.25 c 1
 -74.75 888.25 l 1
 -74.75 888.25 -42.75 916.25 -17.75 916.25 c 0
 15.25 916.25 29.25 888.75 62.25 888.75 c 0
 84.25 888.75 84.75 888.75 106.75 888.541015625 c 0
 141.25 888.75 174.75 928.75 174.75 928.75 c 1
EndSplineSet
EndChar

StartChar: uni0306
Encoding: 774 774 131
Width: 0
VWidth: 0
GlyphClass: 4
Flags: HW
HStem: 817.75 52<-40.3917 138.293>
VStem: -147.25 14.5<975.212 1031.98> 233.75 12.5<979.659 1037.14>
LayerCount: 2
Fore
SplineSet
178.5 941.5 m 1
 178.5 937.5 178.5 932.5 178.5 928.5 c 0
 178.5 856.5 121.5 799.5 50.5 799.5 c 0
 -21.5 799.5 -78.5 856.5 -78.5 928.5 c 0
 -78.5 932.5 -78.5 937.5 -78.5 941.5 c 1
 -1.5 941.5 l 1
 -2.5 937.5 -3.5 932.5 -3.5 928.5 c 0
 -3.5 898.5 20.5 874.5 50.5 874.5 c 0
 80.5 874.5 103.5 898.5 103.5 928.5 c 0
 103.5 932.5 102.5 937.5 101.5 941.5 c 1
 178.5 941.5 l 1
EndSplineSet
EndChar

StartChar: uni0304
Encoding: 772 772 132
Width: 0
VWidth: 0
GlyphClass: 4
Flags: HW
HStem: 792 76<-86 186>
VStem: -86 272<792 868>
LayerCount: 2
Fore
SplineSet
186 868 m 1
 186 792 l 1
 -86 792 l 1
 -86 868 l 1
 186 868 l 1
EndSplineSet
EndChar

StartChar: dieresis
Encoding: 168 168 133
Width: 452
VWidth: 0
Flags: HW
HStem: 8 142<100 252 300 452>
VStem: 100 152<8 150> 300 152<8 150>
LayerCount: 2
Fore
SplineSet
100 8 m 1
 100 150 l 1
 252 150 l 1
 252 8 l 1
 100 8 l 1
300 8 m 1
 300 150 l 1
 452 150 l 1
 452 8 l 1
 300 8 l 1
EndSplineSet
EndChar

StartChar: uni0308
Encoding: 776 776 135
Width: 0
VWidth: 0
GlyphClass: 4
Flags: HW
HStem: 508 142<-126 26 74 226>
VStem: -126 152<508 650> 74 152<508 650>
LayerCount: 2
Fore
SplineSet
-126 508 m 1
 -126 650 l 1
 26 650 l 1
 26 508 l 1
 -126 508 l 1
74 508 m 1
 74 650 l 1
 226 650 l 1
 226 508 l 1
 74 508 l 1
EndSplineSet
EndChar

StartChar: uni0307
Encoding: 775 775 136
Width: 0
VWidth: 0
GlyphClass: 4
Flags: HW
HStem: 508 142<-26 126>
VStem: -26 152<508 650>
LayerCount: 2
Fore
SplineSet
-26 508 m 1
 -26 650 l 1
 126 650 l 1
 126 508 l 1
 -26 508 l 1
EndSplineSet
EndChar

StartChar: hookabovecomb
Encoding: 777 777 137
Width: 0
VWidth: 0
GlyphClass: 4
Flags: HW
HStem: 442 77<-21 36.657> 624 75<-21 33.6663>
VStem: 46 75<528.071 612.495>
LayerCount: 2
Fore
SplineSet
-21 442 m 1
 -21 519 l 1
 -17 518 -12 517 -8 517 c 0
 22 517 46 540 46 570 c 0
 46 600 22 624 -8 624 c 0
 -12 624 -17 623 -21 622 c 1
 -21 699 l 1
 -17 699 -12 699 -8 699 c 0
 64 699 121 642 121 570 c 0
 121 499 64 442 -8 442 c 0
 -12 442 -17 442 -21 442 c 1
EndSplineSet
EndChar

StartChar: uni030A
Encoding: 778 778 138
Width: 0
VWidth: 0
GlyphClass: 4
Flags: HW
HStem: 442 75<38.1875 61.8125> 624 75<38.1875 61.8125>
VStem: -80 76<527.334 613.111> 104 76<527.933 612.698>
LayerCount: 2
Fore
SplineSet
50 624 m 0
 46 624 42 623 38 622 c 1
 38 623 l 1
 13 618 -4 596 -4 570 c 0
 -4 544 13 523 38 518 c 1
 38 519 l 1
 42 518 46 517 50 517 c 0
 54 517 58 518 62 519 c 1
 62 518 l 1
 87 523 104 544 104 570 c 0
 104 596 87 618 62 623 c 1
 62 622 l 1
 58 623 54 624 50 624 c 0
49 442 m 0
 48 442 48 442 47 442 c 0
 45 442 42 442 40 442 c 0
 -27 447 -80 502 -80 570 c 0
 -80 638 -27 694 40 699 c 0
 42 699 45 699 47 699 c 0
 48 699 48 699 49 699 c 0
 50 699 50 699 51 699 c 0
 123 699 180 642 180 570 c 0
 180 499 123 442 51 442 c 0
 50 442 50 442 49 442 c 0
EndSplineSet
EndChar

StartChar: uni030B
Encoding: 779 779 139
Width: 0
VWidth: 0
GlyphClass: 4
Flags: HW
HStem: 524 289
LayerCount: 2
Fore
SplineSet
-130 526 m 1
 -238 633 l 1
 -56 815 l 1
 52 708 l 1
 -130 526 l 1
156 524 m 1
 48 631 l 1
 230 813 l 1
 338 706 l 1
 156 524 l 1
EndSplineSet
EndChar

StartChar: uni030C
Encoding: 780 780 140
Width: 0
VWidth: 0
GlyphClass: 4
Flags: HW
HStem: 776 168<21 26 74 98>
VStem: -50 200
LayerCount: 2
Fore
SplineSet
-50 944 m 1
 26 944 l 1
 54 836 l 1
 74 944 l 1
 150 944 l 1
 98 776 l 1
 97 776 l 1
 22 776 l 1
 21 776 l 1
 -50 944 l 1
EndSplineSet
EndChar

StartChar: uni030F
Encoding: 783 783 141
Width: 0
VWidth: 0
GlyphClass: 4
Flags: HW
HStem: 524 289
LayerCount: 2
Fore
SplineSet
230 526 m 1
 48 708 l 1
 156 815 l 1
 338 633 l 1
 230 526 l 1
-56 524 m 1
 -238 706 l 1
 -130 813 l 1
 52 631 l 1
 -56 524 l 1
EndSplineSet
EndChar

StartChar: dotbelowcomb
Encoding: 803 803 142
Width: 0
VWidth: 0
GlyphClass: 4
Flags: HW
HStem: 8 142<-26 126>
VStem: -26 152<8 150>
LayerCount: 2
Fore
SplineSet
-26 8 m 1
 -26 150 l 1
 126 150 l 1
 126 8 l 1
 -26 8 l 1
EndSplineSet
EndChar

StartChar: uni0328
Encoding: 808 808 143
Width: 0
VWidth: 0
GlyphClass: 4
Flags: HW
HStem: -58 75<66.3337 121> 124 75<66.3337 121>
VStem: -21 75<28.0713 112.495>
LayerCount: 2
Fore
SplineSet
121 -58 m 1
 117 -58 112 -58 108 -58 c 0
 36 -58 -21 -1 -21 70 c 0
 -21 142 36 199 108 199 c 0
 112 199 117 199 121 199 c 1
 121 122 l 1
 117 123 112 124 108 124 c 0
 78 124 54 100 54 70 c 0
 54 40 78 17 108 17 c 0
 112 17 117 18 121 19 c 1
 121 -58 l 1
EndSplineSet
EndChar

StartChar: uni0327
Encoding: 807 807 144
Width: 0
VWidth: 0
GlyphClass: 4
Flags: HW
HStem: -58 77<-21 36.657> 124 75<-21 33.6663>
VStem: 46 75<28.0713 112.495>
LayerCount: 2
Fore
SplineSet
-21 -58 m 1
 -21 19 l 1
 -17 18 -12 17 -8 17 c 0
 22 17 46 40 46 70 c 0
 46 100 22 124 -8 124 c 0
 -12 124 -17 123 -21 122 c 1
 -21 199 l 1
 -17 199 -12 199 -8 199 c 0
 64 199 121 142 121 70 c 0
 121 -1 64 -58 -8 -58 c 0
 -12 -58 -17 -58 -21 -58 c 1
EndSplineSet
EndChar

StartChar: dotlessi
Encoding: 305 305 145
Width: 252
VWidth: 0
Flags: HW
HStem: 8 21G<100 252> 502 20G<100 252>
VStem: 100 152<8 522>
LayerCount: 2
Fore
SplineSet
100 522 m 1
 252 522 l 1
 252 8 l 1
 100 8 l 1
 100 522 l 1
EndSplineSet
EndChar

StartChar: uni0313
Encoding: 787 787 292
Width: 0
VWidth: 400
GlyphClass: 4
Flags: HW
HStem: 276 274<16.7676 69.1818>
VStem: -26 152<408 550>
LayerCount: 2
Fore
SplineSet
-26 408 m 1
 -26 550 l 1
 126 550 l 1
 126 408 l 1
 66 276 l 1
 8 280 l 1
 16.767578125 408 l 1
 -26 408 l 1
EndSplineSet
EndChar

StartChar: uni0312
Encoding: 786 786 293
Width: 0
VWidth: 400
GlyphClass: 4
Flags: HW
HStem: 276 274<30.8182 83.2324>
VStem: -26 152<276 418>
LayerCount: 2
Fore
SplineSet
126 418 m 1
 126 276 l 1
 -26 276 l 1
 -26 418 l 1
 34 550 l 1
 92 546 l 1
 83.232421875 418 l 1
 126 418 l 1
EndSplineSet
EndChar

StartChar: uni0326
Encoding: 806 806 297
Width: 0
VWidth: 100
GlyphClass: 4
Flags: HW
HStem: -24 274<16.7676 69.1818>
VStem: -26 152<108 250>
LayerCount: 2
Fore
SplineSet
-26 108 m 1
 -26 250 l 1
 126 250 l 1
 126 108 l 1
 66 -24 l 1
 8 -20 l 1
 16.767578125 108 l 1
 -26 108 l 1
EndSplineSet
EndChar

StartChar: multiply
Encoding: 215 215 308
Width: 724
VWidth: 200
Flags: HW
HStem: 209 20G<118.427 279 531.563 724> 703 20G<117.437 286 530.573 723>
LayerCount: 2
Fore
SplineSet
100 723 m 1
 286 721 l 1
 415.491210938 569.926757812 l 1
 548 722 l 1
 723 721 l 1
 502.584960938 468.317382812 l 1
 724 210 l 1
 549 208 l 1
 412.291015625 364.8046875 l 1
 279 212 l 1
 101 209 l 1
 324.5 465.5 l 1
 100 723 l 1
EndSplineSet
EndChar

StartChar: periodcentered
Encoding: 183 183 309
Width: 252
VWidth: 400
Flags: HW
HStem: 408 142<100 252>
VStem: 100 152<408 550>
LayerCount: 2
Fore
SplineSet
100 408 m 1
 100 550 l 1
 252 550 l 1
 252 408 l 1
 100 408 l 1
EndSplineSet
EndChar

StartChar: registered
Encoding: 174 174 310
Width: 864
VWidth: 0
Flags: HW
LayerCount: 2
Fore
SplineSet
716.760742188 388.5546875 m 0
 716.760742188 520.799804688 612.1953125 628.44140625 482 628.44140625 c 0
 351.8046875 628.44140625 247.239257812 520.799804688 247.239257812 388.5546875 c 0
 247.239257812 255.284179688 351.8046875 147.642578125 482 147.642578125 c 0
 612.1953125 147.642578125 716.760742188 255.284179688 716.760742188 388.5546875 c 0
760.477539062 389.865234375 m 0
 760.477539062 230.942382812 635.819335938 102.638671875 482 102.638671875 c 0
 328.180664062 102.638671875 203.522460938 230.942382812 203.522460938 389.865234375 c 0
 203.522460938 548.057617188 328.180664062 676.361328125 482 676.361328125 c 0
 635.819335938 676.361328125 760.477539062 548.057617188 760.477539062 389.865234375 c 0
445.185546875 255.545898438 m 1
 389.78125 255.545898438 l 1
 389.78125 538.3984375 l 1
 445.185546875 538.3984375 l 2
 448.1015625 538.762695312 451.017578125 538.762695312 453.932617188 538.762695312 c 0
 506.057617188 538.762695312 547.974609375 496.845703125 547.974609375 445.0859375 c 0
 547.974609375 404.137695312 522.103515625 369.48828125 485.73828125 356.512695312 c 1
 558.1796875 253.359375 l 1
 507.150390625 253.359375 l 1
 446.977539062 351.228515625 l 2
 446.37890625 351.275390625 445.783203125 351.334960938 445.185546875 351.409179688 c 1
 445.185546875 255.545898438 l 1
445.185546875 482.629882812 m 2
 445.185546875 407.178710938 l 2
 448.1015625 406.44921875 451.017578125 406.083984375 453.932617188 406.083984375 c 0
 475.802734375 406.083984375 492.935546875 423.216796875 492.935546875 445.0859375 c 0
 492.935546875 466.591796875 475.802734375 483.72265625 453.932617188 483.72265625 c 0
 451.017578125 483.72265625 448.1015625 483.358398438 445.185546875 482.629882812 c 2
EndSplineSet
EndChar

StartChar: copyright
Encoding: 169 169 311
Width: 864
VWidth: 0
Flags: HW
LayerCount: 2
Fore
SplineSet
775.451171875 388.318359375 m 0
 775.451171875 553.625 644.744140625 688.176757812 482 688.176757812 c 0
 319.255859375 688.176757812 188.548828125 553.625 188.548828125 388.318359375 c 0
 188.548828125 221.73046875 319.255859375 87.177734375 482 87.177734375 c 0
 644.744140625 87.177734375 775.451171875 221.73046875 775.451171875 388.318359375 c 0
830.096679688 389.95703125 m 0
 830.096679688 191.302734375 674.274414062 30.923828125 482 30.923828125 c 0
 289.725585938 30.923828125 133.903320312 191.302734375 133.903320312 389.95703125 c 0
 133.903320312 587.697265625 289.725585938 748.076171875 482 748.076171875 c 0
 674.274414062 748.076171875 830.096679688 587.697265625 830.096679688 389.95703125 c 0
543.25 205.623046875 m 1
 537.904296875 205.086914062 532.483398438 204.8125 527 204.8125 c 0
 437.625 204.8125 365.75 276.6875 365.75 365.4375 c 0
 365.75 454.8125 437.625 526.6875 527 526.6875 c 0
 532.483398438 526.6875 537.904296875 526.413085938 543.25 525.876953125 c 1
 543.25 430.353515625 l 1
 538.045898438 431.634765625 532.6015625 432.3125 527 432.3125 c 0
 489.5 432.3125 460.125 402.9375 460.125 365.4375 c 0
 460.125 328.5625 489.5 299.1875 527 299.1875 c 0
 532.6015625 299.1875 538.045898438 299.865234375 543.25 301.145507812 c 1
 543.25 205.623046875 l 1
EndSplineSet
EndChar

StartChar: brokenbar
Encoding: 166 166 312
Width: 252
VWidth: 0
Flags: HW
HStem: 8 21G<100 252> 502 20G<100 252> 640 142<100 252>
VStem: 100 152<8 522 640 782>
LayerCount: 2
Fore
SplineSet
252 843 m 1
 252 469 l 1
 100 469 l 1
 100 843 l 1
 252 843 l 1
252 380 m 1
 252 -20 l 1
 100 -20 l 1
 100 380 l 1
 252 380 l 1
EndSplineSet
EndChar

StartChar: section
Encoding: 167 167 313
Width: 512
VWidth: 0
Flags: HW
LayerCount: 2
Fore
SplineSet
25 118 m 1
 100 243 l 1
 106 238 112 233 122 228 c 0
 173 198 237 215 267 263 c 0
 299 319 249 367 197 376 c 1
 71 444 -13 559 71 700 c 0
 97.2392578125 743.482421875 135.703125 776.145507812 180.123046875 796.461914062 c 1
 116.170898438 862.720703125 91.6455078125 949.369140625 151 1049 c 0
 221 1165 378 1204 503 1137 c 0
 509 1131 517 1128 524 1122 c 1
 449 997 l 1
 443 1002 437 1007 427 1012 c 0
 376 1040 312 1024 282 975 c 0
 249 920 282 839 346 828 c 1
 360.34765625 820.274414062 374.423828125 812.217773438 387.923828125 803.76953125 c 0
 399.82421875 799.388671875 411.545898438 794.139648438 423 788 c 0
 429 782 437 779 444 773 c 1
 439.928710938 766.21484375 l 1
 505.184570312 710.543945312 537.126953125 639.032226562 477 540 c 0
 445.942382812 487.336914062 397.055664062 450.4765625 341.283203125 432.063476562 c 1
 418.58984375 374.361328125 462.611328125 299.06640625 397 191 c 0
 328 74 171 35 46 103 c 0
 40 109 32 112 25 118 c 1
189.249023438 584.6796875 m 0
 192.80859375 582.120117188 196.879882812 579.559570312 202 577 c 0
 253 547 317 564 347 612 c 0
 356.247070312 628.18359375 358.647460938 643.698242188 356.12890625 657.796875 c 0
 353.456054688 659.53125 350.46875 661.265625 347 663 c 0
 296 691 232 675 202 626 c 0
 194.336914062 613.227539062 190.232421875 599.053710938 189.249023438 584.6796875 c 0
EndSplineSet
EndChar

StartChar: paragraph
Encoding: 182 182 314
Width: 776
VWidth: 0
Flags: HW
HStem: 275 151<293.471 382> 639 150<293.591 381.625>
VStem: 382 152<13 276 426.026 638.974> 100 151<468.471 596.934>
LayerCount: 2
Fore
SplineSet
382 13 m 1
 382 276 l 1
 374 275 366 275 358 275 c 0
 215 275 100 390 100 533 c 0
 100 675 215 790 358 790 c 0
 366 790 374 790 382 789 c 2
 534 789 l 1
 534 13 l 1
 382 13 l 1
600 784 m 1
 752 784 l 1
 752 8 l 1
 600 8 l 1
 600 784 l 1
EndSplineSet
EndChar

StartChar: Thorn
Encoding: 222 222 315
Width: 512
VWidth: 0
Flags: HW
HStem: -192 21G<100 252> 5 151<252 340.529> 369 150<252.375 340.409>
VStem: 100 152<-192 6 156.026 368.974> 383 151<198.471 326.934>
LayerCount: 2
Fore
SplineSet
252 571 m 1
 252 364 l 1
 260 362 268 361 276 361 c 0
 336 361 383 408 383 468 c 0
 383 527 336 574 276 574 c 0
 268 574 260 573 252 571 c 1
252 13 m 1
 100 13 l 1
 100 913 l 1
 247 913 l 1
 252 724 l 1
 260 725 268 725 276 725 c 0
 419 725 534 610 534 468 c 0
 534 325 419 210 276 210 c 0
 268 210 260 210 252 211 c 1
 252 13 l 1
EndSplineSet
EndChar

StartChar: germandbls
Encoding: 223 223 316
Width: 771
VWidth: 0
Flags: HW
LayerCount: 2
Fore
SplineSet
288.615234375 57 m 1
 355.615234375 169 l 1
 361.615234375 163 368.615234375 160 377.615234375 157 c 0
 430.615234375 133 474.615234375 141 500.615234375 172 c 0
 529.615234375 206 478.615234375 212 424.615234375 221 c 1
 296.615234375 272 225.615234375 355 300.615234375 444 c 0
 361.99609375 518.046875 406.811523438 608.086914062 531.775390625 559.022460938 c 0
 532.515625 559.0078125 533.256835938 559 534 559 c 0
 594 559 641 606 641 666 c 0
 641 730.255859375 265.541992188 742.190429688 223 693 c 1
 223 12 l 1
 56 12 l 1
 59 694 l 1
 75 749.333007812 105.333007812 794.333007812 150 829 c 0
 289.345703125 937.1484375 792 866.984375 792 666 c 0
 792 293.000976562 590.864257812 547.412109375 475.615234375 410 c 0
 445.615234375 375 442.615234375 296 506.615234375 285 c 1
 625.615234375 235 728.615234375 174 652.615234375 85 c 0
 590.615234375 9 437.615234375 -11 310.615234375 44 c 0
 303.615234375 46 296.615234375 51 288.615234375 57 c 1
EndSplineSet
EndChar

StartChar: thorn
Encoding: 254 254 317
Width: 512
VWidth: 0
Flags: HW
HStem: -192 21G<100 252> 5 151<252 340.529> 369 150<252.375 340.409>
VStem: 100 152<-192 6 156.026 368.974> 383 151<198.471 326.934>
LayerCount: 2
Fore
SplineSet
252 369 m 1
 252 162 l 1
 260 160 268 159 276 159 c 0
 336 159 383 206 383 266 c 0
 383 325 336 372 276 372 c 0
 268 372 260 371 252 369 c 1
252 -189 m 1
 100 -189 l 1
 100 711 l 1
 247 711 l 1
 252 522 l 1
 260 523 268 523 276 523 c 0
 419 523 534 408 534 266 c 0
 534 123 419 8 276 8 c 0
 268 8 260 8 252 9 c 1
 252 -189 l 1
EndSplineSet
EndChar

StartChar: AE
Encoding: 198 198 318
Width: 1024
VWidth: 0
Flags: HW
HStem: 7 152<608 1023> 343 152<608 915> 636 152<608 1023>
VStem: 456 568<7 159 636 788> 456 152<159 343 495 636>
LayerCount: 2
Fore
SplineSet
915 495 m 1
 916 343 l 1
 608 343 l 1
 608 159 l 1
 1023 159 l 1
 1024 7 l 1
 457 7 l 1
 456.993164062 8 l 1
 456 8 l 1
 456 237 l 1
 311.038085938 237 l 1
 252 10 l 1
 100 10 l 1
 300 788 l 1
 1023 788 l 1
 1024 636 l 1
 608 636 l 1
 608 495 l 1
 915 495 l 1
456.827148438 377 m 1
 391.200195312 545.223632812 l 1
 347.448242188 377 l 1
 456.827148438 377 l 1
EndSplineSet
EndChar

StartChar: Eth
Encoding: 208 208 319
Width: 690
VWidth: 0
Flags: HW
HStem: -3.9789 157.014<312 397.489> 621.965 161.035<312 403.477>
VStem: 160 152<-4 -3.9789 153.035 621.965> 537 153<292.064 485.736>
LayerCount: 2
Fore
SplineSet
160 778 m 1
 209.62109375 770.911132812 258.3828125 783 308 783 c 0
 519 783 690 607 690 390 c 0
 690 173.37890625 521.157226562 -1.771484375 312 -3.978515625 c 2
 160 -4 l 1
 160 354 l 1
 100 354 l 1
 100 506 l 1
 160 506 l 1
 160 778 l 1
312 153.03515625 m 1
 437.134765625 155.211914062 537 259.368164062 537 388 c 0
 537 515.642578125 437.134765625 619.788085938 312 621.96484375 c 1
 312 506 l 1
 371 506 l 1
 371 354 l 1
 312 354 l 1
 312 153.03515625 l 1
EndSplineSet
EndChar

StartChar: Oslash
Encoding: 216 216 320
Width: 864
VWidth: 0
Flags: HW
HStem: -4 157<387.027 576.973> 622 161<387.027 576.973>
VStem: 100 153<288.712 488.774> 711 153<288.712 488.774>
LayerCount: 2
Fore
SplineSet
648.806640625 548.438476562 m 1
 424.731445312 160.348632812 l 1
 443.01953125 155.55078125 462.206054688 153 482 153 c 0
 609 153 711 258 711 388 c 0
 711 450.03125 687.415039062 506.51171875 648.806640625 548.438476562 c 1
544.91796875 613.094726562 m 1
 524.9453125 618.89453125 503.842773438 622 482 622 c 0
 355 622 253 517 253 388 c 0
 253 323.299804688 278.265625 264.791992188 319.302734375 222.33984375 c 1
 544.91796875 613.094726562 l 1
864 390 m 0
 864 172 693 -4 482 -4 c 0
 433.677734375 -4 387.452148438 5.2314453125 344.899414062 22.0830078125 c 1
 290 -73 l 1
 184 -12 l 1
 240.001953125 84.9931640625 l 1
 154.53125 157.181640625 100 266.893554688 100 390 c 0
 100 607 271 783 482 783 c 0
 533.051757812 783 581.76171875 772.697265625 626.275390625 754.002929688 c 1
 669 828 l 1
 775 767 l 1
 729.946289062 688.96875 l 1
 811.991210938 616.87890625 864 509.674804688 864 390 c 0
EndSplineSet
EndChar

StartChar: ae
Encoding: 230 230 321
Width: 905
VWidth: 0
Flags: HW
HStem: 13 151<581.073 894.239> 215.32 128.941<568.301 725.264> 377 151<580.682 710.767>
VStem: 388 517<218.188 340.811>
LayerCount: 2
Fore
SplineSet
904 270 m 0
 904 251.328125 905 233 905 218 c 1
 557.985351562 215.3203125 l 1
 576.489257812 184.45703125 606.416015625 164 646 164 c 0
 660.516601562 164 882 167 895 172 c 1
 895 16 l 1
 882 14 659.946289062 13 646 13 c 0
 613.931640625 13 583.271484375 18.783203125 555 29.357421875 c 1
 382 11 l 1
 382 19 l 1
 374 18 366 18 358 18 c 0
 215 18 100 133 100 276 c 0
 100 418 215 525 358 525 c 0
 366 525 374 525 382 524 c 2
 555 524 l 1
 646 528 l 1
 788 528 904 413 904 270 c 0
382 379 m 1
 374 381 366 382 358 382 c 0
 298 382 251 335 251 276 c 0
 251 216 298 169 358 169 c 0
 366 169 374 170 382 172 c 1
 382 379 l 1
552.680664062 306.67578125 m 1
 744.883789062 304.1015625 l 1
 720.395507812 330.966796875 685.046875 385.099609375 645.8046875 385.099609375 c 0
 607.188476562 385.099609375 576.879882812 332.025390625 552.680664062 306.67578125 c 1
EndSplineSet
EndChar

StartChar: eth
Encoding: 240 240 322
Width: 612
VWidth: 0
Flags: HW
HStem: 13 151<292.454 382> 377 151<293.471 382>
VStem: 100 151<206.066 334.529> 382 152<14 14.1035 164.011 376.989 526.896 790>
LayerCount: 2
Fore
SplineSet
185 790 m 1
 337 790 l 1
 341.977539062 785.721679688 346.989257812 781.3984375 352.025390625 777.025390625 c 1
 390 815 l 1
 477 739 l 1
 436.727539062 698.727539062 l 1
 580.248046875 554.008789062 695.58203125 352.99609375 534 14 c 1
 382 14 l 1
 382 14.103515625 l 1
 374.095703125 13.373046875 366.08984375 13 358 13 c 0
 215 13 100 128 100 270 c 0
 100 413 215 528 358 528 c 0
 366.08984375 528 374.095703125 527.626953125 382 526.896484375 c 1
 331.860351562 593.860351562 l 1
 295 557 l 1
 208 633 l 1
 262.069335938 687.069335938 l 1
 185 790 l 1
359.955078125 376.982421875 m 0
 351.641601562 376.842773438 343.393554688 375.848632812 336 374 c 1
 336 374.828125 l 1
 286.8984375 364.9453125 251 322.4375 251 270 c 0
 251 218.436523438 286.8984375 176.0390625 336 166.169921875 c 1
 336 167 l 1
 343.393554688 165.151367188 351.641601562 164.157226562 359.955078125 164.017578125 c 0
 368.23046875 164.163085938 376.280273438 165.234375 384 167.131835938 c 1
 384 166.169921875 l 1
 433.1015625 176.0390625 469 218.436523438 469 270 c 0
 469 322.4375 433.1015625 364.9453125 384 374.828125 c 1
 384 373.864257812 l 1
 376.280273438 375.765625 368.23046875 376.836914062 359.955078125 376.982421875 c 0
EndSplineSet
EndChar

StartChar: divide
Encoding: 247 247 323
Width: 644
VWidth: 0
Flags: HW
HStem: 8 142<100 252> 408 142<100 252>
VStem: 100 152<8 150 408 550>
LayerCount: 2
Fore
SplineSet
300 161 m 1
 300 303 l 1
 452 303 l 1
 452 161 l 1
 300 161 l 1
300 561 m 1
 300 703 l 1
 452 703 l 1
 452 561 l 1
 300 561 l 1
644 506 m 1
 644 354 l 1
 100 354 l 1
 100 506 l 1
 644 506 l 1
EndSplineSet
EndChar

StartChar: oslash
Encoding: 248 248 324
Width: 616
VWidth: 0
Flags: HW
HStem: 13 21G<357.408 358.151 361.478 433.5> 508 20G<357.408 358.151 361.478 433.5>
VStem: 100 151<207.14 333.449> 469 151<205.844 334.753>
LayerCount: 2
Fore
SplineSet
373.872070312 165.151367188 m 1
 377.303710938 165.653320312 380.682617188 166.31640625 384 167.131835938 c 1
 384 166.169921875 l 1
 433.1015625 176.0390625 469 218.436523438 469 270 c 0
 469 285.224609375 465.973632812 299.612304688 460.477539062 312.607421875 c 1
 373.872070312 165.151367188 l 1
356.393554688 376.870117188 m 1
 349.299804688 376.541015625 342.3359375 375.583984375 336 374 c 1
 336 374.828125 l 1
 286.8984375 364.9453125 251 322.4375 251 270 c 0
 251 251.526367188 255.607421875 234.229492188 263.780273438 219.182617188 c 1
 356.393554688 376.870117188 l 1
100 270 m 0
 100 410.959960938 211.197265625 528 358 528 c 0
 358.301757812 528 358.603515625 527.999023438 358.905273438 527.998046875 c 0
 359.92578125 528 360.956054688 528 362 528 c 0
 388.643554688 528 414.315429688 524.0078125 438.452148438 516.5859375 c 1
 508 635 l 1
 614 574 l 1
 543.41796875 453.82421875 l 1
 590.752929688 407.109375 620 342.115234375 620 270 c 0
 620 128 505 13 362 13 c 0
 360.956054688 13 359.92578125 13.001953125 358.90625 13.001953125 c 0
 358.603515625 13.001953125 358.301757812 13 358 13 c 0
 332.426757812 13 311.399414062 16.169921875 289.807617188 22.0205078125 c 1
 234 -73 l 1
 128 -12 l 1
 182.735351562 81.1943359375 l 1
 131.793945312 128.135742188 100 195.3359375 100 270 c 0
EndSplineSet
EndChar

StartChar: dcaron
Encoding: 271 271 326
Width: 710
VWidth: 0
Flags: HW
HStem: 13 151<292.454 382> 377 151<293.471 382>
VStem: 100 151<206.066 334.529> 382 152<14 14.1035 164.011 376.989 526.896 790>
LayerCount: 2
Fore
SplineSet
382 166.66015625 m 1
 382 374.336914062 l 1
 374.282226562 376.081054688 366.249023438 377 358 377 c 0
 298 377 251 330 251 270 c 0
 251 211 298 164 358 164 c 0
 366.249023438 164 374.282226562 164.918945312 382 166.66015625 c 1
382 790 m 1
 534 790 l 1
 534 14 l 1
 382 14 l 1
 382 14.103515625 l 1
 374.095703125 13.373046875 366.08984375 13 358 13 c 0
 215 13 100 128 100 270 c 0
 100 413 215 528 358 528 c 0
 366.08984375 528 374.095703125 527.626953125 382 526.896484375 c 1
 382 790 l 1
566 542 m 1
 566 799 l 1
 718 799 l 1
 673 542 l 1
 566 542 l 1
EndSplineSet
EndChar

StartChar: dcroat
Encoding: 273 273 327
Width: 585
VWidth: 0
Flags: HW
HStem: 13 151<292.454 382> 377 151<293.471 382>
VStem: 100 151<206.066 334.529> 382 152<14 14.1035 164.011 376.989 526.896 790>
LayerCount: 2
Fore
SplineSet
382 166.66015625 m 1
 382 374.336914062 l 1
 374.282226562 376.081054688 366.249023438 377 358 377 c 0
 298 377 251 330 251 270 c 0
 251 211 298 164 358 164 c 0
 366.249023438 164 374.282226562 164.918945312 382 166.66015625 c 1
382 790 m 1
 534 790 l 1
 534 749 l 1
 585 749 l 1
 585 597 l 1
 534 597 l 1
 534 14 l 1
 382 14 l 1
 382 14.103515625 l 1
 374.095703125 13.373046875 366.08984375 13 358 13 c 0
 215 13 100 128 100 270 c 0
 100 413 215 528 358 528 c 0
 366.08984375 528 374.095703125 527.626953125 382 526.896484375 c 1
 382 597 l 1
 314 597 l 1
 314 749 l 1
 382 749 l 1
 382 790 l 1
EndSplineSet
EndChar

StartChar: Hbar
Encoding: 294 294 328
Width: 652
VWidth: 0
Flags: HW
HStem: 8 21G<100 252 500 652> 343 152<252 500> 764 20G<100 252 500 652>
VStem: 100 152<8 343 495 784> 500 152<8 343 495 784>
LayerCount: 2
Fore
SplineSet
252 571 m 1
 252 495 l 1
 500 495 l 1
 500 571 l 1
 252 571 l 1
500 784 m 1
 652 784 l 1
 652 723 l 1
 697 723 l 1
 697 571 l 1
 652 571 l 1
 652 8 l 1
 500 8 l 1
 500 343 l 1
 252 343 l 1
 252 8 l 1
 100 8 l 1
 100 571 l 1
 50 571 l 1
 50 723 l 1
 100 723 l 1
 100 784 l 1
 252 784 l 1
 252 723 l 1
 500 723 l 1
 500 784 l 1
EndSplineSet
EndChar

StartChar: hbar
Encoding: 295 295 329
Width: 658
VWidth: 0
Flags: HW
HStem: 654 152<111 655>
LayerCount: 2
Fore
SplineSet
388 741 m 1
 388 589 l 1
 330 589 l 1
 330 522 l 1
 356 530 382 534 410 534 c 0
 528 534 624 456 655 347 c 1
 658 16 l 1
 491 16 l 1
 491 346 l 1
 471 369 443 383 410 383 c 0
 378 383 350 370 330 348 c 1
 330 16 l 1
 161 16 l 1
 161 589 l 1
 100 589 l 1
 100 741 l 1
 161 741 l 1
 161 778 l 1
 330 778 l 1
 330 741 l 1
 388 741 l 1
EndSplineSet
EndChar

StartChar: lcaron
Encoding: 318 318 332
Width: 419
VWidth: 0
Flags: HW
HStem: 7 151<283.008 413.885> 751 20G<100 267>
VStem: 103 164<176.215 771>
LayerCount: 2
Fore
SplineSet
419 16 m 1
 396.333007812 10 372.666992188 7 348 7 c 0
 290 7 238.666992188 24.3330078125 194 59 c 0
 149.333007812 93.6669921875 119 138.666992188 103 194 c 1
 100 771 l 1
 267 771 l 1
 267 195 l 1
 288.333007812 170.333007812 315.333007812 158 348 158 c 0
 374.666992188 158 398.333007812 166.666992188 419 184 c 1
 419 16 l 1
310 514 m 1
 310 771 l 1
 462 771 l 1
 417 514 l 1
 310 514 l 1
EndSplineSet
EndChar

StartChar: Lslash
Encoding: 321 321 333
Width: 718
VWidth: 0
Flags: HW
HStem: 7 152<252 717> 764 20G<100 252>
VStem: 100 152<159 784>
LayerCount: 2
Fore
SplineSet
100 784 m 1
 252 784 l 1
 252 159 l 1
 717 159 l 1
 718 7 l 1
 101 7 l 1
 100.993164062 8 l 1
 100 8 l 1
 100 784 l 1
EndSplineSet
EndChar

StartChar: Lcaron
Encoding: 317 317 334
Width: 718
VWidth: 0
Flags: HW
HStem: 7 152<252 717> 764 20G<100 252>
VStem: 100 152<159 784>
LayerCount: 2
Fore
SplineSet
100 784 m 1
 252 784 l 1
 252 159 l 1
 717 159 l 1
 718 7 l 1
 101 7 l 1
 100.993164062 8 l 1
 100 8 l 1
 100 784 l 1
302 530 m 1
 302 787 l 1
 454 787 l 1
 409 530 l 1
 302 530 l 1
EndSplineSet
EndChar

StartChar: lslash
Encoding: 322 322 335
Width: 419
VWidth: 0
Flags: HW
HStem: 7 151<283.008 413.885> 751 20G<100 267>
VStem: 103 164<176.215 771>
LayerCount: 2
Fore
SplineSet
419 16 m 1
 396.333007812 10 372.666992188 7 348 7 c 0
 290 7 238.666992188 24.3330078125 194 59 c 0
 149.333007812 93.6669921875 119 138.666992188 103 194 c 1
 100 771 l 1
 267 771 l 1
 267 195 l 1
 288.333007812 170.333007812 315.333007812 158 348 158 c 0
 374.666992188 158 398.333007812 166.666992188 419 184 c 1
 419 16 l 1
EndSplineSet
EndChar

StartChar: OE
Encoding: 338 338 336
Width: 1068
VWidth: 0
Flags: HW
HStem: 7 152<652 1067> 343 152<652 959> 636 152<652 1067>
VStem: 500 568<7 159 636 788> 500 152<159 343 495 636>
LayerCount: 2
Fore
SplineSet
482 622 m 0
 355 622 253 517 253 388 c 0
 253 258 355 153 482 153 c 0
 488.059570312 153 494.0625 153.239257812 500 153.708007812 c 1
 500 621.291992188 l 1
 494.0625 621.760742188 488.059570312 622 482 622 c 0
959 495 m 1
 960 343 l 1
 652 343 l 1
 652 159 l 1
 1067 159 l 1
 1068 7 l 1
 555 7 l 1
 555 3.169921875 l 1
 531.37109375 -1.5361328125 506.965820312 -4 482 -4 c 0
 271 -4 100 172 100 390 c 0
 100 607 271 783 482 783 c 0
 488.034179688 783 494.03515625 782.856445312 500 782.571289062 c 1
 500 784 l 1
 500 788 l 1
 1067 788 l 1
 1068 636 l 1
 652 636 l 1
 652 495 l 1
 959 495 l 1
EndSplineSet
EndChar

StartChar: oe
Encoding: 339 339 337
Width: 1000
VWidth: 0
Flags: HW
LayerCount: 2
Fore
SplineSet
358.90625 13.001953125 m 0
 358.603515625 13.001953125 358.301757812 13 358 13 c 0
 356.815429688 13 355.631835938 13.0078125 354.451171875 13.0234375 c 0
 349.662109375 13.0693359375 345.004882812 13.205078125 340.133789062 13.6025390625 c 0
 205.541992188 22.708984375 100 133.96484375 100 270 c 0
 100 406.991210938 205.5390625 518.286132812 340.12890625 527.397460938 c 0
 345.001953125 527.794921875 349.66015625 527.930664062 354.451171875 527.9765625 c 0
 355.631835938 527.9921875 356.815429688 528 358 528 c 0
 358.301757812 528 358.603515625 527.999023438 358.905273438 527.998046875 c 0
 359.92578125 528 360.956054688 528 362 528 c 0
 436.818359375 528 503.971679688 496.51953125 551 446.018554688 c 1
 598.028320312 496.51953125 665.181640625 528 740 528 c 0
 882 528 998 413 998 270 c 0
 998 251.328125 999 233 999 218 c 1
 647.985351562 215.3203125 l 1
 666.489257812 184.45703125 700.416015625 164 740 164 c 0
 754.516601562 164 976 167 989 172 c 1
 989 16 l 1
 976 14 753.946289062 13 740 13 c 0
 665.181640625 13 598.028320312 44.48046875 551 94.837890625 c 1
 503.971679688 44.48046875 436.818359375 13 362 13 c 0
 360.956054688 13 359.92578125 13.001953125 358.90625 13.001953125 c 0
642.680664062 306.67578125 m 1
 838.883789062 304.1015625 l 1
 814.395507812 330.966796875 779.046875 385.099609375 739.8046875 385.099609375 c 0
 701.188476562 385.099609375 666.879882812 332.025390625 642.680664062 306.67578125 c 1
359.955078125 376.982421875 m 0
 351.641601562 376.842773438 343.393554688 375.848632812 336 374 c 1
 336 374.828125 l 1
 286.8984375 364.9453125 251 322.4375 251 270 c 0
 251 218.436523438 286.8984375 176.0390625 336 166.169921875 c 1
 336 167 l 1
 343.393554688 165.151367188 351.641601562 164.157226562 359.955078125 164.017578125 c 0
 368.23046875 164.163085938 376.280273438 165.234375 384 167.131835938 c 1
 384 166.169921875 l 1
 433.1015625 176.0390625 469 218.436523438 469 270 c 0
 469 322.4375 433.1015625 364.9453125 384 374.828125 c 1
 384 373.864257812 l 1
 376.280273438 375.765625 368.23046875 376.836914062 359.955078125 376.982421875 c 0
EndSplineSet
EndChar

StartChar: tcaron
Encoding: 357 357 338
Width: 630
VWidth: 0
Flags: HW
HStem: 7 151<378.285 509.024> 374 152<100 196.274 362 459> 751 20G<195 362>
VStem: 196.274 165.726<178.881 374 526 771>
LayerCount: 2
Fore
SplineSet
514 16 m 1
 491 10 468 7 443 7 c 0
 325 7 229 85 198 194 c 1
 197.064453125 374 l 1
 100 374 l 1
 100 526 l 1
 196.2734375 526 l 1
 195 771 l 1
 362 771 l 1
 362 526 l 1
 459 526 l 1
 459 374 l 1
 362 374 l 1
 362 195 l 1
 382 172 410 158 443 158 c 0
 470 158 495 168 514 184 c 1
 514 16 l 1
491 514 m 1
 491 771 l 1
 643 771 l 1
 598 514 l 1
 491 514 l 1
EndSplineSet
EndChar

StartChar: uni0237
Encoding: 567 567 343
Width: 419
VWidth: 0
Flags: HW
HStem: -194 151<105.445 235.159> 507 20G<252 419> 640 142<264 416>
VStem: 252 164<-22.1189 527> 264 152<640 782>
LayerCount: 2
Fore
SplineSet
100 -185 m 1
 100 -17 l 1
 119 -33 144 -43 171 -43 c 0
 204 -43 232 -29 252 -6 c 1
 252 527 l 1
 419 527 l 1
 416 -7 l 1
 385 -116 289 -194 171 -194 c 0
 146 -194 123 -191 100 -185 c 1
EndSplineSet
EndChar

StartChar: uni1E9E
Encoding: 7838 7838 359
Width: 771
VWidth: 0
Flags: HW
LayerCount: 2
Fore
SplineSet
288.615234375 57 m 1
 355.615234375 169 l 1
 361.615234375 163 368.615234375 160 377.615234375 157 c 0
 430.615234375 133 474.615234375 141 500.615234375 172 c 0
 529.615234375 206 478.615234375 212 424.615234375 221 c 1
 296.615234375 272 225.615234375 450 300.615234375 539 c 0
 361.99609375 613.046875 406.811523438 703.086914062 531.775390625 654.022460938 c 0
 532.515625 654.0078125 533.256835938 654 534 654 c 0
 594 654 641 606 641 666 c 0
 641 730.255859375 265.541992188 742.190429688 223 693 c 1
 223 12 l 1
 56 12 l 1
 59 694 l 1
 75 749.333007812 105.333007812 794.333007812 150 829 c 0
 289.345703125 937.1484375 792 866.984375 792 666 c 0
 792 293.000976562 590.864257812 642.412109375 475.615234375 505 c 0
 445.615234375 470 442.615234375 391 506.615234375 380 c 1
 625.615234375 330 728.615234375 174 652.615234375 85 c 0
 590.615234375 9 437.615234375 -11 310.615234375 44 c 0
 303.615234375 46 296.615234375 51 288.615234375 57 c 1
EndSplineSet
EndChar

StartChar: uni0982
Encoding: 2434 2434 365
Width: 445
VWidth: 0
Flags: HW
HStem: 92 75<548.188 571.812> 274 75<548.188 571.812> 493 75<243.188 266.812> 675 75<243.188 266.812>
VStem: 125 76<578.334 664.111> 309 76<578.933 663.698> 430 76<177.334 263.111> 614 76<177.933 262.698>
LayerCount: 2
Fore
SplineSet
208 437 m 5
 441 79 l 5
 335 18 l 5
 102 376 l 5
 208 437 l 5
255 675 m 0
 251 675 247 674 243 673 c 1
 243 674 l 1
 218 669 201 647 201 621 c 0
 201 595 218 574 243 569 c 1
 243 570 l 1
 247 569 251 568 255 568 c 0
 259 568 263 569 267 570 c 1
 267 569 l 1
 292 574 309 595 309 621 c 0
 309 647 292 669 267 674 c 1
 267 673 l 1
 263 674 259 675 255 675 c 0
254 493 m 0
 253 493 253 493 252 493 c 0
 250 493 247 493 245 493 c 0
 178 498 125 553 125 621 c 0
 125 689 178 745 245 750 c 0
 247 750 250 750 252 750 c 0
 253 750 253 750 254 750 c 0
 255 750 255 750 256 750 c 0
 328 750 385 693 385 621 c 0
 385 550 328 493 256 493 c 0
 255 493 255 493 254 493 c 0
EndSplineSet
EndChar

StartChar: uni0983
Encoding: 2435 2435 366
Width: 445
VWidth: 0
Flags: HW
LayerCount: 2
Fore
SplineSet
255 675 m 4
 251 675 247 674 243 673 c 5
 243 674 l 5
 218 669 201 647 201 621 c 4
 201 595 218 574 243 569 c 5
 243 570 l 5
 247 569 251 568 255 568 c 4
 259 568 263 569 267 570 c 5
 267 569 l 5
 292 574 309 595 309 621 c 4
 309 647 292 669 267 674 c 5
 267 673 l 5
 263 674 259 675 255 675 c 4
254 493 m 4
 253 493 253 493 252 493 c 4
 250 493 247 493 245 493 c 4
 178 498 125 553 125 621 c 4
 125 689 178 745 245 750 c 4
 247 750 250 750 252 750 c 4
 253 750 253 750 254 750 c 4
 255 750 255 750 256 750 c 4
 328 750 385 693 385 621 c 4
 385 550 328 493 256 493 c 4
 255 493 255 493 254 493 c 4
255 275 m 0
 251 275 247 274 243 273 c 1
 243 274 l 1
 218 269 201 247 201 221 c 0
 201 195 218 174 243 169 c 1
 243 170 l 1
 247 169 251 168 255 168 c 0
 259 168 263 169 267 170 c 1
 267 169 l 1
 292 174 309 195 309 221 c 0
 309 247 292 269 267 274 c 1
 267 273 l 1
 263 274 259 275 255 275 c 0
254 93 m 0
 253 93 253 93 252 93 c 0
 250 93 247 93 245 93 c 0
 178 98 125 153 125 221 c 0
 125 289 178 345 245 350 c 4
 247 350 250 350 252 350 c 4
 253 350 253 350 254 350 c 4
 255 350 255 350 256 350 c 4
 328 350 385 293 385 221 c 0
 385 150 328 93 256 93 c 0
 255 93 255 93 254 93 c 0
EndSplineSet
EndChar

StartChar: uni098A
Encoding: 2442 2442 367
Width: 612
VWidth: 0
Flags: HW
HStem: 13.002 151.016<288.473 418.671> 376 151.998<354 486> 681 132<45 486 593.755 661>
LayerCount: 2
Fore
SplineSet
661 813 m 1
 661 681 l 1
 486 681 l 1
 486 493.791992188 l 1
 564.611328125 449.66015625 617.310546875 366.931640625 615 270 c 0
 611.541015625 124.885742188 497.287109375 12.7998046875 353.90625 13.001953125 c 0
 184.0390625 13.240234375 100.165039062 141.7890625 101.000976562 271 c 1
 246.00390625 271 l 1
 246.000976562 270.666992188 246 270.333984375 246 270 c 0
 246 209.8828125 291.772460938 165.08203125 354.955078125 164.017578125 c 0
 417.911132812 165.126953125 464 209.63671875 464 270 c 0
 464 326.657226562 424.735351562 369.046875 368.932617188 376 c 1
 354 376 l 1
 354 527.622070312 l 2
 353.96875 527.870117188 353.9375 527.998046875 353.905273438 527.998046875 c 1
 353.936523438 527.998046875 353.96875 527.998046875 354 527.998046875 c 1
 354 681 l 1
 45 681 l 1
 45 813 l 1
 344.169921875 813 l 1
 338.783203125 839.090820312 328.6640625 866.108398438 310 885 c 0
 278.591796875 915.81640625 277.884765625 916.5234375 246.771484375 947.635742188 c 0
 200.102539062 994.3046875 141.413085938 975.212890625 94.7431640625 1021.88183594 c 0
 59.388671875 1057.23730469 53.7314453125 1142.09082031 53.7314453125 1142.09082031 c 1
 142.120117188 1230.47851562 l 1
 142.120117188 1230.47851562 149.8984375 1143.50488281 185.959960938 1107.44238281 c 0
 231.21484375 1062.1875 288.491210938 1084.10742188 333.74609375 1038.85253906 c 0
 367.686523438 1004.91210938 370.515625 1002.08300781 404.456054688 968.142578125 c 0
 454.484375 918.114257812 435.005859375 820.403320312 437.690429688 820.356445312 c 1
 430.333984375 813 l 1
 661 813 l 1
EndSplineSet
EndChar

StartChar: uni0990
Encoding: 2448 2448 368
Width: 956
VWidth: 0
Flags: HW
HStem: 620 151<360.445 490.159>
VStem: 52.5 151<192.508 322.889>
LayerCount: 2
Fore
SplineSet
355 762 m 1
 378 768 401 771 426 771 c 0
 544 771 640 693 671 584 c 1
 671.704101562 448.546875 l 1
 701.97265625 437.771484375 749.5234375 423.37109375 786 424 c 0
 808 424 820 442 825 463 c 0
 850.106445312 572.842773438 788.099609375 693.875976562 712.560546875 769.412109375 c 0
 665.891601562 816.081054688 607.202148438 796.989257812 560.532226562 843.658203125 c 0
 525.177734375 879.013671875 519.520507812 963.8671875 519.520507812 963.8671875 c 1
 607.909179688 1052.25488281 l 1
 607.909179688 1052.25488281 615.6875 965.28125 651.749023438 929.21875 c 0
 697.00390625 883.963867188 754.280273438 905.883789062 799.53515625 860.62890625 c 0
 833.475585938 826.688476562 836.3046875 823.859375 870.245117188 789.918945312 c 0
 920.1328125 740.03125 1033.61328125 417.951171875 897 352 c 0
 852 331 823 322 774 322 c 0
 742.086914062 322 700.744140625 332.477539062 672.262695312 341.048828125 c 1
 674 7 l 5
 526.245117188 5.912109375 387.399414062 13.732421875 239.5 12.5 c 5
 184.166992188 28.5 139.166992188 58.8330078125 104.5 103.5 c 0
 69.8330078125 148.166992188 52.5 199.5 52.5 257.5 c 0
 52.5 282.166992188 55.5 305.833007812 61.5 328.5 c 1
 229.5 328.5 l 1
 212.166992188 307.833007812 203.5 284.166992188 203.5 257.5 c 0
 203.5 224.833007812 215.833007812 197.833007812 240.5 176.5 c 1
 507 176.5 l 1
 507 583 l 1
 487 606 459 620 426 620 c 0
 399 620 374 610 355 594 c 1
 355 762 l 1
EndSplineSet
EndChar

StartChar: uni0994
Encoding: 2452 2452 369
Width: 616
VWidth: 0
Flags: HW
HStem: 13.002 151.016<288.473 418.671> 376 151.998<354 486> 681 132<45 486 593.755 661>
LayerCount: 2
Fore
SplineSet
337 692 m 0
 330.208007812 691.634765625 281.076171875 687.51953125 275 686 c 1
 277.624023438 686.109375 254.358398438 770.163085938 257 770 c 0
 268.190429688 769.309570312 329.141601562 810.811523438 381 818 c 0
 524.5234375 837.895507812 622.978515625 727.309570312 620 575 c 0
 619.127929688 530.397460938 608.272460938 488.447265625 588.524414062 451.892578125 c 1
 617.556640625 441.0625 671.578125 423.302734375 712 424 c 0
 734 424 746 442 751 463 c 0
 776.106445312 572.842773438 714.099609375 693.875976562 638.560546875 769.412109375 c 0
 591.891601562 816.081054688 533.202148438 796.989257812 486.532226562 843.658203125 c 0
 451.177734375 879.013671875 445.520507812 963.8671875 445.520507812 963.8671875 c 1
 533.909179688 1052.25488281 l 1
 533.909179688 1052.25488281 541.6875 965.28125 577.749023438 929.21875 c 0
 623.00390625 883.963867188 680.280273438 905.883789062 725.53515625 860.62890625 c 0
 759.475585938 826.688476562 762.3046875 823.859375 796.245117188 789.918945312 c 0
 846.1328125 740.03125 959.61328125 417.951171875 823 352 c 0
 778 331 749 322 700 322 c 0
 672.655273438 322 638.38671875 329.692382812 611.21875 337.287109375 c 1
 616.947265625 315.852539062 620 293.297851562 620 270 c 0
 620 128 505 13 362 13 c 0
 360.956054688 13 359.92578125 13.001953125 358.90625 13.001953125 c 0
 358.603515625 13.001953125 358.301757812 13 358 13 c 0
 356.815429688 13 355.631835938 13.0078125 354.451171875 13.0234375 c 0
 349.662109375 13.0693359375 345.004882812 13.205078125 340.133789062 13.6025390625 c 0
 205.541992188 22.708984375 100 133.96484375 100 270 c 0
 100 325.204101562 117.138671875 376.235351562 146.41015625 418.088867188 c 1
 142.798828125 417.602539062 158 422 158 422 c 1
 336.961914062 372.549804688 251 414.8828125 251 270 c 0
 251 209.87890625 296.760742188 165.08203125 359.955078125 164.017578125 c 0
 422.901367188 165.126953125 469 209.640625 469 270 c 0
 469 322.4375 433.1015625 364.9453125 384 374.828125 c 1
 384 373.864257812 l 1
 359.955078125 469.017578125 l 1
 368.23046875 469.163085938 376.280273438 470.234375 384 472.131835938 c 1
 384 471.169921875 l 1
 433.1015625 481.0390625 469 523.436523438 469 575 c 0
 469 653.3203125 415.104492188 696.1953125 337 692 c 0
EndSplineSet
EndChar

StartChar: uni099E
Encoding: 2462 2462 370
Width: 821
VWidth: 0
Flags: HW
HStem: 620 151<360.445 490.159>
VStem: 52.5 151<192.508 322.889>
LayerCount: 2
Fore
SplineSet
61.5 328.5 m 1
 229.5 328.5 l 1
 212.166992188 307.833007812 203.5 284.166992188 203.5 257.5 c 0
 203.5 224.833007812 215.833007812 197.833007812 240.5 176.5 c 1
 507 176.5 l 1
 507 583 l 1
 487 606 459 620 426 620 c 0
 399 620 374 610 355 594 c 1
 355 762 l 1
 378 768 401 771 426 771 c 0
 537.87890625 771 629.981445312 700.881835938 665.657226562 600.705078125 c 1
 678 606.860351562 694.509765625 614.671875 709.5 616.75 c 0
 781.26171875 626.698242188 830.489257812 571.404296875 829 495.25 c 0
 828.443359375 466.7890625 819.756835938 440.486328125 804.07421875 419.196289062 c 1
 819.756835938 397.833984375 829 371.416992188 829 342.75 c 0
 829 271.75 771.5 214.25 700 214.25 c 0
 699.478515625 214.25 698.962890625 214.250976562 698.453125 214.250976562 c 0
 698.301757812 214.250976562 698.151367188 214.25 698 214.25 c 0
 697.407226562 214.25 696.81640625 214.25390625 696.225585938 214.26171875 c 0
 693.831054688 214.28515625 691.502929688 214.352539062 689.067382812 214.55078125 c 0
 683.578125 214.921875 678.185546875 215.633789062 672.91015625 216.6640625 c 1
 674 7 l 1
 507 7 l 1
 507 10.3017578125 l 1
 239.5 12.5 l 1
 184.166992188 28.5 139.166992188 58.8330078125 104.5 103.5 c 0
 69.8330078125 148.166992188 52.5 199.5 52.5 257.5 c 0
 52.5 282.166992188 55.5 305.833007812 61.5 328.5 c 1
672.497070312 296.150390625 m 1
 680.201171875 292.196289062 689.168945312 289.923828125 698.977539062 289.758789062 c 0
 730.450195312 290.313476562 753.5 312.5703125 753.5 342.75 c 0
 753.5 368.96875 735.55078125 390.22265625 711 395.1640625 c 1
 711 394.682617188 l 1
 698.977539062 442.258789062 l 1
 703.115234375 442.33203125 707.140625 442.8671875 711 443.81640625 c 1
 711 443.334960938 l 1
 735.55078125 448.26953125 753.5 469.46875 753.5 495.25 c 0
 753.5 534.41015625 726.551757812 555.84765625 687.5 553.75 c 0
 685.744140625 553.655273438 678.334960938 553.060546875 671.1640625 552.40234375 c 1
 672.497070312 296.150390625 l 1
EndSplineSet
EndChar

StartChar: uni099D
Encoding: 2461 2461 371
Width: 944
VWidth: 0
Flags: HW
HStem: 681 132<50 574 720 773> 681 106<574 720>
VStem: 574 146<11 83.5 235.5 483.5 635.5 787> 574 57.5<83.5 235.5 483.5 483.5>
LayerCount: 2
Fore
SplineSet
720 681 m 1
 720 294.02734375 l 1
 723 297 l 1
 799 221 l 1
 799 681 l 1
 720 681 l 1
994 813 m 1
 994 681 l 1
 951 681 l 1
 951 10 l 1
 799.018554688 10 l 1
 797 8 l 1
 720 85 l 1
 720 11 l 1
 575.5 11 l 1
 575.5 10.5 l 1
 120.5 283.5 l 1
 120.5 435.5 l 1
 574 612.995117188 l 1
 574 681 l 1
 50 681 l 1
 50 813 l 1
 994 813 l 1
574 163.450195312 m 1
 574 464.072265625 l 1
 264.5 359.5 l 1
 574 163.450195312 l 1
EndSplineSet
EndChar

StartChar: uni099C
Encoding: 2460 2460 372
Width: 616
VWidth: 0
Flags: HW
HStem: 13.0016 151.016<293.473 423.671> 376 151.998<359 491> 681 132<50 359 491 666> 681 80<359 491>
VStem: 359 132<527.998 761>
LayerCount: 2
Fore
SplineSet
666 813 m 1
 666 681 l 1
 491 681 l 1
 491 493.791992188 l 1
 569.610351562 449.66015625 622.310546875 366.931640625 620 270 c 0
 616.541015625 124.885742188 502.287109375 12.7998046875 358.90625 13.001953125 c 0
 189.0390625 13.240234375 105.165039062 141.7890625 106.000976562 271 c 1
 251.00390625 271 l 1
 251.000976562 270.666992188 251 270.333984375 251 270 c 0
 251 209.8828125 296.772460938 165.08203125 359.955078125 164.017578125 c 0
 422.911132812 165.126953125 469 209.63671875 469 270 c 0
 469 326.657226562 429.734375 369.046875 373.932617188 376 c 1
 359 376 l 1
 359 527.624023438 l 2
 358.96875 527.87109375 358.9375 527.998046875 358.905273438 527.998046875 c 1
 358.9375 527.998046875 358.96875 527.998046875 359 527.998046875 c 1
 359 681 l 1
 50 681 l 1
 50 813 l 1
 666 813 l 1
EndSplineSet
EndChar

StartChar: uni09A3
Encoding: 2467 2467 373
Width: 613
VWidth: 0
Flags: HW
LayerCount: 2
Fore
SplineSet
461.5 860 m 1
 613.5 860 l 1
 613.5 813 l 1
 661.5 813 l 1
 661.5 681 l 1
 613.5 681 l 1
 613.5 532.630859375 l 2
 614.491210938 523.39453125 615 514.008789062 615 504.5 c 0
 615 495.7265625 614.560546875 487.053710938 613.704101562 478.5 c 1
 613.5 478.5 l 1
 613.5 8 l 1
 461.5 8 l 1
 461.5 478.5 l 1
 460.864257812 478.5 l 1
 461.087890625 479.407226562 461.299804688 480.318359375 461.5 481.235351562 c 2
 461.5 528.0703125 l 1
 451.03515625 576.364257812 408.876953125 611.5 357 611.5 c 0
 298 611.5 251 564.5 251 504.5 c 0
 251 495.536132812 252.084960938 486.826171875 254.131835938 478.5 c 1
 101.295898438 478.5 l 1
 100.438476562 487.053710938 100 495.7265625 100 504.5 c 0
 100 647.5 215 762.5 357 762.5 c 0
 394.245117188 762.5 429.590820312 754.698242188 461.5 740.633789062 c 1
 461.5 860 l 1
EndSplineSet
EndChar

StartChar: uni0964
Encoding: 2404 2404 374
Width: 252
VWidth: 0
Flags: HW
HStem: 8 21G<100 252> 502 20G<100 252> 640 142<100 252>
VStem: 100 152<8 522 640 782>
LayerCount: 2
Fore
SplineSet
252 380 m 1
 252 -20 l 1
 100 -20 l 1
 100 380 l 1
 252 380 l 1
EndSplineSet
EndChar

StartChar: uni0981
Encoding: 2433 2433 376
Width: 0
Flags: HW
LayerCount: 2
Fore
SplineSet
-11 668 m 1
 -11 782 l 1
 111 782 l 1
 111 668 l 1
 -11 668 l 1
243 629 m 1
 243 623 243 616 243 610 c 0
 243 502 157 416 51 416 c 0
 -57 416 -143 502 -143 610 c 0
 -143 616 -143 623 -143 629 c 1
 -27 629 l 1
 -29 623 -30 616 -30 610 c 0
 -30 565 6 529 51 529 c 0
 96 529 130 565 130 610 c 0
 130 616 129 623 127 629 c 1
 243 629 l 1
EndSplineSet
EndChar

StartChar: uni09AD
Encoding: 2477 2477 377
Width: 726
VWidth: 75
Flags: HW
HStem: 14.7002 133.6<355.264 518.805> 523.479 120.821<445.987 517.023> 681 132<50 776>
VStem: 142.4 111.399<250.829 338.876> 620.2 133.399<250.829 424.049>
LayerCount: 2
Fore
SplineSet
776 813 m 1
 776 681 l 1
 50 681 l 1
 50 813 l 1
 776 813 l 1
445.098632812 627 m 1
 445.987304688 644.29296875 l 2
 446.657226562 644.297851562 447.328125 644.299804688 448 644.299804688 c 0
 483.107421875 644.299804688 516.830078125 638.208984375 548.2265625 627 c 1
 559 627 l 1
 559 622.916992188 l 1
 672.907226562 577.208984375 753.599609375 463.228515625 753.599609375 329.900390625 c 0
 753.599609375 155.5 616.799804688 14.7001953125 448 14.7001953125 c 0
 279.200195312 14.7001953125 142.400390625 155.5 142.400390625 329.900390625 c 0
 142.400390625 330.77734375 253.86328125 340.658203125 253.870117188 341.533203125 c 1
 253.823242188 339.794921875 253.799804688 338.049804688 253.799804688 336.299804688 c 0
 253.799804688 232.299804688 335.400390625 148.299804688 437 148.299804688 c 0
 538.599609375 148.299804688 620.200195312 232.299804688 620.200195312 336.299804688 c 0
 620.200195312 406.395507812 582.5546875 467.6328125 526.567382812 499.708007812 c 1
 492.103515625 447.833007812 433.486328125 414 367 414 c 0
 259 414 173 500 173 608 c 0
 173 614 173 621 173 627 c 1
 289 627 l 1
 287 621 286 614 286 608 c 0
 286 563 322 527 367 527 c 0
 404.05859375 527 433.65625 551.4140625 442.94921875 585.1640625 c 1
 444.754882812 620.306640625 l 2
 444.296875 622.604492188 443.711914062 624.865234375 443 627 c 1
 445.098632812 627 l 1
EndSplineSet
EndChar

StartChar: uni09A7
Encoding: 2471 2471 378
Width: 752
Flags: HW
LayerCount: 2
Fore
SplineSet
752.5 813 m 1
 752.5 681 l 1
 699.5 681 l 1
 699.5 11 l 1
 553.5 11 l 1
 553.5 12.798828125 l 1
 100 283.5 l 1
 100 435.5 l 1
 238.990234375 489.899414062 l 1
 209.646484375 523.573242188 192 567.484375 192 615.5 c 0
 192 723.5 278 809.5 386 809.5 c 0
 392 809.5 399 809.5 405 809.5 c 1
 405 693.5 l 1
 399 695.5 392 696.5 386 696.5 c 0
 341 696.5 305 660.5 305 615.5 c 0
 305 577.858398438 330.189453125 547.913085938 364.765625 539.126953125 c 1
 553.5 612.995117188 l 1
 553.5 787 l 1
 554.5 787 l 1
 554.5 813 l 1
 752.5 813 l 1
553.5 164.814453125 m 1
 553.5 464.072265625 l 1
 244 359.5 l 1
 553.5 164.814453125 l 1
EndSplineSet
EndChar

StartChar: uni09A8
Encoding: 2472 2472 379
Width: 661
VWidth: 0
Flags: HW
LayerCount: 2
Fore
SplineSet
711 813 m 1
 711 681 l 1
 666 681 l 1
 666 132.997070312 l 2
 669.60546875 115.749023438 671.5 97.8544921875 671.5 79.5 c 0
 671.5 70.7265625 671.060546875 62.0537109375 670.204101562 53.5 c 1
 666 53.5 l 1
 666 8 l 1
 514 8 l 1
 514 116.954101562 l 1
 499.125 157.953125 460.260742188 186.5 413.5 186.5 c 0
 354.5 186.5 307.5 139.5 307.5 79.5 c 0
 307.5 70.5361328125 308.584960938 61.826171875 310.631835938 53.5 c 1
 157.795898438 53.5 l 1
 156.938476562 62.0537109375 156.5 70.7265625 156.5 79.5 c 0
 156.5 222.5 271.5 337.5 413.5 337.5 c 0
 449.1953125 337.5 483.146484375 330.333984375 514 317.356445312 c 1
 514 681 l 1
 50 681 l 1
 50 813 l 1
 514 813 l 1
 666 813 l 1
 711 813 l 1
EndSplineSet
EndChar

StartChar: uni09B6
Encoding: 2486 2486 380
Width: 642
Flags: HW
LayerCount: 2
Fore
SplineSet
50 715.5 m 1
 56 715.5 63 715.5 69 715.5 c 0
 168.685546875 715.5 249.627929688 642.232421875 261.5 547.596679688 c 1
 273.372070312 642.232421875 354.314453125 715.5 454 715.5 c 0
 460 715.5 467 715.5 473 715.5 c 1
 473 710.87109375 l 1
 492.5 694.265625 l 1
 492.5 857 l 1
 644.5 857 l 1
 644.5 813 l 1
 692.5 813 l 1
 692.5 681 l 1
 644.5 681 l 1
 644.5 8 l 1
 492.5 8 l 1
 492.5 584.649414062 l 1
 473 604.294921875 l 1
 473 599.5 l 1
 467 601.5 460 602.5 454 602.5 c 0
 409 602.5 373 568.5 373 523.5 c 0
 373 478.5 409 442.5 454 442.5 c 0
 460 442.5 467 443.5 473 445.5 c 1
 473 329.5 l 1
 467 329.5 460 329.5 454 329.5 c 0
 354.314453125 329.5 273.372070312 402.767578125 261.5 498.9765625 c 1
 249.627929688 402.767578125 168.685546875 329.5 69 329.5 c 0
 63 329.5 56 329.5 50 329.5 c 1
 50 445.5 l 1
 56 443.5 63 442.5 69 442.5 c 0
 114 442.5 150 478.5 150 523.5 c 0
 150 568.5 114 602.5 69 602.5 c 0
 63 602.5 56 601.5 50 599.5 c 1
 50 715.5 l 1
EndSplineSet
EndChar

StartChar: uni0988
Encoding: 2440 2440 381
Width: 1077
VWidth: 0
Flags: HW
HStem: 9 21G<457 643> 681 132<50 357.581 593.755 739>
LayerCount: 2
Fore
SplineSet
286.141601562 482.20703125 m 1
 286.141601562 482.20703125 178.799804688 588.45703125 178.026367188 587.68359375 c 1
 280.65625 690.313476562 442.620117188 692.33203125 545.080078125 589.872070312 c 0
 576.888671875 558.063476562 598.51953125 520.3671875 610.09375 480.42578125 c 1
 688.814453125 544.576171875 l 1
 698.905273438 560.615234375 710.97265625 575.818359375 725.026367188 589.872070312 c 0
 752.493164062 617.338867188 784.235351562 637.296875 817.96484375 649.822265625 c 1
 828 658 l 1
 826.53515625 652.831054688 l 1
 916.62890625 682.658203125 1019.28125 660.482421875 1092.08007812 587.68359375 c 1
 1091.30664062 588.45703125 983.96484375 482.20703125 983.96484375 482.20703125 c 1
 938.588867188 525.487304688 874.943359375 526.244140625 831.799804688 483.099609375 c 0
 789.116210938 440.416015625 790.233398438 376.353515625 833.96484375 331.051757812 c 0
 879.39453125 287.127929688 943.439453125 286.440429688 985.948242188 328.950195312 c 0
 986.184570312 329.186523438 986.419921875 329.422851562 986.653320312 329.66015625 c 1
 1089.18554688 227.127929688 l 1
 998.411132812 135.170898438 847.618164062 102.995117188 727.922851562 223.525390625 c 0
 691.263671875 260.440429688 667.456054688 304.904296875 656.677734375 351.443359375 c 1
 584 275 l 1
 582.737304688 275.57421875 l 1
 571.665039062 257.095703125 558.141601562 239.594726562 542.18359375 223.525390625 c 0
 422.48828125 102.995117188 271.6953125 135.170898438 180.920898438 227.127929688 c 1
 283.453125 329.66015625 l 1
 283.686523438 329.422851562 283.921875 329.186523438 284.158203125 328.950195312 c 0
 326.666992188 286.440429688 390.711914062 287.127929688 436.141601562 331.051757812 c 0
 438.659179688 333.66015625 441.036132812 336.331054688 443.271484375 339.055664062 c 1
 439 341 l 1
 452.678710938 352.146484375 l 1
 479.252929688 394.749023438 474.708007812 446.698242188 438.306640625 483.099609375 c 0
 395.163085938 526.244140625 331.517578125 525.487304688 286.141601562 482.20703125 c 1
1127 813 m 1
 1127 681 l 1
 50 681 l 1
 50 813 l 1
 588.489257812 813 l 1
 582.990234375 838.393554688 572.922851562 864.420898438 554.7890625 882.776367188 c 0
 523.380859375 913.592773438 522.673828125 914.299804688 491.560546875 945.412109375 c 0
 444.891601562 992.081054688 386.202148438 972.989257812 339.532226562 1019.65820312 c 0
 304.177734375 1055.01367188 298.520507812 1139.8671875 298.520507812 1139.8671875 c 1
 386.909179688 1228.25488281 l 1
 386.909179688 1228.25488281 394.6875 1141.28125 430.749023438 1105.21875 c 0
 476.00390625 1059.96386719 533.280273438 1081.88378906 578.53515625 1036.62890625 c 0
 612.475585938 1002.68847656 615.3046875 999.859375 649.245117188 965.918945312 c 0
 699.2734375 915.890625 679.794921875 818.1796875 682.479492188 818.1328125 c 1
 677.346679688 813 l 1
 1127 813 l 1
EndSplineSet
EndChar

StartChar: uni0996
Encoding: 2454 2454 382
Width: 752
Flags: HW
LayerCount: 2
Fore
SplineSet
774.5 813 m 1
 774.5 681 l 1
 699.5 681 l 1
 699.5 11 l 1
 553.5 11 l 1
 553.5 787 l 1
 576.5 787 l 1
 576.5 813 l 1
 774.5 813 l 1
369.5 724 m 1
 501.5 724 l 1
 385.5 454 l 1
 384.689453125 455.12109375 l 1
 244 283.5 l 1
 553 169.5 l 1
 553 12.5 l 1
 100 189.5 l 1
 100 341.5 l 1
 346.440429688 571.51171875 l 1
 356.703125 639.375976562 l 1
 330.443359375 563.631835938 259.208007812 510 175.5 510 c 0
 67.5 510 -18.5 596 -18.5 704 c 0
 -18.5 710 -18.5 717 -18.5 723 c 1
 97.5 723 l 1
 95.5 717 94.5 710 94.5 704 c 0
 94.5 659 130.5 623 175.5 623 c 0
 220.5 623 254.5 659 254.5 704 c 0
 254.5 710 253.5 717 251.5 723 c 1
 367.5 723 l 1
 367.5 710.774414062 l 1
 369.5 724 l 1
EndSplineSet
EndChar

StartChar: uni098B
Encoding: 2443 2443 383
Width: 1344
Flags: HW
LayerCount: 2
Fore
SplineSet
972 787 m 1
 1118 787 l 1
 1118 295.5 l 1
 1192.5 221 l 1
 1192.5 786 l 1
 1194.5 786 l 1
 1194.5 805 l 1
 1394.5 805 l 1
 1394.5 673 l 1
 1344.5 673 l 1
 1344.5 10 l 1
 1192.51855469 10 l 1
 1190.5 8 l 1
 1118 80.5 l 1
 1118 11 l 1
 972 11 l 1
 971 11 l 1
 971 11.3935546875 l 1
 518.5 189.5 l 1
 518.5 341.5 l 1
 764.940429688 571.51171875 l 1
 775.203125 639.375976562 l 1
 748.943359375 563.631835938 677.708007812 510 594 510 c 0
 532.708984375 510 478.502929688 537.698242188 443.081054688 581.395507812 c 1
 407.87109375 537.698242188 354.15625 510 294 510 c 0
 186 510 100 596 100 704 c 0
 100 710 100 717 100 723 c 1
 216 723 l 1
 214 717 213 710 213 704 c 0
 213 659 249 623 294 623 c 0
 339 623 373 659 373 704 c 0
 373 710 372 717 370 723 c 1
 400 723 l 1
 486 723 l 1
 516 723 l 1
 514 717 513 710 513 704 c 0
 513 659 549 623 594 623 c 0
 639 623 673 659 673 704 c 0
 673 710 672 717 670 723 c 1
 786 723 l 1
 786 710.774414062 l 1
 788 724 l 1
 972 724 l 1
 972 787 l 1
971 169.684570312 m 1
 971 719.262695312 l 1
 804 454 l 1
 803.189453125 455.12109375 l 1
 662.5 283.5 l 1
 971 169.684570312 l 1
EndSplineSet
EndChar

StartChar: uni09B2
Encoding: 2482 2482 384
Width: 943
VWidth: 0
Flags: HW
LayerCount: 2
Fore
SplineSet
993 813 m 1
 993 681 l 1
 945 681 l 1
 945 56.6669921875 l 2
 945.2265625 55.609375 945.309570312 54.5537109375 945.204101562 53.5 c 2
 945 53.5 l 1
 945 8 l 1
 793 8 l 1
 793 53.5 l 1
 792.364257812 53.5 l 1
 792.587890625 54.4072265625 792.799804688 55.318359375 793 56.2353515625 c 2
 793 103.0703125 l 1
 782.53515625 151.364257812 740.376953125 186.5 688.5 186.5 c 0
 637.051757812 186.5 594.728515625 150.76171875 584.736328125 101.829101562 c 0
 585.572265625 93.3369140625 586 84.720703125 586 76 c 0
 586 69.0615234375 585.725585938 62.1865234375 585.186523438 55.3837890625 c 0
 585.329101562 54.75390625 585.477539062 54.1259765625 585.631835938 53.5 c 1
 585.030273438 53.5 l 2
 584.9296875 52.3310546875 584.8203125 51.1640625 584.704101562 50 c 2
 431.864257812 50 l 1
 432.184570312 51.2998046875 432.48046875 52.6083984375 432.75390625 53.9267578125 c 0
 431.923828125 62.341796875 431.5 70.8720703125 431.5 79.5 c 0
 431.5 86.625 431.755859375 93.6796875 432.258789062 100.654296875 c 0
 421.40234375 148.389648438 379.487304688 183 328 183 c 0
 269 183 222 136 222 76 c 0
 222 67.0361328125 223.084960938 58.326171875 225.131835938 50 c 1
 72.2958984375 50 l 1
 71.4384765625 58.5537109375 71 67.2265625 71 76 c 0
 71 219 186 334 328 334 c 0
 396.041015625 334 457.7421875 307.96484375 503.733398438 265.265625 c 1
 547.030273438 310.038085938 607.108398438 337.5 676.5 337.5 c 0
 718.48046875 337.5 758.046875 327.588867188 793 309.96875 c 1
 793 681 l 1
 50 681 l 1
 50 813 l 1
 793 813 l 1
 945 813 l 1
 993 813 l 1
EndSplineSet
EndChar

StartChar: uni09AF
Encoding: 2479 2479 385
Width: 841
VWidth: 0
Flags: HW
HStem: 20 152<285.1 630.7> 620 152<84.3 428.3>
LayerCount: 2
Fore
SplineSet
126.755859375 190.198242188 m 1
 158.228515625 337.01953125 l 1
 429.267578125 497.461914062 l 1
 168.098632812 681 l 1
 50 681 l 1
 50 813 l 1
 694 813 l 1
 846 813 l 1
 891 813 l 1
 891 681 l 1
 846 681 l 1
 846 8 l 1
 694 8 l 1
 694 10.1826171875 l 1
 126.755859375 190.198242188 l 1
694 166.658203125 m 1
 694 681 l 1
 407.166015625 681 l 1
 590.244140625 578.801757812 l 1
 558.771484375 431.98046875 l 1
 352.186523438 272.055664062 l 1
 694 166.658203125 l 1
EndSplineSet
EndChar

StartChar: uni09AB
Encoding: 2475 2475 386
Width: 1167
VWidth: 0
Flags: HW
HStem: 20 152<285.1 630.7> 620 152<84.3 428.3>
LayerCount: 2
Fore
SplineSet
126.755859375 190.198242188 m 1
 158.228515625 337.01953125 l 1
 429.267578125 497.461914062 l 1
 168.098632812 681 l 1
 50 681 l 1
 50 813 l 1
 1217 813 l 1
 1217 681 l 1
 407.166015625 681 l 1
 590.244140625 578.801757812 l 1
 558.771484375 431.98046875 l 1
 352.186523438 272.055664062 l 1
 694 166.658203125 l 1
 694 333 l 1
 694.51171875 333 l 1
 695.842773438 474.837890625 810.328125 588.5 951.5 588.5 c 0
 1094.5 588.5 1209.5 473.5 1209.5 330.5 c 0
 1209.5 321.7265625 1209.06054688 313.053710938 1208.20410156 304.5 c 1
 1055.36425781 304.5 l 1
 1057.41503906 312.826171875 1058.5 321.536132812 1058.5 330.5 c 0
 1058.5 390.5 1011.5 437.5 951.5 437.5 c 0
 893.322265625 437.5 846.811523438 391.80078125 845.52734375 333 c 1
 846 333 l 1
 846 320.0078125 l 2
 846.506835938 314.716796875 847.393554688 309.538085938 848.631835938 304.5 c 1
 846 304.5 l 1
 846 8 l 1
 694 8 l 1
 694 10.1826171875 l 1
 126.755859375 190.198242188 l 1
EndSplineSet
EndChar

StartChar: uni0997
Encoding: 2455 2455 387
Width: 690
VWidth: 0
Flags: HW
LayerCount: 2
Fore
SplineSet
118.615234375 393 m 1
 185.615234375 505 l 1
 191.615234375 499 198.615234375 496 207.615234375 493 c 0
 260.615234375 469 304.615234375 477 330.615234375 508 c 0
 359.615234375 542 308.615234375 548 254.615234375 557 c 1
 126.615234375 608 55.615234375 691 130.615234375 780 c 0
 193.615234375 856 346.615234375 873 473.615234375 819 c 0
 477.018554688 817.541992188 506.892578125 803.083984375 537.5 787.921875 c 1
 537.5 860 l 1
 689.5 860 l 1
 689.5 813 l 1
 737.5 813 l 1
 737.5 681 l 1
 689.5 681 l 1
 689.5 8 l 1
 537.5 8 l 1
 537.5 623.240234375 l 1
 520.359375 632.84765625 415.095703125 687.172851562 406.615234375 690 c 0
 353.615234375 712 331.615234375 705 305.615234375 674 c 0
 275.615234375 639 272.615234375 632 336.615234375 621 c 1
 455.615234375 571 558.615234375 510 482.615234375 421 c 0
 420.615234375 345 267.615234375 325 140.615234375 380 c 0
 133.615234375 382 126.615234375 387 118.615234375 393 c 1
EndSplineSet
EndChar

StartChar: uni098C
Encoding: 2444 2444 388
Width: 779
VWidth: 0
Flags: HW
HStem: 626 157<101.091 267.973> -4 161<101.091 267.973>
VStem: 402 153<292.8 487.701>
LayerCount: 2
Fore
SplineSet
148.155273438 113.778320312 m 1
 147.297851562 122.33203125 146.859375 131.004882812 146.859375 139.778320312 c 0
 146.859375 282.778320312 261.859375 397.779296875 403.859375 397.779296875 c 0
 498.783203125 397.779296875 581.369140625 347.10546875 626.170898438 271.20703125 c 1
 644.932617188 347.665039062 623.635742188 432.482421875 563.10546875 493.012695312 c 0
 471.181640625 584.936523438 324.810546875 587.05859375 235.0078125 497.255859375 c 0
 216.9375 479.185546875 202.58984375 458.826171875 191.946289062 437.079101562 c 1
 77.443359375 551.583007812 l 1
 90.8232421875 571.619140625 106.337890625 590.618164062 123.9921875 608.271484375 c 0
 273.19140625 757.470703125 518.557617188 753.935546875 672.70703125 599.786132812 c 0
 826.1484375 446.34375 829.684570312 200.977539062 680.485351562 51.7783203125 c 0
 662.831054688 34.125 643.83203125 18.6103515625 623.797851562 5.228515625 c 1
 515.248046875 113.778320312 l 1
 507.724609375 113.778320312 l 1
 508.227539062 115.819335938 508.671875 117.883789062 509.056640625 119.969726562 c 2
 506.470703125 122.555664062 l 1
 507.567382812 123.092773438 508.66015625 123.639648438 509.75 124.1953125 c 0
 510.481445312 129.283203125 510.860351562 134.486328125 510.859375 139.778320312 c 0
 510.860351562 199.778320312 463.859375 246.779296875 403.859375 246.778320312 c 0
 344.859375 246.779296875 297.859375 199.778320312 297.860351562 139.778320312 c 0
 297.859375 130.814453125 298.9453125 122.104492188 300.991210938 113.778320312 c 1
 148.155273438 113.778320312 l 1
EndSplineSet
EndChar

StartChar: uni09EF
Encoding: 2543 2543 389
Width: 779
VWidth: 0
Flags: HW
HStem: 626 157<101.091 267.973> -4 161<101.091 267.973>
VStem: 402 153<292.8 487.701>
LayerCount: 2
Fore
SplineSet
148.155273438 113.778320312 m 1
 147.297851562 122.33203125 146.859375 131.004882812 146.859375 139.778320312 c 0
 146.859375 282.778320312 261.859375 397.779296875 403.859375 397.779296875 c 0
 498.783203125 397.779296875 581.369140625 347.10546875 626.170898438 271.20703125 c 1
 644.932617188 347.665039062 623.635742188 432.482421875 563.10546875 493.012695312 c 0
 471.181640625 584.936523438 324.810546875 587.05859375 235.0078125 497.255859375 c 0
 216.9375 479.185546875 202.58984375 458.826171875 191.946289062 437.079101562 c 1
 77.443359375 551.583007812 l 1
 90.8232421875 571.619140625 106.337890625 590.618164062 123.9921875 608.271484375 c 0
 273.19140625 757.470703125 518.557617188 753.935546875 672.70703125 599.786132812 c 0
 826.1484375 446.34375 829.684570312 200.977539062 680.485351562 51.7783203125 c 0
 662.831054688 34.125 643.83203125 18.6103515625 623.797851562 5.228515625 c 1
 515.248046875 113.778320312 l 1
 507.724609375 113.778320312 l 1
 508.227539062 115.819335938 508.671875 117.883789062 509.056640625 119.969726562 c 2
 506.470703125 122.555664062 l 1
 507.567382812 123.092773438 508.66015625 123.639648438 509.75 124.1953125 c 0
 510.481445312 129.283203125 510.860351562 134.486328125 510.859375 139.778320312 c 0
 510.860351562 199.778320312 463.859375 246.779296875 403.859375 246.778320312 c 0
 344.859375 246.779296875 297.859375 199.778320312 297.860351562 139.778320312 c 0
 297.859375 130.814453125 298.9453125 122.104492188 300.991210938 113.778320312 c 1
 148.155273438 113.778320312 l 1
EndSplineSet
EndChar

StartChar: uni09EC
Encoding: 2540 2540 390
Width: 616
VWidth: 0
Flags: HW
HStem: 13.0016 151.016<293.473 423.671> 376 151.998<359 491> 681 132<50 359 491 666> 681 80<359 491>
VStem: 359 132<527.998 761>
LayerCount: 2
Fore
SplineSet
359 761 m 1
 491 761 l 1
 491 493.791992188 l 1
 569.610351562 449.66015625 622.310546875 366.931640625 620 270 c 0
 616.541015625 124.885742188 502.287109375 12.7998046875 358.90625 13.001953125 c 0
 189.0390625 13.240234375 105.165039062 141.7890625 106.000976562 271 c 1
 251.00390625 271 l 1
 251.000976562 270.666992188 251 270.333984375 251 270 c 0
 251 209.8828125 296.772460938 165.08203125 359.955078125 164.017578125 c 0
 422.911132812 165.126953125 469 209.63671875 469 270 c 0
 469 326.657226562 429.734375 369.046875 373.932617188 376 c 1
 359 376 l 1
 359 527.624023438 l 2
 358.96875 527.87109375 358.9375 527.998046875 358.905273438 527.998046875 c 1
 358.9375 527.998046875 358.96875 527.998046875 359 527.998046875 c 1
 359 761 l 1
EndSplineSet
EndChar

StartChar: uni09ED
Encoding: 2541 2541 391
Width: 534
VWidth: 0
Flags: HW
HStem: 275 151<293.471 382> 639 150<293.591 381.625>
VStem: 382 152<13 276 426.026 638.974> 100 151<468.471 596.934>
LayerCount: 2
Fore
SplineSet
382 636 m 1
 374 638 366 639 358 639 c 0
 298 639 251 592 251 533 c 0
 251 473 298 426 358 426 c 0
 366 426 374 427 382 429 c 1
 382 636 l 1
382 13 m 1
 382 276 l 1
 374 275 366 275 358 275 c 0
 215 275 100 390 100 533 c 0
 100 675 215 790 358 790 c 0
 366 790 453 797 495 762 c 0
 533 730 534 641 534 641 c 1
 534 13 l 1
 382 13 l 1
EndSplineSet
EndChar

StartChar: uni09EE
Encoding: 2542 2542 392
Width: 692
VWidth: 0
Flags: HW
HStem: 377.571 151<252 340.529> 14.5714 150<252.375 340.409>
VStem: 100 152<527.571 790.571 164.597 377.545> 383 151<206.637 335.1>
LayerCount: 2
Fore
SplineSet
252 790.571289062 m 1
 252 527.571289062 l 1
 260 528.571289062 268 528.571289062 276 528.571289062 c 0
 285.734375 528.571289062 295.338867188 528.038085938 304.787109375 527 c 2
 689 527 l 1
 689 375 l 1
 512.165039062 375 l 1
 526.209960938 343.109375 534 307.7890625 534 270.571289062 c 0
 534 128.571289062 419 13.5712890625 276 13.5712890625 c 0
 268 13.5712890625 181 6.5712890625 139 41.5712890625 c 0
 101 73.5712890625 100 162.571289062 100 162.571289062 c 1
 100 790.571289062 l 1
 252 790.571289062 l 1
252 167.571289062 m 1
 260 165.571289062 268 164.571289062 276 164.571289062 c 0
 336 164.571289062 383 211.571289062 383 270.571289062 c 0
 383 322.331054688 348.0234375 364.416992188 299.896484375 375 c 1
 253.78125 375 l 2
 253.1875 374.862304688 252.59375 374.719726562 252 374.571289062 c 2
 252 167.571289062 l 1
EndSplineSet
EndChar

StartChar: uni09EB
Encoding: 2539 2539 393
Width: 779
VWidth: 0
Flags: HW
HStem: 626 157<599.596 766.478> -4 161<599.596 766.478>
VStem: 312.569 153<292.8 487.701>
LayerCount: 2
Fore
SplineSet
405.770507812 394.469726562 m 2
 405.11328125 395.197265625 l 1
 403.998046875 392.770507812 403.796875 391.798828125 405.770507812 394.469726562 c 2
786.516601562 489.231445312 m 1
 710.09765625 356.872070312 l 1
 703.911132812 362.805664062 696.911132812 368.102539062 689.147460938 372.583007812 c 0
 637.185546875 402.583984375 572.982421875 385.381835938 543.482421875 334.28515625 c 0
 513.481445312 282.32421875 530.685546875 218.119140625 582.647460938 188.12109375 c 0
 587.229492188 185.474609375 591.924804688 183.200195312 596.697265625 181.290039062 c 0
 597.723632812 181.956054688 598.743164062 182.627929688 599.756835938 183.309570312 c 1
 600.702148438 179.77734375 l 2
 602.702148438 179.067382812 604.712890625 178.418945312 606.731445312 177.834960938 c 1
 602.96875 171.319335938 l 1
 642.702148438 23.037109375 l 1
 621.09375 12.37890625 598.16015625 3.6826171875 574.044921875 -2.78125 c 0
 370.234375 -57.3896484375 159.508789062 68.3544921875 103.344726562 277.9609375 c 0
 46.9228515625 488.53125 166.543945312 702.79296875 370.353515625 757.403320312 c 0
 394.46875 763.866210938 418.680664062 767.802734375 442.721679688 769.372070312 c 1
 484.633789062 612.95703125 l 1
 468.18359375 614.084960938 451.4296875 613.403320312 434.618164062 610.763671875 c 1
 540.943359375 488.297851562 l 1
 605.856445312 506.979492188 701.125976562 540.02734375 764.646484375 503.353515625 c 0
 772.24609375 498.966796875 779.537109375 494.25 786.516601562 489.231445312 c 1
404.965820312 395.359375 m 1
 289.19140625 523.487304688 l 1
 247.331054688 467.865234375 230.83984375 393.290039062 250.615234375 319.491210938 c 0
 272.76953125 236.805664062 335.575195312 175.953125 411.170898438 153.971679688 c 1
 370.352539062 226.275390625 365.6875 316.424804688 404.965820312 395.359375 c 1
EndSplineSet
EndChar

StartChar: uni09B7
Encoding: 2487 2487 394
Width: 841
VWidth: 0
Flags: HW
HStem: 20 152<285.1 630.7> 620 152<84.3 428.3>
LayerCount: 2
Fore
SplineSet
694 681 m 1
 407.166015625 681 l 1
 694 538.982421875 l 1
 694 681 l 1
694 166.658203125 m 1
 694 391.504882812 l 1
 561.956054688 446.836914062 l 1
 352.186523438 272.055664062 l 1
 694 166.658203125 l 1
126.755859375 190.198242188 m 1
 158.228515625 337.01953125 l 1
 429.267578125 497.461914062 l 1
 168.098632812 681 l 1
 50 681 l 1
 50 813 l 1
 891 813 l 1
 891 681 l 1
 846 681 l 1
 846 8 l 1
 694 8 l 1
 694 10.1826171875 l 1
 126.755859375 190.198242188 l 1
EndSplineSet
EndChar

StartChar: uni09A5
Encoding: 2469 2469 395
Width: 723
VWidth: 0
Flags: HW
HStem: 13 151<293.471 384> 377 151<293.471 384>
VStem: 100 151<206.066 334.529>
LayerCount: 2
Fore
SplineSet
224.400390625 776.462890625 m 1
 231.243164062 777.149414062 236.181640625 777.52734375 243.200195312 777.5 c 0
 357.951171875 777.052734375 510.767578125 708.090820312 517.599609375 588.900390625 c 0
 526.655273438 430.920898438 331.840820312 357.525390625 230 293 c 1
 574 176.745117188 l 1
 574 681 l 1
 574 787 l 1
 574 813 l 1
 773 813 l 1
 773 681 l 1
 720 681 l 1
 720 11 l 1
 574 11 l 1
 574 26.0556640625 l 1
 138 207 l 1
 138 359 l 1
 138 359 279 456 361 528 c 0
 382 546 398.799804688 588.900390625 398.799804688 588.900390625 c 1
 398.799804688 636.099609375 293.200195312 656.700195312 245.200195312 656.700195312 c 0
 238.029296875 656.700195312 231.060546875 655.83203125 224.400390625 654.194335938 c 1
 224.400390625 776.462890625 l 1
EndSplineSet
EndChar

StartChar: uni0980
Encoding: 2432 2432 396
Width: 534
VWidth: 0
Flags: HW
HStem: 275 151<293.471 382> 639 150<293.591 381.625>
VStem: 382 152<13 276 426.026 638.974> 100 151<468.471 596.934>
LayerCount: 2
Fore
SplineSet
310 353 m 1
 310 275 l 1
 167 275 100 390 100 533 c 0
 100 675 215 790 358 790 c 0
 366 790 453 797 495 762 c 0
 533 730 534 641 534 641 c 1
 534 13 l 1
 382 13 l 1
 382 276 l 1
 376.247070312 275.28125 388.752929688 398.056640625 383 398 c 1
 382 429 l 1
 382 636 l 1
 374 638 366 639 358 639 c 0
 298 639 251 592 251 533 c 0
 251 473 250 426 310 426 c 0
 311.09375 426 308.90625 352.962890625 310 353 c 1
EndSplineSet
EndChar

StartChar: uni09BC
Encoding: 2492 2492 397
Width: 0
VWidth: 0
GlyphClass: 4
Flags: HW
HStem: 8 142<-26 126>
VStem: -26 152<8 150>
LayerCount: 2
Fore
SplineSet
-410 -128 m 1
 -410 14 l 1
 -258 14 l 1
 -258 -128 l 1
 -410 -128 l 1
EndSplineSet
EndChar

StartChar: uni09BD
Encoding: 2493 2493 398
Width: 689
VWidth: 0
Flags: HW
LayerCount: 2
Fore
SplineSet
299 492.999023438 m 1
 299 477 l 1
 289.196289062 485.032226562 l 2
 288.168945312 484.111328125 287.151367188 483.169921875 286.141601562 482.20703125 c 2
 286.141601562 482.20703125 272.28125 495.926757812 254.485351562 513.469726562 c 2
 50 681 l 1
 50 813 l 1
 257.661132812 642.868164062 l 1
 352.690429688 685.614257812 466.420898438 668.53125 545.080078125 589.872070312 c 0
 646.706054688 488.24609375 644.452148438 326.5078125 542.18359375 223.525390625 c 0
 516.661132812 197.825195312 489.724609375 179.067382812 462.2578125 166.3515625 c 1
 643 9 l 1
 484 9 l 1
 275.735351562 163.26953125 l 1
 240.404296875 177.595703125 207.993164062 199.703125 180.920898438 227.127929688 c 1
 283.453125 329.66015625 l 1
 283.686523438 329.422851562 283.921875 329.186523438 284.158203125 328.950195312 c 0
 326.666992188 286.440429688 390.711914062 287.127929688 436.141601562 331.051757812 c 0
 479.873046875 376.353515625 480.990234375 440.416015625 438.306640625 483.099609375 c 0
 399.102539062 522.3046875 342.970703125 525.259765625 299 492.999023438 c 1
EndSplineSet
EndChar

StartChar: uni099A
Encoding: 2458 2458 399
Width: 530
VWidth: 0
Flags: HW
HStem: 377.571 151<252 340.529> 14.5714 150<252.375 340.409>
VStem: 100 152<527.571 790.571 164.597 377.545> 383 151<206.637 335.1>
LayerCount: 2
Fore
SplineSet
252 167.571289062 m 1
 260 165.571289062 268 164.571289062 276 164.571289062 c 0
 336 164.571289062 383 211.571289062 383 270.571289062 c 0
 383 330.571289062 336 377.571289062 276 377.571289062 c 0
 268 377.571289062 260 376.571289062 252 374.571289062 c 1
 252 167.571289062 l 1
580 813 m 1
 580 681 l 1
 252 681 l 1
 252 527.571289062 l 1
 260 528.571289062 268 528.571289062 276 528.571289062 c 0
 419 528.571289062 534 413.571289062 534 270.571289062 c 0
 534 128.571289062 419 13.5712890625 276 13.5712890625 c 0
 268 13.5712890625 181 6.5712890625 139 41.5712890625 c 0
 101 73.5712890625 100 162.571289062 100 162.571289062 c 1
 100 681 l 1
 50 681 l 1
 50 813 l 1
 580 813 l 1
EndSplineSet
EndChar

StartChar: uni09CD
Encoding: 2509 2509 400
Width: 0
VWidth: 0
Flags: HW
LayerCount: 2
Fore
SplineSet
-54 9 m 1
 90 -176 l 5
 -16 -237 l 5
 -160 -52 l 1
 -54 9 l 1
EndSplineSet
EndChar

StartChar: uni09B8
Encoding: 2488 2488 401
Width: 512
VWidth: 0
Flags: HW
LayerCount: 2
Fore
SplineSet
105 105 m 1
 180 230 l 1
 186 225 192 220 202 215 c 0
 253 185 317 202 347 250 c 0
 379 306 329 354 277 363 c 1
 152.791992188 430.033203125 69.3974609375 542.73828125 147.517578125 681 c 1
 50 681 l 1
 50 813 l 1
 826 813 l 1
 826 681 l 1
 805 681 l 1
 805 10 l 1
 653.018554688 10 l 1
 651 8 l 1
 478.500976562 180.499023438 l 1
 478.006835938 179.66796875 477.506835938 178.834960938 477 178 c 0
 408 61 251 22 126 90 c 0
 120 96 112 99 105 105 c 1
495.565429688 335.6171875 m 1
 496 338 l 1
 653 204.877929688 l 1
 653 681 l 1
 405.704101562 681 l 1
 399.729492188 676.977539062 394.71875 674.640625 392 676 c 0
 388.315429688 678.022460938 384.744140625 679.681640625 381.276367188 681 c 2
 341.71875 681 l 1
 318.456054688 670.96484375 300.250976562 643.418945312 282 613 c 0
 249 558 282 477 346 466 c 1
 410.7421875 431.138671875 469.97265625 389.541992188 495.565429688 335.6171875 c 1
EndSplineSet
EndChar

StartChar: uni09AE
Encoding: 2478 2478 402
Width: 778
VWidth: 0
Flags: HW
LayerCount: 2
Fore
SplineSet
357.43359375 456.358398438 m 1025
820 813 m 1
 820 681 l 1
 799 681 l 1
 799 10 l 1
 647.018554688 10 l 1
 645 8 l 1
 529.301757812 123.698242188 l 1
 482.826171875 56.79296875 405.244140625 13 317 13 c 0
 315.956054688 13 314.92578125 13.001953125 313.90625 13.001953125 c 0
 313.603515625 13.001953125 313.301757812 13 313 13 c 0
 311.815429688 13 310.631835938 13.0078125 309.451171875 13.0234375 c 0
 304.662109375 13.0693359375 300.004882812 13.205078125 295.133789062 13.6025390625 c 0
 160.541992188 22.708984375 55 133.96484375 55 270 c 0
 55 349.491210938 90.5361328125 420.331054688 146.6640625 467.573242188 c 1
 105.15234375 527.244140625 95.046875 599.8515625 141.473632812 681 c 1
 44 681 l 1
 44 813 l 1
 820 813 l 1
314.955078125 376.982421875 m 0
 306.641601562 376.842773438 298.393554688 375.848632812 291 374 c 1
 291 374.828125 l 1
 241.8984375 364.9453125 206 322.4375 206 270 c 0
 206 218.436523438 241.8984375 176.0390625 291 166.169921875 c 1
 291 167 l 1
 298.393554688 165.151367188 306.641601562 164.157226562 314.955078125 164.017578125 c 0
 323.23046875 164.163085938 331.280273438 165.234375 339 167.131835938 c 1
 339 166.169921875 l 1
 388.1015625 176.0390625 424 218.436523438 424 270 c 0
 424 322.4375 388.1015625 364.9453125 339 374.828125 c 1
 339 373.864257812 l 1
 331.280273438 375.765625 323.23046875 376.836914062 314.955078125 376.982421875 c 0
647 204.877929688 m 1
 647 681 l 1
 399.704101562 681 l 1
 393.729492188 676.977539062 388.71875 674.640625 386 676 c 0
 382.315429688 678.022460938 378.744140625 679.681640625 375.276367188 681 c 2
 335.71875 681 l 1
 312.456054688 670.96484375 294.250976562 643.418945312 276 613 c 0
 259.8125 586.020507812 259.505859375 552.78515625 270.94921875 524.624023438 c 1
 278.890625 525.9140625 286.956054688 526.84375 295.12890625 527.397460938 c 0
 300.001953125 527.794921875 304.66015625 527.930664062 309.451171875 527.9765625 c 0
 310.631835938 527.9921875 311.815429688 528 313 528 c 0
 313.301757812 528 313.603515625 527.999023438 313.905273438 527.998046875 c 0
 314.92578125 528 315.956054688 528 317 528 c 0
 460 528 575 413 575 270 c 0
 575 268.6484375 574.989257812 267.299804688 574.96875 265.954101562 c 2
 647 204.877929688 l 1
EndSplineSet
EndChar

StartChar: uni0998
Encoding: 2456 2456 403
Width: 770
VWidth: 0
Flags: HW
LayerCount: 2
Fore
SplineSet
129.7421875 681.545898438 m 1
 44 681 l 1
 44 813 l 1
 820 813 l 1
 820 681 l 1
 799 681 l 1
 799 10 l 1
 409 29.3212890625 l 0
 237.732421875 29.3212890625 100 131.786132812 100 258.307617188 c 0
 100 321.702148438 128.467773438 378.918945312 174.689453125 420.4140625 c 1
 128.467773438 461.795898438 100 518.791015625 100 581.741210938 c 0
 100 617.5546875 110.669921875 651.396484375 129.7421875 681.545898438 c 1
647 681 m 1
 403 677.078125 l 1
 317.766601562 677.078125 251 635.200195312 251 581.741210938 c 0
 251 532.912109375 291.549804688 493.30859375 345.40234375 487.918945312 c 0
 349.576171875 488.095703125 353.775390625 488.186523438 358 488.186523438 c 0
 362.170898438 488.186523438 366.318359375 488.096679688 370.442382812 487.921875 c 0
 375.056640625 488.391601562 379.58203125 489.1171875 384 490.0859375 c 1
 384 487.030273438 l 1
 384 353.909179688 l 1
 384 350.850585938 l 1
 379.58203125 351.8203125 375.056640625 352.547851562 370.44140625 353.017578125 c 0
 366.318359375 352.841796875 362.170898438 352.75390625 358 352.75390625 c 0
 353.776367188 352.75390625 349.577148438 352.84375 345.404296875 353.020507812 c 0
 291.55078125 347.627929688 251 307.96484375 251 258.307617188 c 0
 251 205.740234375 320.40234375 163.861328125 409 163.861328125 c 5
 650 170 l 5
 647 681 l 1
EndSplineSet
EndChar

StartChar: uni0999
Encoding: 2457 2457 404
Width: 616
VWidth: 0
Flags: HW
HStem: 13.0016 151.016<293.473 423.671> 376 151.998<359 491> 681 132<50 359 491 666> 681 80<359 491>
VStem: 359 132<527.998 761>
LayerCount: 2
Fore
SplineSet
60 710 m 1
 180 806 l 1
 361.640625 700.890625 l 1
 367.836914062 762.955078125 418.28515625 812.319335938 481 817 c 0
 483 817 486 817 488 817 c 0
 489 817 489 817 490 817 c 0
 491 817 491 817 492 817 c 0
 564 817 621 760 621 688 c 0
 621 639.665039062 544.583007812 577.791992188 505 556 c 1
 453 458 l 1
 531.610351562 413.868164062 622.310546875 366.931640625 620 270 c 0
 616.541015625 124.885742188 502.287109375 12.7998046875 358.90625 13.001953125 c 0
 189.0390625 13.240234375 105.165039062 141.7890625 106.000976562 271 c 1
 251.00390625 271 l 1
 251.000976562 270.666992188 251 270.333984375 251 270 c 0
 251 209.8828125 296.772460938 165.08203125 359.955078125 164.017578125 c 0
 422.911132812 165.126953125 469 209.63671875 469 270 c 0
 469 326.657226562 429.734375 369.046875 373.932617188 376 c 1
 359 376 l 1
 368 527.624023438 l 2
 367.96875 527.87109375 367.9375 527.998046875 367.905273438 527.998046875 c 1
 367.9375 527.998046875 367.96875 527.998046875 368 527.998046875 c 2
 377 554 l 1
 371.180664062 576.630859375 l 1
 361.329101562 582.219726562 352.288085938 589.047851562 344.279296875 596.907226562 c 1
 60 710 l 1
491 742 m 0
 487 742 483 741 479 740 c 1
 479 741 l 1
 454 736 437 714 437 688 c 0
 437 670.083984375 445.072265625 654.54296875 458.270507812 644.973632812 c 2
 467.364257812 639.711914062 l 2
 471 638.075195312 474.891601562 636.821289062 479 636 c 1
 479 637 l 1
 483 636 487 635 491 635 c 0
 495 635 499 636 503 637 c 1
 503 636 l 1
 528 641 545 662 545 688 c 0
 545 714 528 736 503 741 c 1
 503 740 l 1
 499 741 495 742 491 742 c 0
EndSplineSet
EndChar

StartChar: uni09AA
Encoding: 2474 2474 405
Width: 619
VWidth: 0
Flags: HW
HStem: -29.1672 157<617.596 784.478> 596.833 161<617.596 784.478>
VStem: 330.569 153<266.132 461.033>
LayerCount: 2
Fore
SplineSet
274.63671875 585.595703125 m 1
 292.1640625 637.83984375 334.065429688 675.619140625 384.059570312 689.534179688 c 1
 340.935546875 713.227539062 286.286132812 714.090820312 239.953125 687.340820312 c 0
 198.598632812 663.46484375 172.9296875 623.219726562 166.84765625 580.13671875 c 1
 274.63671875 585.595703125 l 1
401.774414062 375.487304688 m 1
 396.47265625 376.354492188 391.165039062 377.4921875 385.869140625 378.911132812 c 0
 341.588867188 390.776367188 314.08984375 447.485351562 293.658203125 484.428710938 c 1
 192.545898438 477.296875 l 1
 198.809570312 468.700195312 205.913085938 460.994140625 213.681640625 454.22265625 c 1
 126.032226562 403.618164062 l 1
 116.100585938 414.936523438 107.140625 427.376953125 99.3388671875 440.891601562 c 0
 33.4013671875 555.09765625 75.2265625 702.654296875 193.22265625 770.779296875 c 0
 284.034179688 823.209960938 393.524414062 812.651367188 469 752.37890625 c 1
 469 855 l 1
 621 855 l 1
 621 811 l 1
 669 811 l 1
 669 679 l 1
 621 679 l 1
 621 6 l 1
 469 6 l 1
 469 496.981445312 l 1
 467 495 l 1
 468.055664062 601.0859375 l 1
 461.157226562 597.103515625 l 1
 459.939453125 592.561523438 l 1
 458.790039062 593.1953125 457.614257812 593.796875 456.416992188 594.368164062 c 2
 454.438476562 593.224609375 l 1
 454.291992188 593.973632812 454.137695312 594.720703125 453.977539062 595.46875 c 0
 451.025390625 596.733398438 447.9453125 597.8046875 444.750976562 598.659179688 c 0
 408.528320312 608.366210938 372.55078125 587.594726562 362.844726562 551.37109375 c 0
 353.30078125 515.751953125 374.073242188 479.77734375 410.294921875 470.071289062 c 0
 415.706054688 468.620117188 421.140625 467.868164062 426.497070312 467.755859375 c 1
 401.774414062 375.487304688 l 1
275.38671875 585.633789062 m 2
 275.694335938 587.6875 275.354492188 587.16796875 274.775390625 585.603515625 c 1
 275.38671875 585.633789062 l 2
EndSplineSet
EndChar

StartChar: uni09E7
Encoding: 2535 2535 406
Width: 555
VWidth: 0
Flags: HW
HStem: 626 157<101.091 267.973> -4 161<101.091 267.973>
VStem: 402 153<292.8 487.701>
LayerCount: 2
Fore
SplineSet
173 157 m 0
 300 157 402 262 402 391 c 0
 402 521 300 626 173 626 c 0
 147.4453125 626 122.903320312 621.749023438 100 613.897460938 c 1
 100 775.830078125 l 1
 123.62890625 780.536132812 148.034179688 783 173 783 c 0
 384 783 555 607 555 389 c 0
 555 172 384 -4 173 -4 c 0
 148.034179688 -4 123.62890625 -1.5361328125 100 3.16796875 c 1
 100 169.09375 l 1
 122.903320312 161.250976562 147.4453125 157 173 157 c 0
EndSplineSet
EndChar

StartChar: uni09E8
Encoding: 2536 2536 407
Width: 783
VWidth: 0
Flags: HW
HStem: 20 152<351 783> 620 152<100 530>
LayerCount: 2
Fore
SplineSet
20.16015625 236.225585938 m 1
 96.16015625 367.861328125 l 1
 477.34375 456.08984375 l 1
 104.5859375 672.456054688 l 1
 180.586914062 804.092773438 l 1
 711.826171875 496.2265625 l 1
 635.826171875 364.58984375 l 1
 253.77734375 276.861328125 l 1
 598.455078125 77.861328125 l 1
 522.455078125 -53.775390625 l 1
 20.16015625 236.225585938 l 1
EndSplineSet
EndChar

StartChar: uni09A6
Encoding: 2470 2470 408
Width: 725
VWidth: 0
Flags: HW
HStem: 20 152<351 783> 620 152<100 530>
LayerCount: 2
Fore
SplineSet
712.5 592.5 m 1
 712.5 12.5 l 1
 560.5 12.5 l 1
 560.5 410.5 l 1
 293.5 123.5 l 1
 141.5 123.5 l 1
 140.591796875 681 l 1
 50 681 l 1
 50 813 l 1
 776 813 l 1
 776 681 l 1
 292.630859375 681 l 1
 293.5 306.5 l 1
 560.5 592.5 l 1
 712.5 592.5 l 1
EndSplineSet
EndChar

StartChar: uni09E9
Encoding: 2537 2537 409
Width: 726
VWidth: 75
Flags: HW
HStem: 14.7002 133.6<355.264 518.805> 523.479 120.821<445.987 517.023> 681 132<50 776>
VStem: 142.4 111.399<250.829 338.876> 620.2 133.399<250.829 424.049>
LayerCount: 2
Fore
SplineSet
439.780273438 523.478515625 m 1
 439.780273438 523.478515625 445.987304688 644.29296875 445.987304688 644.29296875 c 2
 446.657226562 644.297851562 447.328125 644.299804688 448 644.299804688 c 0
 616.799804688 644.299804688 753.599609375 503.5 753.599609375 329.900390625 c 0
 753.599609375 155.5 616.799804688 14.7001953125 448 14.7001953125 c 0
 279.200195312 14.7001953125 142.400390625 155.5 142.400390625 329.900390625 c 0
 142.400390625 330.77734375 253.86328125 340.658203125 253.870117188 341.533203125 c 1
 253.823242188 339.794921875 253.799804688 338.049804688 253.799804688 336.299804688 c 0
 253.799804688 232.299804688 335.400390625 148.299804688 437 148.299804688 c 0
 538.599609375 148.299804688 620.200195312 232.299804688 620.200195312 336.299804688 c 0
 620.200195312 438.556640625 540.084960938 521.962890625 439.780273438 523.478515625 c 1
EndSplineSet
EndChar

StartChar: uni099B
Encoding: 2459 2459 410
Width: 726
VWidth: 75
Flags: HW
LayerCount: 2
Fore
SplineSet
776 813 m 1
 776 681 l 1
 265 681 l 1
 265 581.400390625 l 1
 271.400390625 582.200195312 277.799804688 582.200195312 284.200195312 582.200195312 c 0
 353.5859375 582.200195312 414.731445312 548.356445312 452.107421875 496.198242188 c 1
 463.2421875 497.475585938 474.616210938 498.13671875 486.1796875 498.13671875 c 0
 621.220703125 498.13671875 730.66015625 408.0234375 730.66015625 296.920898438 c 0
 730.66015625 213.858398438 670.052734375 148.09375 583.390625 119.879882812 c 1
 759.459960938 121.560546875 l 1
 759.459960938 43.736328125 l 1
 437.540039062 40.6640625 l 1
 439.459960938 191.500976562 l 1
 454.118164062 187.48046875 469.825195312 185.3046875 486.1796875 185.3046875 c 0
 567.459960938 185.3046875 632.740234375 229.3359375 632.740234375 295.896484375 c 0
 632.740234375 361.78125 567.783203125 415.4375 486.783203125 415.703125 c 1
 489.288085938 402.80078125 490.599609375 389.459960938 490.599609375 375.799804688 c 0
 490.599609375 262.200195312 398.599609375 170.200195312 284.200195312 170.200195312 c 0
 277.799804688 170.200195312 271.400390625 170.200195312 265 171 c 2
 143.400390625 171 l 1
 143.400390625 681 l 1
 50 681 l 1
 50 813 l 1
 776 813 l 1
265 293.400390625 m 1
 271.400390625 291.799804688 277.799804688 291 284.200195312 291 c 0
 332.200195312 291 369.799804688 328.599609375 369.799804688 375.799804688 c 0
 369.799804688 423.799804688 332.200195312 461.400390625 284.200195312 461.400390625 c 0
 277.799804688 461.400390625 271.400390625 460.599609375 265 459 c 1
 265 293.400390625 l 1
EndSplineSet
EndChar

StartChar: uni09A0
Encoding: 2464 2464 411
Width: 726
VWidth: 75
Flags: HW
LayerCount: 2
Fore
SplineSet
424 546 m 1030
776 813 m 1
 776 681 l 1
 664.923828125 681 l 1
 775.252929688 586.844726562 827.63671875 431.422851562 786.516601562 277.9609375 c 0
 730.352539062 68.3544921875 519.626953125 -57.3896484375 315.81640625 -2.78125 c 0
 291.701171875 3.6826171875 268.767578125 12.37890625 247.159179688 23.037109375 c 1
 286.892578125 171.319335938 l 1
 283.129882812 177.834960938 l 1
 285.1484375 178.418945312 287.159179688 179.067382812 289.159179688 179.77734375 c 2
 290.104492188 183.309570312 l 1
 291.118164062 182.627929688 292.137695312 181.956054688 293.1640625 181.290039062 c 0
 297.936523438 183.200195312 302.630859375 185.475585938 307.213867188 188.12109375 c 0
 359.17578125 218.119140625 328.616210938 613.452148438 298.615234375 665.413085938 c 0
 295.375976562 671.0234375 291.71875 676.224609375 287.706054688 681 c 1
 50 681 l 1
 50 813 l 1
 301.8359375 813 l 1
 286.87109375 827.96484375 l 2
 241.616210938 873.219726562 263.536132812 930.49609375 218.28125 975.750976562 c 0
 182.21875 1011.8125 95.2451171875 1019.59082031 95.2451171875 1019.59082031 c 1
 183.6328125 1107.97949219 l 1
 183.6328125 1107.97949219 268.486328125 1102.32226562 303.841796875 1066.96777344 c 0
 350.510742188 1020.29785156 331.418945312 961.608398438 378.087890625 914.939453125 c 0
 409.200195312 883.826171875 409.907226562 883.119140625 440.723632812 851.7109375 c 0
 467.475585938 825.282226562 510.520507812 815.987304688 544.153320312 813 c 2
 776 813 l 1
436 626 m 1
 475.278320312 547.065429688 519.508789062 226.275390625 478.690429688 153.971679688 c 1
 554.286132812 175.953125 617.08984375 236.806640625 639.24609375 319.491210938 c 0
 659.021484375 393.290039062 543.860351562 606.377929688 502 662 c 1
 436 626 l 1
EndSplineSet
EndChar

StartChar: uni09EA
Encoding: 2538 2538 412
Width: 616
VWidth: 0
Flags: HW
HStem: 376.983 92.0348<336.347 383.638>
VStem: 100 151<207.14 334.826 510.772 638.449> 469 151<205.844 334.826 510.772 639.753>
LayerCount: 2
Fore
SplineSet
359.037109375 13.201171875 m 0
 358.771484375 13.201171875 358.505859375 13.2001953125 358.240234375 13.2001953125 c 0
 357.197265625 13.2001953125 356.15625 13.2060546875 355.116210938 13.220703125 c 0
 350.90234375 13.2607421875 346.8046875 13.380859375 342.518554688 13.7294921875 c 0
 224.077148438 21.744140625 131.200195312 119.6484375 131.200195312 239.359375 c 0
 131.200195312 289.814453125 189.974609375 379.916992188 212.056640625 409.995117188 c 1
 189.974609375 439.971679688 176.959960938 476.998046875 176.959960938 517.078125 c 0
 176.959960938 613.520507812 251.259765625 691.87109375 346.010742188 698.286132812 c 0
 349.44140625 698.565429688 352.720703125 698.661132812 356.092773438 698.694335938 c 0
 356.924804688 698.706054688 357.7578125 698.709960938 358.591796875 698.709960938 c 0
 358.8046875 698.709960938 359.017578125 698.709960938 359.228515625 698.708984375 c 0
 359.947265625 698.709960938 360.672851562 698.709960938 361.408203125 698.709960938 c 0
 462.080078125 698.709960938 543.040039062 617.75 543.040039062 517.078125 c 0
 543.040039062 476.998046875 530.025390625 439.971679688 507.943359375 409.995117188 c 1
 530.025390625 379.916992188 588.799804688 289.814453125 588.799804688 239.359375 c 0
 588.799804688 114.400390625 487.599609375 13.2001953125 361.759765625 13.2001953125 c 0
 360.840820312 13.2001953125 359.934570312 13.201171875 359.037109375 13.201171875 c 0
359.967773438 592.393554688 m 0
 354.115234375 592.295898438 348.309570312 591.596679688 343.103515625 590.293945312 c 1
 343.103515625 590.877929688 l 1
 308.536132812 583.920898438 283.263671875 553.994140625 283.263671875 517.078125 c 0
 283.263671875 480.778320312 308.536132812 450.930664062 343.103515625 443.982421875 c 1
 343.103515625 444.56640625 l 1
 348.309570312 443.264648438 354.115234375 442.565429688 359.967773438 442.467773438 c 0
 365.793945312 442.569335938 371.461914062 443.323242188 376.896484375 444.659179688 c 1
 376.896484375 443.982421875 l 1
 411.463867188 450.930664062 436.736328125 480.778320312 436.736328125 517.078125 c 0
 436.736328125 553.994140625 411.463867188 583.920898438 376.896484375 590.877929688 c 1
 376.896484375 590.198242188 l 1
 371.461914062 591.538085938 365.793945312 592.291992188 359.967773438 592.393554688 c 0
359.959960938 333.504882812 m 0
 352.64453125 333.381835938 345.38671875 332.505859375 338.879882812 330.879882812 c 1
 338.879882812 331.609375 l 1
 295.669921875 322.912109375 264.080078125 285.504882812 264.080078125 239.359375 c 0
 264.080078125 193.984375 295.669921875 156.673828125 338.879882812 147.990234375 c 1
 338.879882812 148.720703125 l 1
 345.38671875 147.09375 352.64453125 146.21875 359.959960938 146.094726562 c 0
 367.243164062 146.223632812 374.327148438 147.166015625 381.120117188 148.8359375 c 1
 381.120117188 147.990234375 l 1
 424.330078125 156.673828125 455.919921875 193.984375 455.919921875 239.359375 c 0
 455.919921875 285.504882812 424.330078125 322.912109375 381.120117188 331.609375 c 1
 381.120117188 330.760742188 l 1
 374.327148438 332.434570312 367.243164062 333.375976562 359.959960938 333.504882812 c 0
EndSplineSet
EndChar

StartChar: uni09E6
Encoding: 2534 2534 413
Width: 864
VWidth: 0
Flags: HW
HStem: 35.35 141.3<406.32 558.56> 598.75 144.9<406.32 558.56>
VStem: 176.5 122<292.263 485.349> 665.5 122<289.999 487.603>
LayerCount: 2
Fore
SplineSet
665.5 388.150390625 m 0
 665.5 504.25 584.5 598.75 482.5 598.75 c 0
 380.5 598.75 298.5 504.25 298.5 388.150390625 c 0
 298.5 271.150390625 380.5 176.650390625 482.5 176.650390625 c 0
 584.5 176.650390625 665.5 271.150390625 665.5 388.150390625 c 0
787.5 389.950195312 m 0
 787.5 193.75 651.5 35.349609375 482.5 35.349609375 c 0
 313.5 35.349609375 176.5 193.75 176.5 389.950195312 c 0
 176.5 585.25 313.5 743.650390625 482.5 743.650390625 c 0
 651.5 743.650390625 787.5 585.25 787.5 389.950195312 c 0
EndSplineSet
EndChar

StartChar: uni25CC
Encoding: 9676 9676 414
Width: 864
VWidth: 0
Flags: HW
HStem: -4 157<387.027 576.973> 622 161<387.027 576.973>
VStem: 100 153<288.712 488.774> 711 153<288.712 488.774>
LayerCount: 2
Fore
SplineSet
120 254 m 0
 120 303 159 342 208 342 c 0
 257 342 296 303 296 254 c 0
 296 205 257 166 208 166 c 0
 159 166 120 205 120 254 c 0
293 100 m 0
 293 149 332 188 381 188 c 0
 430 188 469 149 469 100 c 0
 469 51 430 12 381 12 c 0
 332 12 293 51 293 100 c 0
659 235 m 0
 659 284 698 323 747 323 c 0
 796 323 835 284 835 235 c 0
 835 186 796 147 747 147 c 0
 698 147 659 186 659 235 c 0
514 98 m 0
 514 147 553 186 602 186 c 0
 651 186 690 147 690 98 c 0
 690 49 651 10 602 10 c 0
 553 10 514 49 514 98 c 0
687 444 m 0
 687 493 726 532 775 532 c 0
 824 532 863 493 863 444 c 0
 863 395 824 356 775 356 c 0
 726 356 687 395 687 444 c 0
98 472 m 0
 98 521 137 560 186 560 c 0
 235 560 274 521 274 472 c 0
 274 423 235 384 186 384 c 0
 137 384 98 423 98 472 c 0
215 644 m 0
 215 693 254 732 303 732 c 0
 352 732 391 693 391 644 c 0
 391 595 352 556 303 556 c 0
 254 556 215 595 215 644 c 0
602 618 m 0
 602 667 641 706 690 706 c 0
 739 706 778 667 778 618 c 0
 778 569 739 530 690 530 c 0
 641 530 602 569 602 618 c 0
409 702 m 0
 409 751 448 790 497 790 c 0
 546 790 585 751 585 702 c 0
 585 653 546 614 497 614 c 0
 448 614 409 653 409 702 c 0
EndSplineSet
EndChar

StartChar: Euro
Encoding: 8364 8364 415
Width: 555
VWidth: 0
Flags: HW
HStem: -4 157<387.027 553.909> 622 161<387.027 553.909>
VStem: 100 153<291.299 486.2>
LayerCount: 2
Fore
SplineSet
65 368 m 2
 473 368 l 2
 481 368 488 361 488 353 c 2
 488 297 l 2
 488 289 481 282 473 282 c 2
 65 282 l 2
 57 282 50 289 50 297 c 2
 50 353 l 2
 50 361 57 368 65 368 c 2
65 543 m 6
 473 543 l 6
 481 543 488 536 488 528 c 6
 488 472 l 6
 488 464 481 457 473 457 c 6
 65 457 l 6
 57 457 50 464 50 472 c 6
 50 528 l 6
 50 536 57 543 65 543 c 6
482 622 m 0
 355 622 253 517 253 388 c 0
 253 258 355 153 482 153 c 0
 507.5546875 153 532.096679688 157.250976562 555 165.102539062 c 1
 555 3.169921875 l 1
 531.37109375 -1.5361328125 506.965820312 -4 482 -4 c 0
 271 -4 100 172 100 390 c 0
 100 607 271 783 482 783 c 0
 506.965820312 783 531.37109375 780.536132812 555 775.83203125 c 1
 555 609.90625 l 1
 532.096679688 617.749023438 507.5546875 622 482 622 c 0
EndSplineSet
EndChar

StartChar: uni20B9
Encoding: 8377 8377 416
Width: 826
VWidth: 75
Flags: HW
LayerCount: 2
Fore
SplineSet
826 813 m 1
 826 681 l 1
 487.1171875 681 l 1
 589.01953125 653.420898438 665.443359375 565.403320312 675.80078125 458 c 1
 811 458 l 2
 819 458 826 451 826 443 c 2
 826 395 l 2
 826 387 819 380 811 380 c 2
 671.603515625 380 l 1
 655.0234375 299.890625 601.556640625 233.643554688 529.596679688 199.649414062 c 1
 766.348632812 -27.0107421875 l 1
 673.010742188 -120.348632812 l 1
 297.651367188 239.010742188 l 1
 390.989257812 332.348632812 l 1
 394.788085938 328.711914062 l 1
 402.5703125 326.935546875 410.67578125 326 419 326 c 0
 459.588867188 326 494.228515625 347.508789062 512.393554688 380 c 1
 247 380 l 2
 239 380 232 387 232 395 c 2
 232 443 l 2
 232 451 239 458 247 458 c 2
 523.091796875 458 l 1
 511.978515625 504.739257812 470.227539062 539 419 539 c 0
 410.036132812 539 401.326171875 537.915039062 393 535.868164062 c 1
 393 681 l 1
 100 681 l 1
 100 813 l 1
 826 813 l 1
EndSplineSet
EndChar

StartChar: uni09F0
Encoding: 2544 2544 417
Width: 723
VWidth: 0
Flags: HW
HStem: 681 132<50 574 720 773> 681 106<574 720>
VStem: 574 146<11 83.5 235.5 483.5 635.5 787> 574 57.5<83.5 235.5 483.5 483.5>
LayerCount: 2
Fore
SplineSet
773 813 m 1
 773 681 l 1
 720 681 l 1
 720 11 l 1
 576 11 l 1
 576 10 l 1
 574.334960938 11 l 1
 574 11 l 1
 574 11.201171875 l 1
 120.5 283.5 l 1
 120.5 435.5 l 1
 574 612.995117188 l 1
 574 681 l 1
 50 681 l 1
 50 813 l 1
 773 813 l 1
574 165.254882812 m 1
 574 248.194335938 l 1
 392.198242188 402.645507812 l 1
 264.5 359.5 l 1
 574 165.254882812 l 1
574 358.447265625 m 1
 574 464.072265625 l 1
 487.383789062 434.806640625 l 1
 574 358.447265625 l 1
EndSplineSet
EndChar

StartChar: uni09F1
Encoding: 2545 2545 418
Width: 723
VWidth: 0
Flags: HW
HStem: 681 132<50 574 720 773> 681 106<574 720>
VStem: 574 146<11 83.5 235.5 483.5 635.5 787> 574 57.5<83.5 235.5 483.5 483.5>
LayerCount: 2
Fore
SplineSet
773 813 m 1
 773 681 l 1
 720 681 l 1
 720 11 l 1
 574 11 l 1
 430.336914062 109.336914062 270.356445312 191.356445312 120.5 283.5 c 1
 120.5 435.5 l 1
 574 612.995117188 l 1
 574 681 l 1
 50 681 l 1
 50 813 l 1
 773 813 l 1
94 206 m 1
 526 -34 l 1
 464 -127 l 1
 50 100 l 1
 94 206 l 1
574 169.11328125 m 1
 574 464.072265625 l 1
 264.5 359.5 l 1
 574 169.11328125 l 1
EndSplineSet
EndChar

StartChar: uni09BF
Encoding: 2495 2495 419
Width: 275
VWidth: 0
Flags: HW
LayerCount: 2
Fore
SplineSet
322 813 m 1
 322 681 l 1
 277 681 l 1
 277 8 l 1
 125 8 l 1
 125 681 l 1
 50 681 l 1
 50 813 l 1
 125 813 l 1
 126.926757812 813 l 1
 126.3125 820.25390625 126 827.590820312 126 835 c 0
 126 978 241 1093 383 1093 c 0
 526 1093 641 978 641 835 c 0
 641 826.2265625 640.560546875 817.553710938 639.704101562 809 c 1
 486.864257812 809 l 1
 488.915039062 817.326171875 490 826.036132812 490 835 c 0
 490 895 443 942 383 942 c 0
 324 942 277 895 277 835 c 0
 277 827.4609375 277.767578125 820.102539062 279.228515625 813 c 1
 322 813 l 1
EndSplineSet
EndChar

StartChar: uni09C0
Encoding: 2496 2496 420
Width: 246
VWidth: 0
Flags: HW
LayerCount: 2
Fore
SplineSet
296 813 m 1
 296 681 l 1
 251 681 l 1
 251 8 l 1
 99 8 l 1
 99 681 l 1
 49 681 l 1
 49 813 l 1
 99 813 l 1
 99.5126953125 813 l 1
 101.143554688 821.529296875 102 834.033203125 102 842 c 0
 102 902 55 949 -5 949 c 0
 -64 949 -111 902 -111 842 c 0
 -111 833.036132812 -109.915039062 824.326171875 -107.868164062 816 c 1
 -260.704101562 816 l 1
 -261.561523438 824.553710938 -262 833.2265625 -262 842 c 0
 -262 985 -147 1100 -5 1100 c 0
 138 1100 253 985 253 842 c 0
 253 834.182617188 252.651367188 821.682617188 251.969726562 813 c 1
 296 813 l 1
EndSplineSet
EndChar

StartChar: uni09C1
Encoding: 2497 2497 421
Width: 0
VWidth: 0
Flags: HW
LayerCount: 2
Fore
SplineSet
-105.935546875 -107.4140625 m 0
 -112.5859375 -107.525390625 -119.185546875 -108.321289062 -125.099609375 -109.799804688 c 1
 -125.099609375 -109.137695312 l 1
 -164.380859375 -117.043945312 -193.099609375 -151.049804688 -193.099609375 -193 c 0
 -193.099609375 -234.250976562 -164.380859375 -268.168945312 -125.099609375 -276.064453125 c 1
 -125.099609375 -275.400390625 l 1
 -119.185546875 -276.87890625 -112.5859375 -277.673828125 -105.935546875 -277.786132812 c 0
 -99.314453125 -277.669921875 -92.875 -276.8125 -86.69921875 -275.294921875 c 1
 -86.69921875 -276.064453125 l 1
 -47.41796875 -268.168945312 -18.69921875 -234.250976562 -18.69921875 -193 c 0
 -18.69921875 -151.049804688 -47.41796875 -117.043945312 -86.69921875 -109.137695312 c 1
 -86.69921875 -109.908203125 l 1
 -92.875 -108.387695312 -99.314453125 -107.530273438 -105.935546875 -107.4140625 c 0
-106.775390625 -398.598632812 m 0
 -107.017578125 -398.598632812 -107.2578125 -398.599609375 -107.5 -398.599609375 c 0
 -108.447265625 -398.599609375 -109.39453125 -398.59375 -110.33984375 -398.581054688 c 0
 -114.169921875 -398.543945312 -117.896484375 -398.436523438 -121.79296875 -398.118164062 c 0
 -229.466796875 -390.833007812 -313.900390625 -301.828125 -313.900390625 -193 c 0
 -313.900390625 -83.4072265625 -229.46875 5.62890625 -121.796875 12.91796875 c 0
 -117.8984375 13.236328125 -114.171875 13.3447265625 -110.33984375 13.380859375 c 0
 -109.39453125 13.3935546875 -108.447265625 13.400390625 -107.5 13.400390625 c 0
 -107.2578125 13.400390625 -107.017578125 13.3994140625 -106.775390625 13.3984375 c 0
 -105.958984375 13.400390625 -105.134765625 13.400390625 -104.30078125 13.400390625 c 0
 -17.8798828125 13.400390625 55.7578125 -39.1005859375 86.6083984375 -114.098632812 c 1
 413.900390625 14 l 1
 413.900390625 -107.599609375 l 1
 120.30078125 -206.799804688 l 1
 413.900390625 -306 l 1
 413.900390625 -427.599609375 l 1
 75.060546875 -294.981445312 l 1
 39.5869140625 -356.899414062 -27.2802734375 -398.599609375 -104.30078125 -398.599609375 c 0
 -105.134765625 -398.599609375 -105.958984375 -398.598632812 -106.775390625 -398.598632812 c 0
EndSplineSet
EndChar

StartChar: uni09C2
Encoding: 2498 2498 422
Width: 0
VWidth: 0
Flags: HW
HStem: 13 151<489.817 580.346> 377 151<489.817 580.346>
VStem: 296.346 151<206.066 334.529>
LayerCount: 2
Fore
SplineSet
72.677734375 25.6162109375 m 1
 453.4609375 -167.920898438 l 1
 392.163085938 -273.748046875 l 1
 151.260742188 -151.307617188 l 1
 111.858398438 -285.822265625 -26.9072265625 -364.293945312 -162.094726562 -328.071289062 c 0
 -300.22265625 -291.059570312 -381.540039062 -150.213867188 -344.528320312 -12.0869140625 c 0
 -342.2578125 -3.6123046875 -339.588867188 4.6513671875 -336.547851562 12.69140625 c 1
 -188.915039062 -26.8662109375 l 1
 -193.051757812 -34.3779296875 -196.353515625 -42.509765625 -198.673828125 -51.1689453125 c 0
 -214.203125 -109.124023438 -180.96875 -166.6875 -123.013671875 -182.215820312 c 0
 -66.0234375 -197.486328125 -8.4609375 -164.252929688 7.068359375 -106.296875 c 0
 9.388671875 -97.638671875 10.5947265625 -88.9443359375 10.7724609375 -80.3720703125 c 1
 12.7216796875 -80.89453125 l 1
 11.37890625 -80.2119140625 l 1
 72.677734375 25.6162109375 l 1
EndSplineSet
EndChar

StartChar: uni09C3
Encoding: 2499 2499 423
Width: 0
VWidth: 0
Flags: HW
LayerCount: 2
Fore
SplineSet
254.400390625 14 m 257
 254.400390625 -107.599609375 l 257
 -39.19921875 -206.799804688 l 257
 254.400390625 -306 l 257
 254.400390625 -427.599609375 l 257
 -154.400390625 -267.599609375 l 257
 -154.400390625 -146 l 257
 254.400390625 14 l 257
EndSplineSet
EndChar

StartChar: uni09C4
Encoding: 2500 2500 424
Width: 0
VWidth: 0
Flags: HW
LayerCount: 2
Fore
SplineSet
254.400390625 14 m 1
 254.400390625 -107.599609375 l 1
 207.932617188 -123.299804688 l 1
 254.400390625 -139 l 1
 254.400390625 -260.599609375 l 1
 44.599609375 -178.486328125 l 1
 -39.19921875 -206.799804688 l 1
 254.400390625 -306 l 1
 254.400390625 -427.599609375 l 1
 -154.400390625 -267.599609375 l 1
 -154.400390625 -146 l 1
 -96.4013671875 -123.299804688 l 1
 -154.400390625 -100.599609375 l 1
 -154.400390625 21 l 1
 254.400390625 181 l 1
 254.400390625 59.400390625 l 1
 -39.19921875 -39.7998046875 l 1
 44.599609375 -68.11328125 l 1
 254.400390625 14 l 1
EndSplineSet
EndChar

StartChar: uni09C7
Encoding: 2503 2503 425
Width: 624
VWidth: 75
Flags: HW
LayerCount: 2
Fore
SplineSet
671 813 m 5
 671 681 l 5
 504.5 681 l 5
 438.799804688 671 l 4
 324.5 671 232.700195312 482.5 232.700195312 366.400390625 c 4
 232.700195312 249.400390625 324.5 154.900390625 438.799804688 154.900390625 c 4
 461.798828125 154.900390625 483.88671875 158.725585938 504.5 165.791992188 c 5
 504.5 20.052734375 l 5
 483.234375 15.8173828125 461.26953125 13.599609375 438.799804688 13.599609375 c 4
 248.900390625 13.599609375 95 172 95 368.200195312 c 4
 95 471.798828125 138.305664062 591.463867188 207.317382812 681 c 5
 50 681 l 5
 50 813 l 5
 671 813 l 5
EndSplineSet
EndChar

StartChar: uni09C8
Encoding: 2504 2504 426
Width: 624
VWidth: 75
Flags: HW
LayerCount: 2
Fore
SplineSet
671 813 m 1
 671 681 l 1
 504.5 681 l 1
 438.799804688 671 l 1
 324.5 671 232.700195312 482.5 232.700195312 366.400390625 c 0
 232.700195312 249.400390625 324.5 154.900390625 438.799804688 154.900390625 c 0
 461.798828125 154.900390625 483.88671875 158.725585938 504.5 165.791992188 c 1
 504.5 20.052734375 l 1
 483.234375 15.8173828125 461.26953125 13.599609375 438.799804688 13.599609375 c 0
 248.900390625 13.599609375 95 172 95 368.200195312 c 0
 95 471.798828125 138.305664062 591.463867188 207.317382812 681 c 1
 50 681 l 1
 50 813 l 1
 383.489257812 813 l 1
 377.990234375 838.393554688 367.922851562 864.420898438 349.7890625 882.776367188 c 0
 318.380859375 913.592773438 317.673828125 914.299804688 286.560546875 945.412109375 c 0
 239.891601562 992.081054688 181.202148438 972.989257812 134.532226562 1019.65820312 c 0
 99.177734375 1055.01367188 93.5205078125 1139.8671875 93.5205078125 1139.8671875 c 1
 181.909179688 1228.25488281 l 1
 181.909179688 1228.25488281 189.6875 1141.28125 225.749023438 1105.21875 c 0
 271.00390625 1059.96386719 328.280273438 1081.88378906 373.53515625 1036.62890625 c 0
 407.475585938 1002.68847656 410.3046875 999.859375 444.245117188 965.918945312 c 0
 494.2734375 915.890625 474.794921875 818.1796875 477.479492188 818.1328125 c 1
 472.346679688 813 l 1
 671 813 l 1
EndSplineSet
EndChar

StartChar: uni09D7
Encoding: 2519 2519 427
Width: 254
VWidth: 0
Flags: HW
LayerCount: 2
Fore
SplineSet
305 813 m 1
 305 681 l 1
 260 681 l 1
 260 8 l 1
 108 8 l 1
 108 681 l 1
 50 681 l 1
 50 813 l 1
 108 813 l 1
 118.172851562 813 l 1
 112.372070312 827.458007812 104.483398438 840.951171875 93.7890625 851.776367188 c 0
 62.380859375 882.592773438 61.673828125 883.299804688 30.560546875 914.412109375 c 0
 -16.1083984375 961.081054688 -74.7978515625 941.989257812 -121.467773438 988.658203125 c 0
 -156.822265625 1024.01367188 -162.479492188 1108.8671875 -162.479492188 1108.8671875 c 1
 -74.0908203125 1197.25488281 l 1
 -74.0908203125 1197.25488281 -66.3125 1110.28125 -30.2509765625 1074.21875 c 0
 15.00390625 1028.96386719 72.2802734375 1050.88378906 117.53515625 1005.62890625 c 0
 151.475585938 971.688476562 154.3046875 968.859375 188.245117188 934.918945312 c 0
 222.061523438 901.102539062 224.120117188 845.5 222.732421875 813 c 1
 260 813 l 1
 305 813 l 1
EndSplineSet
EndChar

StartChar: uni09E1
Encoding: 2529 2529 433
Width: 779
VWidth: 0
Flags: HW
HStem: 626 157<101.091 267.973> -4 161<101.091 267.973>
VStem: 402 153<292.8 487.701>
LayerCount: 2
Fore
SplineSet
358.26171875 -136.48828125 m 5
 357.918945312 -133.067382812 357.744140625 -129.59765625 357.744140625 -126.088867188 c 4
 357.744140625 -68.888671875 403.744140625 -22.888671875 460.543945312 -22.888671875 c 4
 498.513671875 -22.888671875 531.547851562 -43.1572265625 549.467773438 -73.517578125 c 5
 556.973632812 -42.9345703125 548.454101562 -9.0068359375 524.2421875 15.205078125 c 4
 487.47265625 51.974609375 428.923828125 52.8232421875 393.002929688 16.90234375 c 4
 385.775390625 9.673828125 380.036132812 1.5302734375 375.778320312 -7.16796875 c 5
 329.977539062 38.6328125 l 5
 335.329101562 46.6474609375 341.53515625 54.2470703125 348.596679688 61.30859375 c 4
 408.276367188 120.98828125 506.422851562 119.57421875 568.083007812 57.9140625 c 4
 629.458984375 -3.462890625 630.874023438 -101.609375 571.194335938 -161.2890625 c 4
 564.1328125 -168.349609375 556.533203125 -174.555664062 548.51953125 -179.908203125 c 5
 505.099609375 -136.48828125 l 5
 502.08984375 -136.48828125 l 5
 502.291015625 -135.671875 502.46875 -134.846679688 502.623046875 -134.01171875 c 6
 501.587890625 -132.977539062 l 5
 502.02734375 -132.762695312 502.463867188 -132.543945312 502.900390625 -132.322265625 c 4
 503.192382812 -130.286132812 503.34375 -128.205078125 503.34375 -126.088867188 c 4
 503.34375 -102.088867188 484.543945312 -83.2880859375 460.543945312 -83.2890625 c 4
 436.943359375 -83.2880859375 418.143554688 -102.088867188 418.14453125 -126.088867188 c 4
 418.143554688 -129.673828125 418.578125 -133.158203125 419.396484375 -136.48828125 c 5
 358.26171875 -136.48828125 l 5
148.155273438 113.778320312 m 1
 147.297851562 122.33203125 146.859375 131.004882812 146.859375 139.778320312 c 0
 146.859375 282.778320312 261.859375 397.779296875 403.859375 397.779296875 c 0
 498.783203125 397.779296875 581.369140625 347.10546875 626.170898438 271.20703125 c 1
 644.932617188 347.665039062 623.635742188 432.482421875 563.10546875 493.012695312 c 0
 471.181640625 584.936523438 324.810546875 587.05859375 235.0078125 497.255859375 c 0
 216.9375 479.185546875 202.58984375 458.826171875 191.946289062 437.079101562 c 1
 77.443359375 551.583007812 l 1
 90.8232421875 571.619140625 106.337890625 590.618164062 123.9921875 608.271484375 c 0
 273.19140625 757.470703125 518.557617188 753.935546875 672.70703125 599.786132812 c 0
 826.1484375 446.34375 829.684570312 200.977539062 680.485351562 51.7783203125 c 0
 662.831054688 34.125 643.83203125 18.6103515625 623.797851562 5.228515625 c 1
 515.248046875 113.778320312 l 1
 507.724609375 113.778320312 l 1
 508.227539062 115.819335938 508.671875 117.883789062 509.056640625 119.969726562 c 2
 506.470703125 122.555664062 l 1
 507.567382812 123.092773438 508.66015625 123.639648438 509.75 124.1953125 c 0
 510.481445312 129.283203125 510.860351562 134.486328125 510.859375 139.778320312 c 0
 510.860351562 199.778320312 463.859375 246.779296875 403.859375 246.778320312 c 0
 344.859375 246.779296875 297.859375 199.778320312 297.860351562 139.778320312 c 0
 297.859375 130.814453125 298.9453125 122.104492188 300.991210938 113.778320312 c 1
 148.155273438 113.778320312 l 1
EndSplineSet
EndChar

StartChar: uni09E0
Encoding: 2528 2528 434
Width: 1344
Flags: HW
LayerCount: 2
Fore
SplineSet
972 787 m 1
 1118 787 l 1
 1118 295.5 l 1
 1192.5 221 l 1
 1194.5 805 l 1
 1394.5 805 l 1
 1394.5 673 l 1
 1344.5 673 l 1
 1344.5 10 l 1
 1342 10 l 1
 1342 -79 l 1
 1048.40039062 -178.200195312 l 1
 1342 -277.400390625 l 1
 1342 -399 l 1
 933.19921875 -239 l 1
 933.19921875 -117.400390625 l 1
 1258.70800781 10 l 1
 1192.51855469 10 l 1
 1190.5 8 l 1
 1118 80.5 l 1
 1118 11 l 1
 971 11 l 1
 971 12.6953125 l 1
 518.5 189.5 l 1
 518.5 341.5 l 1
 764.940429688 571.51171875 l 1
 775.203125 639.375976562 l 1
 748.943359375 563.631835938 677.708007812 510 594 510 c 0
 532.708984375 510 478.502929688 537.698242188 443.081054688 581.395507812 c 1
 407.87109375 537.698242188 354.15625 510 294 510 c 0
 186 510 100 596 100 704 c 0
 100 710 100 717 100 723 c 1
 216 723 l 1
 214 717 213 710 213 704 c 0
 213 659 249 623 294 623 c 0
 339 623 373 659 373 704 c 0
 373 710 372 717 370 723 c 1
 400 723 l 1
 486 723 l 1
 516 723 l 1
 514 717 513 710 513 704 c 0
 513 659 549 623 594 623 c 0
 639 623 673 659 673 704 c 0
 673 710 672 780 670 786 c 1
 972 787 l 1
971 169.684570312 m 1
 971 719.262695312 l 1
 804 454 l 1
 803.189453125 455.12109375 l 1
 662.5 283.5 l 1
 971 169.684570312 l 1
EndSplineSet
EndChar

StartChar: uni09E2
Encoding: 2530 2530 435
Width: 0
VWidth: 0
Flags: HW
LayerCount: 2
Fore
SplineSet
-64.251953125 -136.48828125 m 5
 -64.5947265625 -133.067382812 -64.76953125 -129.59765625 -64.76953125 -126.088867188 c 4
 -64.76953125 -68.888671875 -18.76953125 -22.888671875 38.0302734375 -22.888671875 c 4
 76 -22.888671875 109.034179688 -43.1572265625 126.954101562 -73.517578125 c 5
 134.459960938 -42.9345703125 125.940429688 -9.0068359375 101.728515625 15.205078125 c 4
 64.958984375 51.974609375 6.41015625 52.8232421875 -29.5107421875 16.90234375 c 4
 -36.73828125 9.673828125 -42.4775390625 1.5302734375 -46.7353515625 -7.16796875 c 5
 -92.5361328125 38.6328125 l 5
 -87.1845703125 46.6474609375 -80.978515625 54.2470703125 -73.9169921875 61.30859375 c 4
 -14.2373046875 120.98828125 83.9091796875 119.57421875 145.569335938 57.9140625 c 4
 206.9453125 -3.462890625 208.360351562 -101.609375 148.680664062 -161.2890625 c 4
 141.619140625 -168.349609375 134.01953125 -174.555664062 126.005859375 -179.908203125 c 5
 82.5859375 -136.48828125 l 5
 79.576171875 -136.48828125 l 5
 79.77734375 -135.671875 79.955078125 -134.846679688 80.109375 -134.01171875 c 6
 79.07421875 -132.977539062 l 5
 79.513671875 -132.762695312 79.9501953125 -132.543945312 80.38671875 -132.322265625 c 4
 80.6787109375 -130.286132812 80.830078125 -128.205078125 80.830078125 -126.088867188 c 4
 80.830078125 -102.088867188 62.0302734375 -83.2880859375 38.0302734375 -83.2890625 c 4
 14.4296875 -83.2880859375 -4.3701171875 -102.088867188 -4.369140625 -126.088867188 c 4
 -4.3701171875 -129.673828125 -3.935546875 -133.158203125 -3.1171875 -136.48828125 c 5
 -64.251953125 -136.48828125 l 5
EndSplineSet
EndChar

StartChar: uni09E3
Encoding: 2531 2531 436
Width: 0
VWidth: 0
Flags: HW
LayerCount: 2
Fore
SplineSet
91.7421875 -284.580078125 m 5
 91.3994140625 -281.159179688 91.224609375 -277.689453125 91.224609375 -274.180664062 c 4
 91.224609375 -216.98046875 137.224609375 -170.98046875 194.024414062 -170.98046875 c 4
 231.994140625 -170.98046875 265.028320312 -191.249023438 282.948242188 -221.609375 c 5
 290.454101562 -191.026367188 281.934570312 -157.098632812 257.72265625 -132.88671875 c 4
 220.953125 -96.1171875 162.404296875 -95.2685546875 126.483398438 -131.189453125 c 4
 119.255859375 -138.41796875 113.516601562 -146.561523438 109.258789062 -155.259765625 c 5
 63.4580078125 -109.458984375 l 5
 68.8095703125 -101.444335938 75.015625 -93.8447265625 82.0771484375 -86.783203125 c 4
 141.756835938 -27.103515625 239.903320312 -28.517578125 301.563476562 -90.177734375 c 4
 362.939453125 -151.5546875 364.354492188 -249.701171875 304.674804688 -309.380859375 c 4
 297.61328125 -316.44140625 290.013671875 -322.647460938 282 -328 c 5
 238.580078125 -284.580078125 l 5
 235.5703125 -284.580078125 l 5
 235.771484375 -283.763671875 235.94921875 -282.938476562 236.103515625 -282.103515625 c 6
 235.068359375 -281.069335938 l 5
 235.5078125 -280.854492188 235.944335938 -280.635742188 236.380859375 -280.4140625 c 4
 236.672851562 -278.377929688 236.82421875 -276.296875 236.82421875 -274.180664062 c 4
 236.82421875 -250.180664062 218.024414062 -231.379882812 194.024414062 -231.380859375 c 4
 170.423828125 -231.379882812 151.624023438 -250.180664062 151.625 -274.180664062 c 4
 151.624023438 -277.765625 152.05859375 -281.25 152.876953125 -284.580078125 c 5
 91.7421875 -284.580078125 l 5
-93.2578125 -148.580078125 m 1
 -93.6005859375 -145.159179688 -93.775390625 -141.689453125 -93.775390625 -138.180664062 c 0
 -93.775390625 -80.98046875 -47.775390625 -34.98046875 9.0244140625 -34.98046875 c 0
 46.994140625 -34.98046875 80.0283203125 -55.2490234375 97.9482421875 -85.609375 c 1
 105.454101562 -55.0263671875 96.9345703125 -21.0986328125 72.72265625 3.11328125 c 0
 35.953125 39.8828125 -22.595703125 40.7314453125 -58.5166015625 4.810546875 c 0
 -65.744140625 -2.41796875 -71.4833984375 -10.5615234375 -75.7412109375 -19.259765625 c 1
 -121.541992188 26.541015625 l 1
 -116.190429688 34.5556640625 -109.984375 42.1552734375 -102.922851562 49.216796875 c 0
 -43.2431640625 108.896484375 54.9033203125 107.482421875 116.563476562 45.822265625 c 0
 177.939453125 -15.5546875 179.354492188 -113.701171875 119.674804688 -173.380859375 c 0
 112.61328125 -180.44140625 105.013671875 -186.647460938 97 -192 c 1
 53.580078125 -148.580078125 l 1
 50.5703125 -148.580078125 l 1
 50.771484375 -147.763671875 50.94921875 -146.938476562 51.103515625 -146.103515625 c 2
 50.068359375 -145.069335938 l 1
 50.5078125 -144.854492188 50.9443359375 -144.635742188 51.380859375 -144.4140625 c 0
 51.6728515625 -142.377929688 51.82421875 -140.296875 51.82421875 -138.180664062 c 0
 51.82421875 -114.180664062 33.0244140625 -95.3798828125 9.0244140625 -95.380859375 c 0
 -14.576171875 -95.3798828125 -33.3759765625 -114.180664062 -33.375 -138.180664062 c 0
 -33.3759765625 -141.765625 -32.94140625 -145.25 -32.123046875 -148.580078125 c 1
 -93.2578125 -148.580078125 l 1
EndSplineSet
EndChar

StartChar: uni09F2
Encoding: 2546 2546 437
Width: 445
VWidth: 0
Flags: HW
LayerCount: 2
Fore
SplineSet
208 437 m 5
 441 79 l 5
 335 18 l 5
 102 376 l 5
 208 437 l 5
EndSplineSet
EndChar

StartChar: uni09F3
Encoding: 2547 2547 438
Width: 806
VWidth: 0
Flags: HW
HStem: 681 132<50 100 267 689> 681 90<100 267>
VStem: 103 164<182.77 771> 502 164<182.95 383>
LayerCount: 2
Fore
SplineSet
266 782 m 25
 266 782 297 879 280 938 c 24
 272 966 237 951 212 966 c 24
 188 980 156 1012 156 1012 c 25
 170 1104 l 25
 170 1104 255 1105 302 1084 c 24
 365 1056 420 1044 444 980 c 24
 474 900 422 762 422 762 c 25
 266 782 l 25
824 194 m 1
 755.931640625 -45.4130859375 330.236328125 -49.4453125 261 194 c 1
 258.467773438 681 l 1
 82 681 l 5
 82 813 l 5
 689 813 l 1
 689 681 l 1
 425 681 l 1
 425 195 l 1
 463.237304688 151.02734375 622.430664062 149.916992188 660 195 c 1
 660 383 l 1
 827 383 l 1
 824 194 l 1
EndSplineSet
EndChar

StartChar: uni09F4
Encoding: 2548 2548 439
Width: 445
VWidth: 0
Flags: HW
LayerCount: 2
Fore
SplineSet
340 477 m 1
 446 416 l 1
 213 58 l 1
 107 119 l 1
 340 477 l 1
EndSplineSet
EndChar

StartChar: uni09F5
Encoding: 2549 2549 440
Width: 1011
VWidth: 0
Flags: HW
HStem: 626 157<101.091 267.973> -4 161<101.091 267.973>
VStem: 402 153<292.8 487.701>
LayerCount: 2
Fore
SplineSet
186.034179688 647.158203125 m 1
 194.587890625 648.015625 203.260742188 648.454101562 212.034179688 648.454101562 c 0
 355.034179688 648.454101562 470.03515625 533.454101562 470.03515625 391.454101562 c 0
 470.03515625 296.530273438 419.361328125 213.944335938 343.462890625 169.142578125 c 1
 419.920898438 150.380859375 504.73828125 171.677734375 565.268554688 232.208007812 c 0
 868 520 l 1
 1046 444 l 1
 732.203125 130.736328125 l 0
 578.760742188 -22.705078125 273.229492188 -34.375 124.034179688 114.828125 c 0
 106.380859375 132.482421875 90.8662109375 151.481445312 77.484375 171.515625 c 1
 186.034179688 280.065429688 l 1
 186.034179688 287.588867188 l 1
 188.075195312 287.0859375 190.139648438 286.641601562 192.225585938 286.256835938 c 2
 194.811523438 288.842773438 l 1
 195.348632812 287.74609375 195.895507812 286.653320312 196.451171875 285.563476562 c 0
 201.5390625 284.83203125 206.7421875 284.454101562 212.034179688 284.454101562 c 0
 272.034179688 284.453125 319.03515625 331.454101562 319.034179688 391.454101562 c 0
 319.03515625 450.454101562 272.034179688 497.454101562 212.034179688 497.453125 c 0
 203.0703125 497.454101562 194.360351562 496.368164062 186.034179688 494.322265625 c 1
 186.034179688 647.158203125 l 1
EndSplineSet
EndChar

